<svg width="74" height="19" viewBox="0 0 74 19" fill="none" xmlns="http://www.w3.org/2000/svg">
<path d="M6.878 1.008V1.488C6.334 1.504 5.918 1.568 5.63 1.68C5.358 1.776 5.174 1.968 5.078 2.256C4.982 2.528 4.934 2.96 4.934 3.552V15.456C4.934 16.032 4.982 16.464 5.078 16.752C5.174 17.04 5.358 17.232 5.63 17.328C5.918 17.424 6.334 17.488 6.878 17.52V18C6.51 17.968 6.046 17.952 5.486 17.952C4.942 17.936 4.39 17.928 3.83 17.928C3.206 17.928 2.622 17.936 2.078 17.952C1.534 17.952 1.094 17.968 0.758 18V17.52C1.302 17.488 1.71 17.424 1.982 17.328C2.27 17.232 2.462 17.04 2.558 16.752C2.654 16.464 2.702 16.032 2.702 15.456V3.552C2.702 2.96 2.654 2.528 2.558 2.256C2.462 1.968 2.27 1.776 1.982 1.68C1.71 1.568 1.302 1.504 0.758 1.488V1.008C1.094 1.024 1.534 1.04 2.078 1.056C2.622 1.072 3.206 1.08 3.83 1.08C4.39 1.08 4.942 1.072 5.486 1.056C6.046 1.04 6.51 1.024 6.878 1.008ZM23.9628 1.008V1.488C23.4188 1.504 23.0028 1.584 22.7148 1.728C22.4428 1.872 22.2588 2.104 22.1628 2.424C22.0668 2.744 22.0188 3.2 22.0188 3.792V18.12C21.9228 18.12 21.8268 18.12 21.7308 18.12C21.6508 18.12 21.5628 18.12 21.4668 18.12L11.3868 2.544V15.216C11.3868 15.792 11.4348 16.248 11.5308 16.584C11.6428 16.904 11.8508 17.136 12.1548 17.28C12.4748 17.408 12.9468 17.488 13.5708 17.52V18C13.2828 17.968 12.9068 17.952 12.4428 17.952C11.9788 17.936 11.5388 17.928 11.1228 17.928C10.7228 17.928 10.3148 17.936 9.89881 17.952C9.49881 17.952 9.16281 17.968 8.89081 18V17.52C9.43481 17.488 9.84281 17.408 10.1148 17.28C10.4028 17.136 10.5948 16.904 10.6908 16.584C10.7868 16.248 10.8348 15.792 10.8348 15.216V3.552C10.8348 2.96 10.7868 2.528 10.6908 2.256C10.5948 1.968 10.4028 1.776 10.1148 1.68C9.84281 1.568 9.43481 1.504 8.89081 1.488V1.008C9.16281 1.024 9.49881 1.04 9.89881 1.056C10.3148 1.072 10.7228 1.08 11.1228 1.08C11.4748 1.08 11.8108 1.072 12.1308 1.056C12.4508 1.04 12.7388 1.024 12.9948 1.008L21.4668 14.064V3.792C21.4668 3.2 21.4108 2.744 21.2988 2.424C21.2028 2.104 20.9948 1.872 20.6748 1.728C20.3708 1.584 19.9068 1.504 19.2828 1.488V1.008C19.5708 1.024 19.9468 1.04 20.4108 1.056C20.8908 1.072 21.3308 1.08 21.7308 1.08C22.1468 1.08 22.5548 1.072 22.9548 1.056C23.3708 1.04 23.7068 1.024 23.9628 1.008ZM31.9561 1.008V1.488C31.4121 1.504 30.9961 1.568 30.7081 1.68C30.4361 1.776 30.2521 1.968 30.1561 2.256C30.0601 2.528 30.0121 2.96 30.0121 3.552V15.456C30.0121 16.032 30.0601 16.464 30.1561 16.752C30.2521 17.04 30.4361 17.232 30.7081 17.328C30.9961 17.424 31.4121 17.488 31.9561 17.52V18C31.5881 17.968 31.1241 17.952 30.5641 17.952C30.0201 17.936 29.4681 17.928 28.9081 17.928C28.2841 17.928 27.7001 17.936 27.1561 17.952C26.6121 17.952 26.1721 17.968 25.8361 18V17.52C26.3801 17.488 26.7881 17.424 27.0601 17.328C27.3481 17.232 27.5401 17.04 27.6361 16.752C27.7321 16.464 27.7801 16.032 27.7801 15.456V3.552C27.7801 2.96 27.7321 2.528 27.6361 2.256C27.5401 1.968 27.3481 1.776 27.0601 1.68C26.7881 1.568 26.3801 1.504 25.8361 1.488V1.008C26.1721 1.024 26.6121 1.04 27.1561 1.056C27.7001 1.072 28.2841 1.08 28.9081 1.08C29.4681 1.08 30.0201 1.072 30.5641 1.056C31.1241 1.04 31.5881 1.024 31.9561 1.008ZM41.6774 0.671999C42.7334 0.671999 43.5974 0.831999 44.2694 1.152C44.9574 1.456 45.5654 1.816 46.0934 2.232C46.4134 2.472 46.6534 2.504 46.8134 2.328C46.9894 2.136 47.1094 1.696 47.1734 1.008H47.7254C47.6934 1.6 47.6694 2.32 47.6534 3.168C47.6374 4.016 47.6294 5.136 47.6294 6.528H47.0774C46.9654 5.84 46.8614 5.296 46.7654 4.896C46.6694 4.48 46.5494 4.128 46.4054 3.84C46.2774 3.552 46.1014 3.264 45.8774 2.976C45.3814 2.32 44.7574 1.848 44.0054 1.56C43.2534 1.256 42.4614 1.104 41.6294 1.104C40.8454 1.104 40.1334 1.304 39.4934 1.704C38.8694 2.088 38.3254 2.648 37.8614 3.384C37.4134 4.12 37.0614 5.008 36.8054 6.048C36.5654 7.088 36.4454 8.256 36.4454 9.552C36.4454 10.896 36.5814 12.088 36.8534 13.128C37.1254 14.152 37.5014 15.016 37.9814 15.72C38.4774 16.424 39.0534 16.96 39.7094 17.328C40.3814 17.68 41.1014 17.856 41.8694 17.856C42.5894 17.856 43.3414 17.712 44.1254 17.424C44.9094 17.136 45.5254 16.672 45.9734 16.032C46.3254 15.568 46.5654 15.064 46.6934 14.52C46.8374 13.976 46.9654 13.216 47.0774 12.24H47.6294C47.6294 13.696 47.6374 14.872 47.6534 15.768C47.6694 16.648 47.6934 17.392 47.7254 18H47.1734C47.1094 17.312 46.9974 16.88 46.8374 16.704C46.6934 16.528 46.4454 16.552 46.0934 16.776C45.5014 17.192 44.8694 17.56 44.1974 17.88C43.5414 18.184 42.6934 18.336 41.6534 18.336C40.1334 18.336 38.7974 17.992 37.6454 17.304C36.5094 16.616 35.6214 15.624 34.9814 14.328C34.3574 13.032 34.0454 11.472 34.0454 9.648C34.0454 7.856 34.3734 6.288 35.0294 4.944C35.6854 3.6 36.5814 2.552 37.7174 1.8C38.8694 1.048 40.1894 0.671999 41.6774 0.671999ZM56.4249 1.008V1.488C55.8809 1.504 55.4649 1.568 55.1769 1.68C54.9049 1.776 54.7209 1.968 54.6249 2.256C54.5289 2.528 54.4809 2.96 54.4809 3.552V15.456C54.4809 16.032 54.5289 16.464 54.6249 16.752C54.7209 17.04 54.9049 17.232 55.1769 17.328C55.4649 17.424 55.8809 17.488 56.4249 17.52V18C56.0569 17.968 55.5929 17.952 55.0329 17.952C54.4889 17.936 53.9369 17.928 53.3769 17.928C52.7529 17.928 52.1689 17.936 51.6249 17.952C51.0809 17.952 50.6409 17.968 50.3049 18V17.52C50.8489 17.488 51.2569 17.424 51.5289 17.328C51.8169 17.232 52.0089 17.04 52.1049 16.752C52.2009 16.464 52.2489 16.032 52.2489 15.456V3.552C52.2489 2.96 52.2009 2.528 52.1049 2.256C52.0089 1.968 51.8169 1.776 51.5289 1.68C51.2569 1.568 50.8489 1.504 50.3049 1.488V1.008C50.6409 1.024 51.0809 1.04 51.6249 1.056C52.1689 1.072 52.7529 1.08 53.3769 1.08C53.9369 1.08 54.4889 1.072 55.0329 1.056C55.5929 1.04 56.0569 1.024 56.4249 1.008ZM66.1462 0.671999C67.6662 0.671999 68.9942 1.016 70.1302 1.704C71.2822 2.392 72.1702 3.384 72.7942 4.68C73.4342 5.96 73.7542 7.52 73.7542 9.36C73.7542 11.152 73.4262 12.72 72.7702 14.064C72.1302 15.408 71.2342 16.456 70.0822 17.208C68.9302 17.96 67.6102 18.336 66.1222 18.336C64.6022 18.336 63.2662 17.992 62.1142 17.304C60.9782 16.616 60.0902 15.624 59.4502 14.328C58.8262 13.032 58.5142 11.472 58.5142 9.648C58.5142 7.856 58.8422 6.288 59.4982 4.944C60.1542 3.6 61.0502 2.552 62.1862 1.8C63.3382 1.048 64.6582 0.671999 66.1462 0.671999ZM66.0502 1.104C65.0102 1.104 64.1062 1.464 63.3382 2.184C62.5702 2.904 61.9702 3.896 61.5382 5.16C61.1222 6.424 60.9142 7.888 60.9142 9.552C60.9142 11.248 61.1462 12.728 61.6102 13.992C62.0902 15.24 62.7302 16.208 63.5302 16.896C64.3462 17.568 65.2422 17.904 66.2182 17.904C67.2582 17.904 68.1622 17.544 68.9302 16.824C69.6982 16.104 70.2902 15.112 70.7062 13.848C71.1382 12.568 71.3542 11.104 71.3542 9.456C71.3542 7.744 71.1142 6.264 70.6342 5.016C70.1702 3.768 69.5382 2.808 68.7382 2.136C67.9382 1.448 67.0422 1.104 66.0502 1.104Z" fill="white"/>
</svg>
