<?xml version="1.0" encoding="UTF-8"?>
<svg xmlns="http://www.w3.org/2000/svg" xmlns:xlink="http://www.w3.org/1999/xlink" width="50px" height="58px" viewBox="0 0 50 57" version="1.1">
<defs>
<clipPath id="clip1">
  <path d="M 0 0.0390625 L 50 0.0390625 L 50 56.394531 L 0 56.394531 Z M 0 0.0390625 "/>
</clipPath>
<clipPath id="clip2">
  <path d="M 8 30 L 24 30 L 24 56.394531 L 8 56.394531 Z M 8 30 "/>
</clipPath>
<clipPath id="clip3">
  <path d="M 26 30 L 42 30 L 42 56.394531 L 26 56.394531 Z M 26 30 "/>
</clipPath>
<clipPath id="clip4">
  <path d="M 15 0.0390625 L 35 0.0390625 L 35 13 L 15 13 Z M 15 0.0390625 "/>
</clipPath>
</defs>
<g id="surface1">
<g clip-path="url(#clip1)" clip-rule="nonzero">
<path style=" stroke:none;fill-rule:nonzero;fill:rgb(14.117647%,13.333333%,13.333333%);fill-opacity:1;" d="M 0.136719 20.996094 C 0.136719 14.011719 0.136719 7.097656 0.136719 0.183594 C 16.800781 0.183594 33.46875 0.183594 50.132812 0.183594 C 50.132812 18.96875 50.132812 37.75 50.132812 56.535156 C 33.46875 56.535156 16.800781 56.535156 0.136719 56.535156 C 0.136719 44.714844 0.136719 32.890625 0.136719 20.996094 Z M 32.601562 41.4375 C 32.984375 40.539062 33.351562 39.636719 33.757812 38.753906 C 33.972656 38.289062 33.976562 37.921875 33.703125 37.457031 C 32.789062 35.921875 32.640625 34.242188 33.082031 32.519531 C 33.609375 30.460938 35.023438 29.339844 36.898438 28.777344 C 37.300781 28.65625 37.601562 28.511719 37.734375 28.03125 C 38.179688 26.417969 38.679688 24.820312 39.121094 23.207031 C 39.203125 22.902344 39.195312 22.5 39.078125 22.207031 C 37.871094 19.117188 36.636719 16.039062 35.382812 12.972656 C 35.296875 12.761719 35.027344 12.582031 34.804688 12.492188 C 33.457031 11.960938 32.089844 11.476562 30.738281 10.945312 C 30.261719 10.753906 30.019531 10.8125 29.753906 11.332031 C 28.710938 13.351562 26.710938 14.628906 24.285156 14.183594 C 23.667969 14.070312 23.046875 13.855469 22.484375 13.566406 C 21.5625 13.085938 21.054688 12.175781 20.660156 11.226562 C 20.441406 10.703125 20.152344 10.644531 19.707031 10.8125 C 18.328125 11.335938 16.9375 11.832031 15.570312 12.390625 C 15.269531 12.515625 14.945312 12.8125 14.816406 13.117188 C 13.535156 16.113281 12.285156 19.128906 11.050781 22.152344 C 10.9375 22.433594 10.878906 22.816406 10.960938 23.101562 C 11.4375 24.796875 11.949219 26.480469 12.484375 28.15625 C 12.546875 28.355469 12.808594 28.570312 13.011719 28.621094 C 14.40625 28.972656 15.582031 29.746094 16.335938 30.980469 C 17.625 33.09375 17.589844 35.332031 16.417969 37.511719 C 16.191406 37.9375 16.152344 38.265625 16.339844 38.679688 C 16.820312 39.753906 17.289062 40.839844 17.769531 41.917969 C 17.980469 42.394531 18.207031 42.867188 18.4375 43.367188 C 18.625 43.238281 18.746094 43.175781 18.84375 43.082031 C 20.300781 41.726562 21.785156 40.398438 23.195312 38.988281 C 23.589844 38.589844 23.839844 37.988281 24.050781 37.433594 C 24.605469 35.960938 23.195312 33.777344 21.535156 34.074219 C 20.808594 34.203125 20.382812 33.8125 20.355469 33.144531 C 20.257812 31.003906 20.207031 28.863281 20.050781 26.730469 C 20.019531 26.265625 19.710938 25.742188 19.382812 25.402344 C 18.890625 24.898438 18.265625 24.535156 17.703125 24.101562 C 16.949219 23.519531 16.207031 22.921875 15.449219 22.34375 C 14.429688 21.5625 13.71875 20.761719 14.761719 19.335938 C 15.089844 18.886719 15.445312 18.464844 15.757812 18.007812 C 16.335938 17.164062 16.820312 17.09375 17.703125 17.628906 C 18.6875 18.222656 19.683594 18.808594 20.617188 19.484375 C 21.507812 20.136719 22.140625 20.996094 22.113281 22.25 C 22.089844 23.261719 22.15625 24.273438 22.171875 25.28125 C 22.199219 27.144531 22.21875 29.007812 22.234375 30.871094 C 22.238281 31.191406 22.222656 31.476562 22.667969 31.480469 C 24.195312 31.507812 25.71875 31.535156 27.242188 31.617188 C 27.902344 31.65625 28.027344 31.367188 28.023438 30.75 C 28.003906 28.015625 28.050781 25.277344 28.019531 22.542969 C 28.003906 21.210938 28.574219 20.21875 29.539062 19.507812 C 30.574219 18.742188 31.699219 18.105469 32.804688 17.449219 C 33.265625 17.175781 33.792969 17.203125 34.152344 17.636719 C 34.699219 18.304688 35.1875 19.027344 35.679688 19.746094 C 36.03125 20.265625 35.894531 21.410156 35.449219 21.742188 C 34.121094 22.742188 32.796875 23.746094 31.445312 24.714844 C 30.492188 25.402344 30.003906 26.253906 30.03125 27.527344 C 30.074219 29.367188 29.972656 31.207031 29.917969 33.046875 C 29.898438 33.730469 29.539062 33.949219 28.871094 33.929688 C 28.421875 33.917969 27.925781 34.027344 27.527344 34.238281 C 25.667969 35.222656 25.742188 38.519531 27.5625 39.828125 C 28.460938 40.476562 29.21875 41.339844 30.054688 42.082031 C 30.570312 42.539062 31.117188 42.957031 31.691406 43.421875 C 32.015625 42.710938 32.28125 42.121094 32.601562 41.4375 Z M 20.371094 53.894531 C 21.539062 54.597656 22.703125 55.296875 23.9375 56.039062 C 23.9375 52.90625 23.9375 49.933594 23.9375 47.0625 C 23.023438 46.898438 22.296875 46.726562 21.558594 46.640625 C 20.15625 46.472656 18.828125 46.050781 17.554688 45.429688 C 17.234375 45.273438 16.914062 44.9375 16.753906 44.601562 C 15.8125 42.617188 14.914062 40.613281 14.011719 38.613281 C 13.707031 37.9375 13.847656 37.195312 14.347656 36.675781 C 15.828125 35.136719 15.574219 32.40625 13.605469 31.167969 C 13.265625 30.953125 12.855469 30.867188 12.429688 30.703125 C 11.042969 36.0625 9.683594 41.3125 8.328125 46.550781 C 12.378906 49.023438 16.332031 51.433594 20.371094 53.894531 Z M 38.023438 33.214844 C 37.878906 32.628906 37.75 32.035156 37.578125 31.460938 C 37.457031 31.058594 37.25 30.714844 36.757812 30.988281 C 34.570312 32.214844 34.253906 34.976562 35.730469 36.789062 C 36.347656 37.546875 36.347656 38.117188 36.023438 38.847656 C 35.132812 40.835938 34.21875 42.8125 33.296875 44.789062 C 33.207031 44.984375 33.039062 45.191406 32.855469 45.273438 C 30.695312 46.253906 28.441406 46.847656 26.136719 46.992188 C 26.136719 50.011719 26.136719 53.039062 26.136719 56.15625 C 26.371094 56.042969 26.472656 56.003906 26.566406 55.945312 C 31.410156 53.019531 36.246094 50.082031 41.097656 47.171875 C 41.566406 46.890625 41.699219 46.652344 41.539062 46.074219 C 40.355469 41.832031 39.21875 37.574219 38.023438 33.214844 Z M 16.101562 4.730469 C 16.894531 6.027344 17.703125 7.316406 18.476562 8.628906 C 18.671875 8.960938 18.847656 9.019531 19.175781 8.875 C 19.644531 8.667969 20.132812 8.515625 20.617188 8.351562 C 21.378906 8.097656 21.65625 8.265625 21.894531 9.035156 C 22.035156 9.496094 22.210938 9.957031 22.421875 10.390625 C 23.367188 12.332031 26.378906 12.777344 27.53125 10.925781 C 27.867188 10.382812 28.09375 9.757812 28.292969 9.140625 C 28.464844 8.609375 28.769531 8.34375 29.273438 8.40625 C 29.800781 8.476562 30.363281 8.519531 30.824219 8.757812 C 31.347656 9.027344 31.585938 8.863281 31.847656 8.429688 C 32.710938 7.011719 33.585938 5.601562 34.484375 4.136719 C 34.300781 3.960938 34.140625 3.738281 33.929688 3.609375 C 32.730469 2.882812 31.5 2.207031 30.3125 1.457031 C 29.179688 0.738281 29.085938 0.71875 28.15625 1.695312 C 27.160156 2.746094 26.164062 3.796875 25.214844 4.796875 C 24.496094 4.140625 23.789062 3.542969 23.140625 2.890625 C 22.5625 2.308594 22.039062 1.667969 21.511719 1.039062 C 21.230469 0.703125 20.964844 0.71875 20.632812 0.933594 C 19.171875 1.871094 17.707031 2.804688 16.230469 3.71875 C 15.804688 3.980469 15.714844 4.25 16.101562 4.730469 Z M 46.832031 43.660156 C 47.449219 43.285156 48.070312 42.917969 48.679688 42.53125 C 48.863281 42.414062 49.136719 42.25 49.152344 42.085938 C 49.234375 41.214844 49.429688 40.316406 48.902344 39.503906 C 48.566406 38.980469 48.234375 38.457031 47.921875 37.917969 C 46.152344 34.84375 44.390625 31.761719 42.621094 28.6875 C 42.003906 27.621094 41.371094 26.566406 40.722656 25.464844 C 40.597656 25.605469 40.507812 25.664062 40.484375 25.742188 C 40.097656 26.929688 39.699219 28.113281 39.355469 29.316406 C 39.265625 29.632812 39.277344 30.027344 39.367188 30.351562 C 40.695312 35.183594 42.046875 40.011719 43.398438 44.835938 C 43.464844 45.0625 43.589844 45.265625 43.703125 45.511719 C 44.773438 44.875 45.757812 44.285156 46.832031 43.660156 Z M 6.167969 45.316406 C 6.300781 45.101562 6.5 44.910156 6.5625 44.675781 C 7.796875 40.300781 8.90625 35.878906 10.28125 31.550781 C 11 29.292969 10.230469 27.460938 9.488281 25.523438 C 9.460938 25.457031 9.347656 25.433594 9.25 25.375 C 7.789062 27.929688 6.335938 30.460938 4.898438 32.996094 C 3.917969 34.730469 3.054688 36.546875 1.949219 38.191406 C 1.214844 39.285156 0.808594 40.335938 1.074219 41.636719 C 1.125 41.871094 1.289062 42.144531 1.480469 42.273438 C 3.003906 43.285156 4.546875 44.269531 6.167969 45.316406 Z M 34.144531 8.644531 C 34.058594 8.78125 33.984375 8.929688 33.886719 9.050781 C 33.488281 9.53125 33.582031 9.789062 34.167969 9.964844 C 34.808594 10.152344 35.425781 10.414062 36.042969 10.667969 C 36.285156 10.769531 36.609375 10.878906 36.707031 11.085938 C 36.964844 11.636719 37.339844 11.726562 37.859375 11.65625 C 38.234375 11.609375 38.621094 11.648438 39.003906 11.660156 C 40.628906 11.695312 41.722656 12.707031 42.523438 14.015625 C 42.917969 14.660156 43.023438 15.550781 43.101562 16.34375 C 43.160156 16.9375 43.335938 17.203125 43.878906 17.324219 C 45.09375 17.585938 46.300781 17.898438 47.507812 18.195312 C 48.074219 18.335938 48.640625 18.488281 49.238281 18.644531 C 49.277344 18.398438 49.3125 18.285156 49.308594 18.171875 C 49.273438 16.496094 49.242188 14.824219 49.1875 13.152344 C 49.179688 13.003906 49.054688 12.808594 48.929688 12.726562 C 48.34375 12.335938 47.738281 11.976562 47.136719 11.609375 C 45.808594 10.800781 44.488281 9.984375 43.15625 9.1875 C 42.078125 8.542969 40.976562 7.941406 39.902344 7.292969 C 38.859375 6.664062 37.84375 5.988281 36.800781 5.363281 C 36.484375 5.171875 36.210938 5.222656 35.980469 5.625 C 35.414062 6.621094 34.792969 7.582031 34.144531 8.644531 Z M 12.933594 5.613281 C 12.519531 5.875 12.105469 6.140625 11.691406 6.398438 C 8.398438 8.433594 5.109375 10.464844 1.816406 12.5 C 1.320312 12.804688 0.949219 13.152344 1.0625 13.867188 C 1.132812 14.296875 1.011719 14.757812 1.007812 15.207031 C 0.996094 16.261719 1.003906 17.316406 1.003906 18.386719 C 1.128906 18.40625 1.222656 18.449219 1.300781 18.429688 C 3.015625 17.964844 4.730469 17.5 6.441406 17.011719 C 6.5625 16.976562 6.6875 16.769531 6.726562 16.617188 C 6.808594 16.304688 6.800781 15.96875 6.878906 15.65625 C 7.199219 14.394531 7.648438 13.222656 8.746094 12.445312 C 9.78125 11.710938 10.929688 11.542969 12.128906 11.625 C 12.632812 11.660156 13.078125 11.710938 13.390625 11.128906 C 13.519531 10.890625 13.890625 10.777344 14.171875 10.664062 C 14.972656 10.34375 15.78125 10.050781 16.648438 9.726562 C 16.492188 9.410156 16.390625 9.15625 16.25 8.925781 C 15.605469 7.886719 14.953125 6.851562 14.304688 5.816406 C 13.859375 5.109375 13.757812 5.089844 12.933594 5.613281 Z M 49.191406 22.910156 C 49.191406 22.628906 49.191406 22.34375 49.191406 22.0625 C 49.199219 20.957031 49.175781 20.894531 48.1875 20.621094 C 46.515625 20.15625 44.832031 19.730469 43.164062 19.261719 C 42.648438 19.117188 42.308594 19.164062 42.003906 19.710938 C 41.769531 20.128906 41.320312 20.410156 40.988281 20.773438 C 40.941406 20.820312 41.003906 20.996094 41.042969 21.101562 C 41.300781 21.769531 41.496094 22.480469 41.839844 23.09375 C 43.789062 26.554688 45.773438 29.992188 47.746094 33.433594 C 48.160156 34.152344 48.589844 34.863281 49.011719 35.574219 C 49.070312 35.550781 49.132812 35.527344 49.191406 35.503906 C 49.191406 31.351562 49.191406 27.203125 49.191406 22.910156 Z M 5.472656 27.941406 C 6.089844 26.859375 6.726562 25.789062 7.324219 24.695312 C 7.929688 23.582031 8.519531 22.460938 9.050781 21.308594 C 9.144531 21.113281 8.996094 20.679688 8.824219 20.484375 C 8.4375 20.046875 7.980469 19.671875 7.523438 19.3125 C 7.351562 19.175781 7.070312 19.027344 6.894531 19.082031 C 4.957031 19.660156 3.03125 20.28125 1.085938 20.894531 C 1.085938 25.679688 1.085938 30.414062 1.085938 35.148438 C 1.144531 35.160156 1.203125 35.171875 1.261719 35.183594 C 2.644531 32.796875 4.023438 30.40625 5.472656 27.941406 Z M 22.460938 44.636719 C 24.738281 44.976562 26.996094 44.96875 29.378906 44.246094 C 27.867188 42.847656 26.449219 41.535156 25.003906 40.203125 C 23.578125 41.535156 22.179688 42.847656 20.695312 44.238281 C 21.320312 44.386719 21.832031 44.503906 22.460938 44.636719 Z M 8.761719 16.527344 C 8.867188 17.375 9.089844 18.144531 9.984375 18.652344 C 10.652344 17.011719 11.300781 15.417969 11.960938 13.796875 C 10.320312 13.425781 9.074219 14.511719 8.761719 16.527344 Z M 40.429688 14.707031 C 39.882812 13.855469 39.078125 13.707031 38 13.761719 C 38.707031 15.460938 39.363281 17.054688 40.046875 18.707031 C 41.304688 17.527344 41.453125 15.816406 40.429688 14.707031 Z M 17.226562 20.726562 C 17.21875 21.554688 18.007812 22.285156 18.886719 22.261719 C 19.460938 22.246094 19.871094 21.597656 19.507812 21.160156 C 19.152344 20.734375 18.644531 20.425781 18.160156 20.152344 C 17.722656 19.90625 17.382812 20.105469 17.226562 20.726562 Z M 31.773438 20.304688 C 31.542969 20.488281 31.21875 20.621094 31.105469 20.867188 C 30.960938 21.1875 30.851562 21.65625 30.980469 21.9375 C 31.070312 22.136719 31.59375 22.246094 31.886719 22.1875 C 32.238281 22.117188 32.578125 21.871094 32.863281 21.621094 C 33.246094 21.289062 33.472656 20.832031 33.101562 20.347656 C 32.75 19.886719 32.304688 19.867188 31.773438 20.304688 Z M 31.773438 20.304688 "/>
</g>
<path style=" stroke:none;fill-rule:nonzero;fill:rgb(56.862745%,58.823529%,60.784314%);fill-opacity:1;" d="M 32.578125 41.484375 C 32.28125 42.121094 32.015625 42.710938 31.691406 43.421875 C 31.117188 42.957031 30.570312 42.539062 30.054688 42.082031 C 29.21875 41.339844 28.460938 40.476562 27.5625 39.828125 C 25.742188 38.519531 25.667969 35.222656 27.527344 34.238281 C 27.925781 34.027344 28.421875 33.917969 28.871094 33.929688 C 29.539062 33.949219 29.898438 33.730469 29.917969 33.046875 C 29.972656 31.207031 30.074219 29.367188 30.03125 27.527344 C 30.003906 26.253906 30.492188 25.402344 31.445312 24.714844 C 32.796875 23.746094 34.121094 22.742188 35.449219 21.742188 C 35.894531 21.410156 36.03125 20.265625 35.679688 19.746094 C 35.1875 19.027344 34.699219 18.304688 34.152344 17.636719 C 33.792969 17.203125 33.265625 17.175781 32.804688 17.449219 C 31.699219 18.105469 30.574219 18.742188 29.539062 19.507812 C 28.574219 20.21875 28.003906 21.210938 28.019531 22.542969 C 28.050781 25.277344 28.003906 28.015625 28.023438 30.75 C 28.027344 31.367188 27.902344 31.65625 27.242188 31.617188 C 25.71875 31.535156 24.195312 31.507812 22.667969 31.480469 C 22.222656 31.476562 22.238281 31.191406 22.234375 30.871094 C 22.21875 29.007812 22.199219 27.144531 22.171875 25.28125 C 22.15625 24.273438 22.089844 23.261719 22.113281 22.25 C 22.140625 20.996094 21.507812 20.136719 20.617188 19.484375 C 19.683594 18.808594 18.6875 18.222656 17.703125 17.628906 C 16.820312 17.09375 16.335938 17.164062 15.757812 18.007812 C 15.441406 18.464844 15.089844 18.886719 14.761719 19.335938 C 13.71875 20.761719 14.429688 21.5625 15.449219 22.34375 C 16.207031 22.921875 16.949219 23.519531 17.703125 24.101562 C 18.265625 24.535156 18.890625 24.898438 19.382812 25.402344 C 19.710938 25.742188 20.019531 26.265625 20.050781 26.730469 C 20.207031 28.863281 20.257812 31.003906 20.355469 33.144531 C 20.382812 33.8125 20.808594 34.203125 21.535156 34.074219 C 23.195312 33.777344 24.605469 35.960938 24.050781 37.433594 C 23.839844 37.988281 23.589844 38.589844 23.195312 38.988281 C 21.785156 40.398438 20.300781 41.726562 18.84375 43.082031 C 18.746094 43.175781 18.625 43.238281 18.4375 43.367188 C 18.207031 42.867188 17.980469 42.394531 17.769531 41.917969 C 17.289062 40.839844 16.820312 39.753906 16.339844 38.679688 C 16.152344 38.265625 16.191406 37.9375 16.417969 37.511719 C 17.589844 35.332031 17.625 33.09375 16.335938 30.980469 C 15.582031 29.746094 14.40625 28.972656 13.011719 28.621094 C 12.808594 28.570312 12.546875 28.355469 12.484375 28.15625 C 11.949219 26.480469 11.4375 24.796875 10.960938 23.101562 C 10.878906 22.816406 10.9375 22.433594 11.050781 22.152344 C 12.285156 19.128906 13.535156 16.113281 14.816406 13.117188 C 14.945312 12.8125 15.269531 12.515625 15.570312 12.390625 C 16.9375 11.832031 18.328125 11.335938 19.707031 10.8125 C 20.152344 10.644531 20.441406 10.703125 20.660156 11.226562 C 21.054688 12.175781 21.5625 13.085938 22.484375 13.566406 C 23.046875 13.855469 23.667969 14.070312 24.285156 14.183594 C 26.710938 14.628906 28.710938 13.351562 29.753906 11.332031 C 30.019531 10.8125 30.261719 10.753906 30.738281 10.945312 C 32.089844 11.476562 33.457031 11.960938 34.804688 12.492188 C 35.027344 12.582031 35.296875 12.761719 35.382812 12.972656 C 36.636719 16.039062 37.871094 19.117188 39.078125 22.207031 C 39.195312 22.5 39.203125 22.902344 39.121094 23.207031 C 38.679688 24.820312 38.179688 26.417969 37.734375 28.03125 C 37.601562 28.511719 37.300781 28.65625 36.898438 28.777344 C 35.023438 29.339844 33.609375 30.460938 33.082031 32.519531 C 32.640625 34.242188 32.789062 35.921875 33.703125 37.457031 C 33.976562 37.921875 33.972656 38.289062 33.757812 38.753906 C 33.351562 39.636719 32.984375 40.539062 32.578125 41.484375 Z M 32.578125 41.484375 "/>
<g clip-path="url(#clip2)" clip-rule="nonzero">
<path style=" stroke:none;fill-rule:nonzero;fill:rgb(56.862745%,58.823529%,60.784314%);fill-opacity:1;" d="M 20.328125 53.871094 C 16.332031 51.433594 12.378906 49.023438 8.328125 46.550781 C 9.683594 41.3125 11.042969 36.0625 12.429688 30.703125 C 12.855469 30.867188 13.265625 30.953125 13.605469 31.167969 C 15.574219 32.40625 15.828125 35.136719 14.347656 36.675781 C 13.847656 37.195312 13.707031 37.9375 14.011719 38.613281 C 14.914062 40.613281 15.8125 42.617188 16.753906 44.601562 C 16.914062 44.9375 17.234375 45.273438 17.554688 45.429688 C 18.824219 46.050781 20.15625 46.472656 21.558594 46.640625 C 22.296875 46.726562 23.023438 46.898438 23.9375 47.0625 C 23.9375 49.933594 23.9375 52.90625 23.9375 56.039062 C 22.703125 55.296875 21.539062 54.597656 20.328125 53.871094 Z M 20.328125 53.871094 "/>
</g>
<g clip-path="url(#clip3)" clip-rule="nonzero">
<path style=" stroke:none;fill-rule:nonzero;fill:rgb(56.862745%,58.823529%,60.784314%);fill-opacity:1;" d="M 38.046875 33.269531 C 39.21875 37.574219 40.355469 41.832031 41.539062 46.074219 C 41.699219 46.652344 41.566406 46.890625 41.097656 47.171875 C 36.246094 50.082031 31.410156 53.019531 26.566406 55.945312 C 26.472656 56.003906 26.371094 56.042969 26.136719 56.15625 C 26.136719 53.039062 26.136719 50.011719 26.136719 46.992188 C 28.441406 46.847656 30.695312 46.253906 32.855469 45.273438 C 33.039062 45.191406 33.207031 44.984375 33.296875 44.789062 C 34.21875 42.8125 35.132812 40.835938 36.023438 38.847656 C 36.347656 38.117188 36.347656 37.546875 35.730469 36.789062 C 34.253906 34.976562 34.570312 32.214844 36.757812 30.988281 C 37.25 30.714844 37.457031 31.058594 37.578125 31.460938 C 37.75 32.035156 37.878906 32.628906 38.046875 33.269531 Z M 38.046875 33.269531 "/>
</g>
<g clip-path="url(#clip4)" clip-rule="nonzero">
<path style=" stroke:none;fill-rule:nonzero;fill:rgb(56.862745%,58.823529%,60.784314%);fill-opacity:1;" d="M 16.074219 4.6875 C 15.714844 4.25 15.804688 3.980469 16.230469 3.71875 C 17.707031 2.804688 19.171875 1.871094 20.632812 0.933594 C 20.964844 0.71875 21.230469 0.703125 21.511719 1.039062 C 22.039062 1.667969 22.5625 2.308594 23.140625 2.890625 C 23.789062 3.542969 24.496094 4.140625 25.214844 4.796875 C 26.164062 3.796875 27.160156 2.746094 28.15625 1.695312 C 29.085938 0.71875 29.179688 0.738281 30.3125 1.457031 C 31.5 2.207031 32.730469 2.882812 33.929688 3.609375 C 34.140625 3.738281 34.300781 3.960938 34.484375 4.136719 C 33.585938 5.601562 32.710938 7.011719 31.847656 8.429688 C 31.585938 8.863281 31.347656 9.027344 30.824219 8.757812 C 30.363281 8.519531 29.800781 8.476562 29.273438 8.40625 C 28.769531 8.34375 28.464844 8.609375 28.292969 9.140625 C 28.09375 9.757812 27.867188 10.382812 27.53125 10.925781 C 26.378906 12.777344 23.367188 12.332031 22.421875 10.390625 C 22.210938 9.957031 22.035156 9.496094 21.894531 9.035156 C 21.65625 8.265625 21.378906 8.097656 20.617188 8.351562 C 20.132812 8.515625 19.644531 8.667969 19.175781 8.875 C 18.847656 9.019531 18.671875 8.960938 18.476562 8.628906 C 17.703125 7.316406 16.894531 6.027344 16.074219 4.6875 Z M 16.074219 4.6875 "/>
</g>
<path style=" stroke:none;fill-rule:nonzero;fill:rgb(56.862745%,58.823529%,60.784314%);fill-opacity:1;" d="M 46.789062 43.679688 C 45.757812 44.285156 44.773438 44.875 43.703125 45.511719 C 43.589844 45.265625 43.464844 45.0625 43.398438 44.835938 C 42.046875 40.011719 40.695312 35.183594 39.367188 30.351562 C 39.277344 30.027344 39.265625 29.632812 39.355469 29.316406 C 39.699219 28.117188 40.097656 26.929688 40.484375 25.742188 C 40.507812 25.664062 40.597656 25.605469 40.722656 25.464844 C 41.371094 26.566406 42.003906 27.621094 42.621094 28.6875 C 44.390625 31.761719 46.152344 34.84375 47.921875 37.917969 C 48.234375 38.457031 48.566406 38.980469 48.902344 39.503906 C 49.429688 40.316406 49.234375 41.214844 49.152344 42.085938 C 49.136719 42.25 48.863281 42.414062 48.679688 42.53125 C 48.070312 42.917969 47.449219 43.285156 46.789062 43.679688 Z M 46.789062 43.679688 "/>
<path style=" stroke:none;fill-rule:nonzero;fill:rgb(56.862745%,58.823529%,60.784314%);fill-opacity:1;" d="M 6.125 45.289062 C 4.546875 44.269531 3.003906 43.285156 1.480469 42.273438 C 1.289062 42.144531 1.125 41.871094 1.074219 41.636719 C 0.808594 40.335938 1.214844 39.285156 1.949219 38.191406 C 3.054688 36.546875 3.917969 34.730469 4.898438 32.996094 C 6.335938 30.460938 7.789062 27.929688 9.25 25.375 C 9.347656 25.433594 9.460938 25.457031 9.488281 25.523438 C 10.230469 27.460938 11 29.292969 10.28125 31.550781 C 8.90625 35.878906 7.796875 40.300781 6.5625 44.675781 C 6.5 44.910156 6.300781 45.101562 6.125 45.289062 Z M 6.125 45.289062 "/>
<path style=" stroke:none;fill-rule:nonzero;fill:rgb(56.862745%,58.823529%,60.784314%);fill-opacity:1;" d="M 34.167969 8.601562 C 34.792969 7.582031 35.414062 6.621094 35.980469 5.625 C 36.210938 5.222656 36.484375 5.171875 36.800781 5.363281 C 37.84375 5.988281 38.859375 6.664062 39.902344 7.292969 C 40.976562 7.941406 42.078125 8.542969 43.15625 9.1875 C 44.488281 9.984375 45.808594 10.800781 47.136719 11.609375 C 47.738281 11.976562 48.34375 12.335938 48.929688 12.726562 C 49.054688 12.808594 49.179688 13.003906 49.1875 13.152344 C 49.242188 14.824219 49.273438 16.496094 49.308594 18.171875 C 49.3125 18.285156 49.277344 18.398438 49.238281 18.644531 C 48.640625 18.488281 48.074219 18.335938 47.507812 18.195312 C 46.300781 17.898438 45.09375 17.585938 43.878906 17.324219 C 43.335938 17.203125 43.160156 16.9375 43.101562 16.34375 C 43.023438 15.550781 42.917969 14.660156 42.523438 14.015625 C 41.722656 12.707031 40.628906 11.695312 39.003906 11.660156 C 38.621094 11.648438 38.234375 11.609375 37.859375 11.65625 C 37.339844 11.726562 36.964844 11.636719 36.707031 11.085938 C 36.609375 10.878906 36.285156 10.769531 36.042969 10.667969 C 35.425781 10.414062 34.808594 10.152344 34.167969 9.964844 C 33.582031 9.789062 33.488281 9.53125 33.886719 9.050781 C 33.984375 8.929688 34.058594 8.78125 34.167969 8.601562 Z M 34.167969 8.601562 "/>
<path style=" stroke:none;fill-rule:nonzero;fill:rgb(56.862745%,58.823529%,60.392157%);fill-opacity:1;" d="M 12.980469 5.589844 C 13.757812 5.089844 13.859375 5.109375 14.304688 5.816406 C 14.953125 6.851562 15.605469 7.886719 16.25 8.925781 C 16.390625 9.15625 16.492188 9.410156 16.648438 9.726562 C 15.78125 10.050781 14.972656 10.34375 14.171875 10.664062 C 13.890625 10.777344 13.519531 10.890625 13.390625 11.128906 C 13.078125 11.710938 12.632812 11.660156 12.128906 11.625 C 10.925781 11.542969 9.78125 11.710938 8.746094 12.445312 C 7.648438 13.222656 7.199219 14.394531 6.878906 15.65625 C 6.800781 15.96875 6.808594 16.304688 6.726562 16.617188 C 6.6875 16.769531 6.5625 16.976562 6.441406 17.011719 C 4.730469 17.5 3.015625 17.964844 1.300781 18.429688 C 1.222656 18.449219 1.128906 18.40625 1.003906 18.386719 C 1.003906 17.316406 0.996094 16.261719 1.007812 15.207031 C 1.011719 14.757812 1.132812 14.296875 1.0625 13.867188 C 0.949219 13.152344 1.320312 12.804688 1.816406 12.5 C 5.109375 10.464844 8.398438 8.433594 11.691406 6.398438 C 12.105469 6.140625 12.519531 5.875 12.980469 5.589844 Z M 12.980469 5.589844 "/>
<path style=" stroke:none;fill-rule:nonzero;fill:rgb(56.862745%,58.823529%,60.392157%);fill-opacity:1;" d="M 49.191406 22.980469 C 49.191406 27.203125 49.191406 31.351562 49.191406 35.503906 C 49.132812 35.527344 49.070312 35.550781 49.011719 35.574219 C 48.589844 34.863281 48.160156 34.152344 47.746094 33.433594 C 45.773438 29.992188 43.789062 26.554688 41.839844 23.09375 C 41.496094 22.480469 41.300781 21.769531 41.042969 21.101562 C 41.003906 20.996094 40.941406 20.820312 40.988281 20.773438 C 41.320312 20.410156 41.769531 20.128906 42.003906 19.710938 C 42.308594 19.164062 42.648438 19.117188 43.164062 19.261719 C 44.832031 19.730469 46.515625 20.15625 48.1875 20.621094 C 49.175781 20.894531 49.199219 20.957031 49.191406 22.0625 C 49.191406 22.34375 49.191406 22.628906 49.191406 22.980469 Z M 49.191406 22.980469 "/>
<path style=" stroke:none;fill-rule:nonzero;fill:rgb(56.862745%,58.823529%,60.784314%);fill-opacity:1;" d="M 5.4375 27.980469 C 4.023438 30.40625 2.644531 32.796875 1.261719 35.183594 C 1.203125 35.171875 1.144531 35.160156 1.085938 35.148438 C 1.085938 30.414062 1.085938 25.679688 1.085938 20.894531 C 3.03125 20.28125 4.957031 19.660156 6.894531 19.082031 C 7.070312 19.027344 7.351562 19.175781 7.523438 19.3125 C 7.980469 19.671875 8.4375 20.046875 8.824219 20.484375 C 8.996094 20.679688 9.144531 21.113281 9.050781 21.308594 C 8.519531 22.460938 7.929688 23.582031 7.324219 24.695312 C 6.726562 25.789062 6.089844 26.859375 5.4375 27.980469 Z M 5.4375 27.980469 "/>
<path style=" stroke:none;fill-rule:nonzero;fill:rgb(56.862745%,58.823529%,60.392157%);fill-opacity:1;" d="M 22.402344 44.632812 C 21.832031 44.503906 21.320312 44.386719 20.695312 44.238281 C 22.179688 42.847656 23.578125 41.535156 25.003906 40.203125 C 26.449219 41.535156 27.867188 42.847656 29.378906 44.246094 C 26.996094 44.96875 24.738281 44.976562 22.402344 44.632812 Z M 22.402344 44.632812 "/>
<path style=" stroke:none;fill-rule:nonzero;fill:rgb(56.470588%,58.431373%,60.392157%);fill-opacity:1;" d="M 8.757812 16.46875 C 9.074219 14.511719 10.320312 13.425781 11.960938 13.796875 C 11.300781 15.417969 10.652344 17.011719 9.984375 18.652344 C 9.089844 18.144531 8.867188 17.375 8.757812 16.46875 Z M 8.757812 16.46875 "/>
<path style=" stroke:none;fill-rule:nonzero;fill:rgb(56.862745%,58.823529%,60.784314%);fill-opacity:1;" d="M 40.472656 14.878906 C 41.453125 15.957031 41.304688 17.667969 40.046875 18.847656 C 39.363281 17.199219 38.707031 15.601562 38 13.90625 C 39.078125 13.847656 39.882812 13.996094 40.472656 14.878906 Z M 40.472656 14.878906 "/>
<path style=" stroke:none;fill-rule:nonzero;fill:rgb(56.470588%,58.431373%,60.392157%);fill-opacity:1;" d="M 17.238281 20.679688 C 17.382812 20.105469 17.722656 19.90625 18.160156 20.152344 C 18.644531 20.425781 19.152344 20.734375 19.507812 21.160156 C 19.871094 21.597656 19.460938 22.25 18.886719 22.261719 C 18.007812 22.285156 17.21875 21.554688 17.238281 20.679688 Z M 17.238281 20.679688 "/>
<path style=" stroke:none;fill-rule:nonzero;fill:rgb(56.862745%,58.823529%,60.784314%);fill-opacity:1;" d="M 31.824219 20.285156 C 32.304688 19.867188 32.75 19.886719 33.101562 20.347656 C 33.472656 20.832031 33.246094 21.289062 32.863281 21.621094 C 32.578125 21.871094 32.238281 22.117188 31.890625 22.1875 C 31.59375 22.246094 31.070312 22.136719 30.980469 21.9375 C 30.851562 21.65625 30.960938 21.1875 31.105469 20.867188 C 31.21875 20.621094 31.542969 20.488281 31.824219 20.285156 Z M 31.824219 20.285156 "/>
</g>
</svg>
