<svg width="182" height="31" viewBox="0 0 182 31" fill="none" xmlns="http://www.w3.org/2000/svg">
<path d="M25.528 7.61274V8.25274C24.8027 8.27407 24.248 8.3594 23.864 8.50874C23.5013 8.63674 23.256 8.89274 23.128 9.27674C23 9.6394 22.936 10.2154 22.936 11.0047V26.8767C22.936 27.6447 23 28.2207 23.128 28.6047C23.256 28.9887 23.5013 29.2447 23.864 29.3727C24.248 29.5007 24.8027 29.5861 25.528 29.6287V30.2687C25.0373 30.2261 24.4187 30.2047 23.672 30.2047C22.9467 30.1834 22.2107 30.1727 21.464 30.1727C20.632 30.1727 19.8533 30.1834 19.128 30.2047C18.4027 30.2047 17.816 30.2261 17.368 30.2687V29.6287C18.0933 29.5861 18.6373 29.5007 19 29.3727C19.384 29.2447 19.64 28.9887 19.768 28.6047C19.896 28.2207 19.96 27.6447 19.96 26.8767V9.27674L20.088 9.37274L12.248 30.4287H11.736L3.672 9.66074V26.5567C3.672 27.3247 3.736 27.9327 3.864 28.3807C4.01333 28.8074 4.29067 29.1167 4.696 29.3087C5.12267 29.4794 5.752 29.5861 6.584 29.6287V30.2687C6.2 30.2261 5.69867 30.2047 5.08 30.2047C4.46133 30.1834 3.87467 30.1727 3.32 30.1727C2.78667 30.1727 2.24267 30.1834 1.688 30.2047C1.15467 30.2047 0.706667 30.2261 0.344 30.2687V29.6287C1.06933 29.5861 1.61333 29.4794 1.976 29.3087C2.36 29.1167 2.616 28.8074 2.744 28.3807C2.872 27.9327 2.936 27.3247 2.936 26.5567V11.0047C2.936 10.2154 2.872 9.6394 2.744 9.27674C2.616 8.89274 2.36 8.63674 1.976 8.50874C1.61333 8.3594 1.06933 8.27407 0.344 8.25274V7.61274C0.706667 7.63407 1.15467 7.6554 1.688 7.67674C2.24267 7.69807 2.78667 7.70874 3.32 7.70874C3.78933 7.70874 4.26933 7.69807 4.76 7.67674C5.272 7.6554 5.69867 7.63407 6.04 7.61274L13.304 26.7487L12.76 27.0047L19.96 7.70874C20.216 7.70874 20.4613 7.70874 20.696 7.70874C20.952 7.70874 21.208 7.70874 21.464 7.70874C22.2107 7.70874 22.9467 7.69807 23.672 7.67674C24.4187 7.6554 25.0373 7.63407 25.528 7.61274ZM44.187 7.61274C44.1017 8.3594 44.0377 9.08474 43.995 9.78874C43.9737 10.4927 43.963 11.0261 43.963 11.3887C43.963 11.7727 43.9737 12.1461 43.995 12.5087C44.0163 12.8501 44.0377 13.1381 44.059 13.3727H43.323C43.195 12.1141 43.0137 11.1221 42.779 10.3967C42.5443 9.65007 42.139 9.1274 41.563 8.82874C41.0083 8.50874 40.1657 8.34874 39.035 8.34874H36.379C35.6537 8.34874 35.099 8.41274 34.715 8.54074C34.3523 8.6474 34.107 8.89274 33.979 9.27674C33.851 9.6394 33.787 10.2154 33.787 11.0047V26.8767C33.787 27.6447 33.851 28.2207 33.979 28.6047C34.107 28.9887 34.3523 29.2447 34.715 29.3727C35.099 29.4794 35.6537 29.5327 36.379 29.5327H38.715C40.059 29.5327 41.0723 29.3514 41.755 28.9887C42.459 28.6261 42.9603 28.0394 43.259 27.2287C43.579 26.3967 43.8137 25.2767 43.963 23.8687H44.699C44.635 24.4447 44.603 25.2127 44.603 26.1727C44.603 26.5781 44.6137 27.1647 44.635 27.9327C44.6777 28.6794 44.7417 29.4581 44.827 30.2687C43.739 30.2261 42.5123 30.2047 41.147 30.2047C39.7817 30.1834 38.5657 30.1727 37.499 30.1727C37.0297 30.1727 36.4217 30.1727 35.675 30.1727C34.9497 30.1727 34.1603 30.1834 33.307 30.2047C32.4537 30.2047 31.5897 30.2154 30.715 30.2367C29.8403 30.2367 29.0083 30.2474 28.219 30.2687V29.6287C28.9443 29.5861 29.4883 29.5007 29.851 29.3727C30.235 29.2447 30.491 28.9887 30.619 28.6047C30.747 28.2207 30.811 27.6447 30.811 26.8767V11.0047C30.811 10.2154 30.747 9.6394 30.619 9.27674C30.491 8.89274 30.235 8.63674 29.851 8.50874C29.4883 8.3594 28.9443 8.27407 28.219 8.25274V7.61274C29.0083 7.63407 29.8403 7.6554 30.715 7.67674C31.5897 7.67674 32.4537 7.6874 33.307 7.70874C34.1603 7.70874 34.9497 7.70874 35.675 7.70874C36.4217 7.70874 37.0297 7.70874 37.499 7.70874C38.4803 7.70874 39.5897 7.70874 40.827 7.70874C42.0857 7.6874 43.2057 7.6554 44.187 7.61274ZM38.683 18.5567C38.683 18.5567 38.683 18.6634 38.683 18.8767C38.683 19.0901 38.683 19.1967 38.683 19.1967H32.827C32.827 19.1967 32.827 19.0901 32.827 18.8767C32.827 18.6634 32.827 18.5567 32.827 18.5567H38.683ZM39.611 14.3327C39.5257 15.5487 39.483 16.4767 39.483 17.1167C39.5043 17.7567 39.515 18.3434 39.515 18.8767C39.515 19.4101 39.5257 19.9967 39.547 20.6367C39.5683 21.2767 39.6217 22.2047 39.707 23.4207H38.971C38.8857 22.7381 38.779 22.0767 38.651 21.4367C38.5443 20.7754 38.2883 20.2421 37.883 19.8367C37.499 19.4101 36.8377 19.1967 35.899 19.1967V18.5567C36.603 18.5567 37.1363 18.4181 37.499 18.1407C37.883 17.8421 38.1603 17.4687 38.331 17.0207C38.5017 16.5727 38.619 16.1141 38.683 15.6447C38.747 15.1541 38.811 14.7167 38.875 14.3327H39.611ZM63.975 7.61274V8.25274L51.207 29.5327H57.479C58.4817 29.5327 59.2923 29.4261 59.911 29.2127C60.551 28.9994 61.0523 28.6687 61.415 28.2207C61.799 27.7514 62.087 27.1327 62.279 26.3647C62.471 25.5967 62.6203 24.6581 62.727 23.5487H63.463C63.399 24.2101 63.367 25.0847 63.367 26.1727C63.367 26.5781 63.3777 27.1647 63.399 27.9327C63.4417 28.6794 63.5057 29.4581 63.591 30.2687C62.8017 30.2261 61.9377 30.2047 60.999 30.2047C60.0603 30.1834 59.1217 30.1727 58.183 30.1727C57.2657 30.1727 56.4123 30.1727 55.623 30.1727C54.3643 30.1727 53.031 30.1834 51.623 30.2047C50.2363 30.2047 48.935 30.2261 47.719 30.2687V29.6287L60.583 8.34874H54.343C53.3403 8.34874 52.519 8.4554 51.879 8.66874C51.2603 8.88207 50.759 9.2234 50.375 9.69274C50.0123 10.1407 49.735 10.7487 49.543 11.5167C49.351 12.2847 49.2017 13.2234 49.095 14.3327H48.359C48.4017 13.9914 48.423 13.5967 48.423 13.1487C48.4443 12.7007 48.455 12.2207 48.455 11.7087C48.455 11.3034 48.4337 10.7274 48.391 9.98074C48.3697 9.21274 48.3163 8.4234 48.231 7.61274C49.0203 7.63407 49.8843 7.6554 50.823 7.67674C51.7617 7.69807 52.7003 7.70874 53.639 7.70874C54.5777 7.70874 55.431 7.70874 56.199 7.70874C57.415 7.70874 58.7163 7.70874 60.103 7.70874C61.511 7.6874 62.8017 7.6554 63.975 7.61274ZM77.247 7.16474C78.655 7.16474 79.807 7.37807 80.703 7.80474C81.6203 8.21007 82.431 8.69007 83.135 9.24474C83.5617 9.56474 83.8817 9.6074 84.095 9.37274C84.3297 9.11674 84.4897 8.53007 84.575 7.61274H85.311C85.2683 8.40207 85.2363 9.36207 85.215 10.4927C85.1937 11.6234 85.183 13.1167 85.183 14.9727H84.447C84.2977 14.0554 84.159 13.3301 84.031 12.7967C83.903 12.2421 83.743 11.7727 83.551 11.3887C83.3803 11.0047 83.1457 10.6207 82.847 10.2367C82.1857 9.36207 81.3537 8.73274 80.351 8.34874C79.3483 7.9434 78.2923 7.74074 77.183 7.74074C76.1377 7.74074 75.1883 8.0074 74.335 8.54074C73.503 9.05274 72.7777 9.7994 72.159 10.7807C71.5617 11.7621 71.0923 12.9461 70.751 14.3327C70.431 15.7194 70.271 17.2767 70.271 19.0047C70.271 20.7967 70.4523 22.3861 70.815 23.7727C71.1777 25.1381 71.679 26.2901 72.319 27.2287C72.9803 28.1674 73.7483 28.8821 74.623 29.3727C75.519 29.8421 76.479 30.0767 77.503 30.0767C78.463 30.0767 79.4657 29.8847 80.511 29.5007C81.5563 29.1167 82.3777 28.4981 82.975 27.6447C83.4443 27.0261 83.7643 26.3541 83.935 25.6287C84.127 24.9034 84.2977 23.8901 84.447 22.5887H85.183C85.183 24.5301 85.1937 26.0981 85.215 27.2927C85.2363 28.4661 85.2683 29.4581 85.311 30.2687H84.575C84.4897 29.3514 84.3403 28.7754 84.127 28.5407C83.935 28.3061 83.6043 28.3381 83.135 28.6367C82.3457 29.1914 81.503 29.6821 80.607 30.1087C79.7323 30.5141 78.6017 30.7167 77.215 30.7167C75.1883 30.7167 73.407 30.2581 71.871 29.3407C70.3563 28.4234 69.1723 27.1007 68.319 25.3727C67.487 23.6447 67.071 21.5647 67.071 19.1327C67.071 16.7434 67.5083 14.6527 68.383 12.8607C69.2577 11.0687 70.4523 9.6714 71.967 8.66874C73.503 7.66607 75.263 7.16474 77.247 7.16474ZM97.7423 7.45274L105.55 27.5807C105.87 28.3914 106.233 28.9354 106.638 29.2127C107.044 29.4687 107.417 29.6074 107.758 29.6287V30.2687C107.332 30.2261 106.809 30.2047 106.19 30.2047C105.572 30.1834 104.953 30.1727 104.334 30.1727C103.502 30.1727 102.724 30.1834 101.998 30.2047C101.273 30.2047 100.686 30.2261 100.238 30.2687V29.6287C101.326 29.5861 102.02 29.4047 102.318 29.0847C102.617 28.7434 102.553 28.0287 102.126 26.9407L96.1743 11.0367L96.6863 10.6207L91.1183 25.0847C90.7769 25.9381 90.5743 26.6634 90.5103 27.2607C90.4463 27.8367 90.4996 28.2954 90.6703 28.6367C90.8623 28.9781 91.1716 29.2234 91.5983 29.3727C92.0463 29.5221 92.6009 29.6074 93.2623 29.6287V30.2687C92.6649 30.2261 92.0356 30.2047 91.3743 30.2047C90.7343 30.1834 90.1369 30.1727 89.5823 30.1727C89.0489 30.1727 88.5903 30.1834 88.2063 30.2047C87.8436 30.2047 87.5023 30.2261 87.1822 30.2687V29.6287C87.6089 29.5221 88.0463 29.2767 88.4943 28.8927C88.9423 28.4874 89.3476 27.8047 89.7103 26.8447L97.2303 7.45274C97.3156 7.45274 97.4009 7.45274 97.4863 7.45274C97.5716 7.45274 97.6569 7.45274 97.7423 7.45274ZM101.646 21.0527V21.6927H92.1102L92.4303 21.0527H101.646ZM116.442 7.61274V8.25274C115.716 8.27407 115.162 8.3594 114.778 8.50874C114.415 8.63674 114.17 8.89274 114.042 9.27674C113.914 9.6394 113.85 10.2154 113.85 11.0047V26.8767C113.85 27.6447 113.914 28.2207 114.042 28.6047C114.17 28.9887 114.415 29.2447 114.778 29.3727C115.162 29.4794 115.716 29.5327 116.442 29.5327H118.778C119.78 29.5327 120.591 29.4261 121.21 29.2127C121.85 28.9994 122.351 28.6687 122.714 28.2207C123.098 27.7514 123.386 27.1327 123.578 26.3647C123.77 25.5967 123.919 24.6581 124.026 23.5487H124.762C124.698 24.2101 124.666 25.0847 124.666 26.1727C124.666 26.5781 124.676 27.1647 124.698 27.9327C124.74 28.6794 124.804 29.4581 124.89 30.2687C123.802 30.2261 122.575 30.2047 121.21 30.2047C119.844 30.1834 118.628 30.1727 117.562 30.1727C117.092 30.1727 116.484 30.1727 115.738 30.1727C115.012 30.1727 114.223 30.1834 113.37 30.2047C112.516 30.2047 111.652 30.2154 110.778 30.2367C109.903 30.2367 109.071 30.2474 108.282 30.2687V29.6287C109.007 29.5861 109.551 29.5007 109.914 29.3727C110.298 29.2447 110.554 28.9887 110.682 28.6047C110.81 28.2207 110.874 27.6447 110.874 26.8767V11.0047C110.874 10.2154 110.81 9.6394 110.682 9.27674C110.554 8.89274 110.298 8.63674 109.914 8.50874C109.551 8.3594 109.007 8.27407 108.282 8.25274V7.61274C108.73 7.63407 109.316 7.6554 110.042 7.67674C110.767 7.69807 111.546 7.70874 112.378 7.70874C113.124 7.70874 113.86 7.69807 114.586 7.67674C115.332 7.6554 115.951 7.63407 116.442 7.61274ZM135.254 7.61274V8.25274C134.529 8.27407 133.974 8.3594 133.59 8.50874C133.227 8.63674 132.982 8.89274 132.854 9.27674C132.726 9.6394 132.662 10.2154 132.662 11.0047V26.8767C132.662 27.6447 132.726 28.2207 132.854 28.6047C132.982 28.9887 133.227 29.2447 133.59 29.3727C133.974 29.5007 134.529 29.5861 135.254 29.6287V30.2687C134.763 30.2261 134.145 30.2047 133.398 30.2047C132.673 30.1834 131.937 30.1727 131.19 30.1727C130.358 30.1727 129.579 30.1834 128.854 30.2047C128.129 30.2047 127.542 30.2261 127.094 30.2687V29.6287C127.819 29.5861 128.363 29.5007 128.726 29.3727C129.11 29.2447 129.366 28.9887 129.494 28.6047C129.622 28.2207 129.686 27.6447 129.686 26.8767V11.0047C129.686 10.2154 129.622 9.6394 129.494 9.27674C129.366 8.89274 129.11 8.63674 128.726 8.50874C128.363 8.3594 127.819 8.27407 127.094 8.25274V7.61274C127.542 7.63407 128.129 7.6554 128.854 7.67674C129.579 7.69807 130.358 7.70874 131.19 7.70874C131.937 7.70874 132.673 7.69807 133.398 7.67674C134.145 7.6554 134.763 7.63407 135.254 7.61274ZM148.216 7.16474C150.242 7.16474 152.013 7.6234 153.528 8.54074C155.064 9.45807 156.248 10.7807 157.08 12.5087C157.933 14.2154 158.36 16.2954 158.36 18.7487C158.36 21.1381 157.922 23.2287 157.048 25.0207C156.194 26.8127 155 28.2101 153.464 29.2127C151.928 30.2154 150.168 30.7167 148.184 30.7167C146.157 30.7167 144.376 30.2581 142.84 29.3407C141.325 28.4234 140.141 27.1007 139.288 25.3727C138.456 23.6447 138.04 21.5647 138.04 19.1327C138.04 16.7434 138.477 14.6527 139.352 12.8607C140.226 11.0687 141.421 9.6714 142.936 8.66874C144.472 7.66607 146.232 7.16474 148.216 7.16474ZM148.088 7.74074C146.701 7.74074 145.496 8.22074 144.472 9.18074C143.448 10.1407 142.648 11.4634 142.072 13.1487C141.517 14.8341 141.24 16.7861 141.24 19.0047C141.24 21.2661 141.549 23.2394 142.168 24.9247C142.808 26.5887 143.661 27.8794 144.728 28.7967C145.816 29.6927 147.01 30.1407 148.312 30.1407C149.698 30.1407 150.904 29.6607 151.928 28.7007C152.952 27.7407 153.741 26.4181 154.296 24.7327C154.872 23.0261 155.16 21.0741 155.16 18.8767C155.16 16.5941 154.84 14.6207 154.2 12.9567C153.581 11.2927 152.738 10.0127 151.672 9.11674C150.605 8.1994 149.41 7.74074 148.088 7.74074ZM151.576 0.636736C152.002 0.359402 152.386 0.263402 152.728 0.348736C153.09 0.412736 153.357 0.583403 153.528 0.860737C153.698 1.13807 153.741 1.4474 153.656 1.78874C153.57 2.10874 153.304 2.41807 152.856 2.71674C152.408 2.99407 151.885 3.25007 151.288 3.48474C150.712 3.69807 150.029 3.96474 149.24 4.28474C148.472 4.5834 147.533 5.01007 146.424 5.56474L146.2 5.14874C147.181 4.40207 147.981 3.7514 148.6 3.19674C149.24 2.62074 149.784 2.1194 150.232 1.69274C150.68 1.26607 151.128 0.914069 151.576 0.636736ZM181.253 7.61274V8.25274C180.527 8.27407 179.973 8.38074 179.589 8.57274C179.226 8.76474 178.981 9.07407 178.853 9.50074C178.725 9.9274 178.661 10.5354 178.661 11.3247V30.4287C178.533 30.4287 178.405 30.4287 178.277 30.4287C178.17 30.4287 178.053 30.4287 177.925 30.4287L164.485 9.66074V26.5567C164.485 27.3247 164.549 27.9327 164.677 28.3807C164.826 28.8074 165.103 29.1167 165.509 29.3087C165.935 29.4794 166.565 29.5861 167.397 29.6287V30.2687C167.013 30.2261 166.511 30.2047 165.893 30.2047C165.274 30.1834 164.687 30.1727 164.133 30.1727C163.599 30.1727 163.055 30.1834 162.501 30.2047C161.967 30.2047 161.519 30.2261 161.157 30.2687V29.6287C161.882 29.5861 162.426 29.4794 162.789 29.3087C163.173 29.1167 163.429 28.8074 163.557 28.3807C163.685 27.9327 163.749 27.3247 163.749 26.5567V11.0047C163.749 10.2154 163.685 9.6394 163.557 9.27674C163.429 8.89274 163.173 8.63674 162.789 8.50874C162.426 8.3594 161.882 8.27407 161.157 8.25274V7.61274C161.519 7.63407 161.967 7.6554 162.501 7.67674C163.055 7.69807 163.599 7.70874 164.133 7.70874C164.602 7.70874 165.05 7.69807 165.477 7.67674C165.903 7.6554 166.287 7.63407 166.629 7.61274L177.925 25.0207V11.3247C177.925 10.5354 177.85 9.9274 177.701 9.50074C177.573 9.07407 177.295 8.76474 176.869 8.57274C176.463 8.38074 175.845 8.27407 175.013 8.25274V7.61274C175.397 7.63407 175.898 7.6554 176.517 7.67674C177.157 7.69807 177.743 7.70874 178.277 7.70874C178.831 7.70874 179.375 7.69807 179.909 7.67674C180.463 7.6554 180.911 7.63407 181.253 7.61274Z" fill="white"/>
</svg>
