<svg width="125" height="19" viewBox="0 0 125 19" fill="none" xmlns="http://www.w3.org/2000/svg">
<path d="M15.08 1.28852V1.76852C14.536 1.78452 14.12 1.86452 13.832 2.00852C13.56 2.15252 13.376 2.38452 13.28 2.70452C13.184 3.02452 13.136 3.48052 13.136 4.07252V18.4005C13.04 18.4005 12.944 18.4005 12.848 18.4005C12.768 18.4005 12.68 18.4005 12.584 18.4005L2.504 2.82452V15.4965C2.504 16.0725 2.552 16.5285 2.648 16.8645C2.76 17.1845 2.968 17.4165 3.272 17.5605C3.592 17.6885 4.064 17.7685 4.688 17.8005V18.2805C4.4 18.2485 4.024 18.2325 3.56 18.2325C3.096 18.2165 2.656 18.2085 2.24 18.2085C1.84 18.2085 1.432 18.2165 1.016 18.2325C0.616 18.2325 0.28 18.2485 0.00800008 18.2805V17.8005C0.552 17.7685 0.96 17.6885 1.232 17.5605C1.52 17.4165 1.712 17.1845 1.808 16.8645C1.904 16.5285 1.952 16.0725 1.952 15.4965V3.83252C1.952 3.24052 1.904 2.80852 1.808 2.53652C1.712 2.24852 1.52 2.05652 1.232 1.96052C0.96 1.84852 0.552 1.78452 0.00800008 1.76852V1.28852C0.28 1.30452 0.616 1.32052 1.016 1.33652C1.432 1.35252 1.84 1.36052 2.24 1.36052C2.592 1.36052 2.928 1.35252 3.248 1.33652C3.568 1.32052 3.856 1.30452 4.112 1.28852L12.584 14.3445V4.07252C12.584 3.48052 12.528 3.02452 12.416 2.70452C12.32 2.38452 12.112 2.15252 11.792 2.00852C11.488 1.86452 11.024 1.78452 10.4 1.76852V1.28852C10.688 1.30452 11.064 1.32052 11.528 1.33652C12.008 1.35252 12.448 1.36052 12.848 1.36052C13.264 1.36052 13.672 1.35252 14.072 1.33652C14.488 1.32052 14.824 1.30452 15.08 1.28852ZM24.6853 0.952516C26.2053 0.952516 27.5333 1.29652 28.6693 1.98452C29.8213 2.67252 30.7093 3.66452 31.3333 4.96052C31.9733 6.24052 32.2933 7.80052 32.2933 9.64052C32.2933 11.4325 31.9653 13.0005 31.3093 14.3445C30.6693 15.6885 29.7733 16.7365 28.6213 17.4885C27.4693 18.2405 26.1493 18.6165 24.6613 18.6165C23.1413 18.6165 21.8053 18.2725 20.6533 17.5845C19.5173 16.8965 18.6293 15.9045 17.9893 14.6085C17.3653 13.3125 17.0533 11.7525 17.0533 9.92852C17.0533 8.13652 17.3813 6.56852 18.0373 5.22452C18.6933 3.88052 19.5893 2.83252 20.7253 2.08052C21.8773 1.32852 23.1973 0.952516 24.6853 0.952516ZM24.5893 1.38452C23.5493 1.38452 22.6453 1.74452 21.8773 2.46452C21.1093 3.18452 20.5093 4.17652 20.0773 5.44052C19.6613 6.70452 19.4533 8.16852 19.4533 9.83252C19.4533 11.5285 19.6853 13.0085 20.1493 14.2725C20.6293 15.5205 21.2693 16.4885 22.0693 17.1765C22.8853 17.8485 23.7813 18.1845 24.7573 18.1845C25.7973 18.1845 26.7013 17.8245 27.4693 17.1045C28.2373 16.3845 28.8293 15.3925 29.2453 14.1285C29.6773 12.8485 29.8932 11.3845 29.8932 9.73652C29.8932 8.02452 29.6533 6.54452 29.1733 5.29652C28.7093 4.04852 28.0773 3.08852 27.2773 2.41652C26.4773 1.72852 25.5813 1.38452 24.5893 1.38452ZM39.7143 1.02452C40.5143 1.02452 41.1223 1.12052 41.5383 1.31252C41.9543 1.48852 42.3223 1.68852 42.6423 1.91252C42.8343 2.02452 42.9863 2.11252 43.0983 2.17652C43.2263 2.22452 43.3463 2.24852 43.4583 2.24852C43.6183 2.24852 43.7303 2.16052 43.7943 1.98452C43.8743 1.80852 43.9383 1.54452 43.9863 1.19252H44.5383C44.5223 1.46452 44.4983 1.79252 44.4663 2.17652C44.4503 2.54452 44.4343 3.04052 44.4183 3.66452C44.4183 4.27252 44.4183 5.08052 44.4183 6.08852H43.8663C43.8183 5.32052 43.6503 4.58452 43.3623 3.88052C43.0743 3.17652 42.6503 2.60052 42.0903 2.15252C41.5463 1.70452 40.8263 1.48052 39.9303 1.48052C39.0823 1.48052 38.3783 1.73652 37.8183 2.24852C37.2743 2.76052 37.0023 3.43252 37.0023 4.26452C37.0023 4.98452 37.1863 5.59252 37.5543 6.08852C37.9223 6.56852 38.4103 7.00852 39.0183 7.40852C39.6423 7.79252 40.3143 8.20852 41.0343 8.65652C41.8663 9.16852 42.6023 9.68052 43.2423 10.1925C43.8983 10.6885 44.4103 11.2405 44.7783 11.8485C45.1623 12.4565 45.3543 13.1925 45.3543 14.0565C45.3543 15.0805 45.1223 15.9285 44.6583 16.6005C44.1943 17.2725 43.5783 17.7765 42.8103 18.1125C42.0423 18.4485 41.1943 18.6165 40.2663 18.6165C39.4183 18.6165 38.7463 18.5205 38.2503 18.3285C37.7543 18.1365 37.3303 17.9365 36.9783 17.7285C36.6263 17.5045 36.3543 17.3925 36.1623 17.3925C36.0023 17.3925 35.8823 17.4805 35.8023 17.6565C35.7383 17.8325 35.6823 18.0965 35.6343 18.4485H35.0823C35.1143 18.1125 35.1303 17.7205 35.1303 17.2725C35.1463 16.8085 35.1543 16.2085 35.1543 15.4725C35.1703 14.7365 35.1783 13.8085 35.1783 12.6885H35.7303C35.7943 13.6485 35.9703 14.5445 36.2583 15.3765C36.5623 16.2085 37.0183 16.8805 37.6263 17.3925C38.2503 17.8885 39.0743 18.1365 40.0983 18.1365C40.6263 18.1365 41.1223 18.0325 41.5863 17.8245C42.0663 17.6005 42.4583 17.2565 42.7623 16.7925C43.0663 16.3125 43.2183 15.6965 43.2183 14.9445C43.2183 14.2885 43.0583 13.7205 42.7383 13.2405C42.4343 12.7445 42.0023 12.2885 41.4423 11.8725C40.8823 11.4405 40.2263 11.0005 39.4743 10.5525C38.7223 10.0885 38.0183 9.61652 37.3623 9.13652C36.7063 8.65652 36.1783 8.10452 35.7783 7.48052C35.3943 6.84052 35.2023 6.07252 35.2023 5.17652C35.2023 4.23252 35.4103 3.45652 35.8263 2.84852C36.2583 2.22452 36.8183 1.76852 37.5063 1.48052C38.1943 1.17652 38.9303 1.02452 39.7143 1.02452ZM55.4353 0.952516C56.9553 0.952516 58.2833 1.29652 59.4193 1.98452C60.5713 2.67252 61.4593 3.66452 62.0833 4.96052C62.7233 6.24052 63.0433 7.80052 63.0433 9.64052C63.0433 11.4325 62.7153 13.0005 62.0593 14.3445C61.4193 15.6885 60.5233 16.7365 59.3713 17.4885C58.2193 18.2405 56.8993 18.6165 55.4113 18.6165C53.8913 18.6165 52.5553 18.2725 51.4033 17.5845C50.2673 16.8965 49.3793 15.9045 48.7393 14.6085C48.1153 13.3125 47.8033 11.7525 47.8033 9.92852C47.8033 8.13652 48.1313 6.56852 48.7873 5.22452C49.4433 3.88052 50.3393 2.83252 51.4753 2.08052C52.6273 1.32852 53.9473 0.952516 55.4353 0.952516ZM55.3393 1.38452C54.2993 1.38452 53.3953 1.74452 52.6273 2.46452C51.8593 3.18452 51.2593 4.17652 50.8273 5.44052C50.4113 6.70452 50.2033 8.16852 50.2033 9.83252C50.2033 11.5285 50.4353 13.0085 50.8993 14.2725C51.3793 15.5205 52.0193 16.4885 52.8193 17.1765C53.6353 17.8485 54.5313 18.1845 55.5073 18.1845C56.5473 18.1845 57.4513 17.8245 58.2193 17.1045C58.9873 16.3845 59.5793 15.3925 59.9953 14.1285C60.4273 12.8485 60.6432 11.3845 60.6432 9.73652C60.6432 8.02452 60.4033 6.54452 59.9233 5.29652C59.4593 4.04852 58.8273 3.08852 58.0273 2.41652C57.2273 1.72852 56.3313 1.38452 55.3393 1.38452ZM78.5283 1.28852C78.4643 1.89652 78.4163 2.48852 78.3843 3.06452C78.3683 3.62452 78.3603 4.05652 78.3603 4.36052C78.3603 4.74452 78.3683 5.10452 78.3843 5.44052C78.4003 5.77652 78.4163 6.07252 78.4323 6.32852H77.8803C77.7683 5.20852 77.6163 4.32852 77.4243 3.68852C77.2323 3.03252 76.8963 2.56052 76.4163 2.27252C75.9363 1.98452 75.1923 1.84052 74.1843 1.84052H72.8883V15.4965C72.8883 16.1365 72.9443 16.6165 73.0563 16.9365C73.1843 17.2565 73.4243 17.4725 73.7763 17.5845C74.1283 17.6965 74.6403 17.7685 75.3123 17.8005V18.2805C74.8963 18.2485 74.3683 18.2325 73.7283 18.2325C73.0883 18.2165 72.4403 18.2085 71.7843 18.2085C71.0643 18.2085 70.3843 18.2165 69.7443 18.2325C69.1203 18.2325 68.6163 18.2485 68.2323 18.2805V17.8005C68.9043 17.7685 69.4163 17.6965 69.7683 17.5845C70.1203 17.4725 70.3523 17.2565 70.4643 16.9365C70.5923 16.6165 70.6563 16.1365 70.6563 15.4965V1.84052H69.3603C68.3683 1.84052 67.6243 1.98452 67.1283 2.27252C66.6483 2.56052 66.3123 3.03252 66.1203 3.68852C65.9283 4.32852 65.7763 5.20852 65.6643 6.32852H65.1123C65.1443 6.07252 65.1603 5.77652 65.1603 5.44052C65.1763 5.10452 65.1843 4.74452 65.1843 4.36052C65.1843 4.05652 65.1683 3.62452 65.1363 3.06452C65.1203 2.48852 65.0803 1.89652 65.0163 1.28852C65.6883 1.30452 66.4163 1.32052 67.2003 1.33652C68.0003 1.35252 68.8003 1.36052 69.6003 1.36052C70.4003 1.36052 71.1283 1.36052 71.7843 1.36052C72.4403 1.36052 73.1603 1.36052 73.9443 1.36052C74.7443 1.36052 75.5443 1.35252 76.3443 1.33652C77.1443 1.32052 77.8723 1.30452 78.5283 1.28852ZM80.2346 1.28852C80.5706 1.30452 81.0106 1.32052 81.5546 1.33652C82.0986 1.35252 82.6346 1.36052 83.1626 1.36052C83.9146 1.36052 84.6346 1.35252 85.3226 1.33652C86.0106 1.32052 86.4986 1.31252 86.7866 1.31252C88.0826 1.31252 89.1546 1.49652 90.0026 1.86452C90.8666 2.23252 91.5066 2.73652 91.9226 3.37652C92.3546 4.00052 92.5706 4.70452 92.5706 5.48852C92.5706 5.96852 92.4746 6.48052 92.2826 7.02452C92.0906 7.56852 91.7546 8.08052 91.2746 8.56052C90.8106 9.04052 90.1706 9.44052 89.3546 9.76052C88.5386 10.0645 87.5066 10.2165 86.2586 10.2165H83.9546V9.73652H86.0186C87.1546 9.73652 88.0186 9.56052 88.6106 9.20852C89.2186 8.84052 89.6266 8.36052 89.8346 7.76852C90.0586 7.16052 90.1706 6.48852 90.1706 5.75252C90.1706 4.48852 89.8666 3.51252 89.2586 2.82452C88.6666 2.12052 87.6426 1.76852 86.1866 1.76852C85.4506 1.76852 84.9706 1.90452 84.7466 2.17652C84.5226 2.44852 84.4106 3.00052 84.4106 3.83252V15.7365C84.4106 16.3125 84.4586 16.7445 84.5546 17.0325C84.6506 17.3205 84.8346 17.5125 85.1066 17.6085C85.3946 17.7045 85.8106 17.7685 86.3546 17.8005V18.2805C85.9866 18.2485 85.5226 18.2325 84.9626 18.2325C84.4186 18.2165 83.8666 18.2085 83.3066 18.2085C82.6826 18.2085 82.0986 18.2165 81.5546 18.2325C81.0106 18.2325 80.5706 18.2485 80.2346 18.2805V17.8005C80.7786 17.7685 81.1866 17.7045 81.4586 17.6085C81.7466 17.5125 81.9386 17.3205 82.0346 17.0325C82.1306 16.7445 82.1786 16.3125 82.1786 15.7365V3.83252C82.1786 3.24052 82.1306 2.80852 82.0346 2.53652C81.9386 2.24852 81.7466 2.05652 81.4586 1.96052C81.1866 1.84852 80.7786 1.78452 80.2346 1.76852V1.28852ZM84.0506 9.80852C84.9146 9.84052 85.5946 9.88052 86.0906 9.92852C86.5866 9.96052 86.9866 9.99252 87.2906 10.0245C87.6106 10.0565 87.9146 10.0965 88.2026 10.1445C89.2746 10.3205 90.0426 10.6485 90.5066 11.1285C90.9866 11.5925 91.3386 12.3205 91.5626 13.3125L92.1626 15.7605C92.3226 16.4645 92.4826 16.9765 92.6426 17.2965C92.8186 17.6005 93.0826 17.7445 93.4346 17.7285C93.7066 17.7125 93.9306 17.6245 94.1066 17.4645C94.2986 17.3045 94.4986 17.0885 94.7066 16.8165L95.0666 17.0805C94.7306 17.5765 94.3786 17.9605 94.0106 18.2325C93.6586 18.4885 93.1546 18.6165 92.4986 18.6165C91.9066 18.6165 91.3866 18.4405 90.9386 18.0885C90.4906 17.7365 90.1546 17.0485 89.9306 16.0245L89.4026 13.6245C89.2586 12.9365 89.0906 12.3445 88.8986 11.8485C88.7226 11.3365 88.4666 10.9365 88.1306 10.6485C87.8106 10.3605 87.3306 10.2165 86.6906 10.2165H84.0986L84.0506 9.80852ZM103.693 0.952516C105.213 0.952516 106.541 1.29652 107.677 1.98452C108.829 2.67252 109.717 3.66452 110.341 4.96052C110.981 6.24052 111.301 7.80052 111.301 9.64052C111.301 11.4325 110.973 13.0005 110.317 14.3445C109.677 15.6885 108.781 16.7365 107.629 17.4885C106.477 18.2405 105.157 18.6165 103.669 18.6165C102.149 18.6165 100.813 18.2725 99.6611 17.5845C98.5251 16.8965 97.6371 15.9045 96.9971 14.6085C96.3731 13.3125 96.0611 11.7525 96.0611 9.92852C96.0611 8.13652 96.3891 6.56852 97.0451 5.22452C97.7011 3.88052 98.5971 2.83252 99.7331 2.08052C100.885 1.32852 102.205 0.952516 103.693 0.952516ZM103.597 1.38452C102.557 1.38452 101.653 1.74452 100.885 2.46452C100.117 3.18452 99.5171 4.17652 99.0851 5.44052C98.6691 6.70452 98.4611 8.16852 98.4611 9.83252C98.4611 11.5285 98.6931 13.0085 99.1571 14.2725C99.6371 15.5205 100.277 16.4885 101.077 17.1765C101.893 17.8485 102.789 18.1845 103.765 18.1845C104.805 18.1845 105.709 17.8245 106.477 17.1045C107.245 16.3845 107.837 15.3925 108.253 14.1285C108.685 12.8485 108.901 11.3845 108.901 9.73652C108.901 8.02452 108.661 6.54452 108.181 5.29652C107.717 4.04852 107.085 3.08852 106.285 2.41652C105.485 1.72852 104.589 1.38452 103.597 1.38452ZM118.722 1.02452C119.522 1.02452 120.13 1.12052 120.546 1.31252C120.962 1.48852 121.33 1.68852 121.65 1.91252C121.842 2.02452 121.994 2.11252 122.106 2.17652C122.234 2.22452 122.354 2.24852 122.466 2.24852C122.626 2.24852 122.738 2.16052 122.802 1.98452C122.882 1.80852 122.946 1.54452 122.994 1.19252H123.546C123.53 1.46452 123.506 1.79252 123.474 2.17652C123.458 2.54452 123.442 3.04052 123.426 3.66452C123.426 4.27252 123.426 5.08052 123.426 6.08852H122.874C122.826 5.32052 122.658 4.58452 122.37 3.88052C122.082 3.17652 121.658 2.60052 121.098 2.15252C120.554 1.70452 119.834 1.48052 118.938 1.48052C118.09 1.48052 117.386 1.73652 116.826 2.24852C116.282 2.76052 116.01 3.43252 116.01 4.26452C116.01 4.98452 116.194 5.59252 116.562 6.08852C116.93 6.56852 117.418 7.00852 118.026 7.40852C118.65 7.79252 119.322 8.20852 120.042 8.65652C120.874 9.16852 121.61 9.68052 122.25 10.1925C122.906 10.6885 123.418 11.2405 123.786 11.8485C124.17 12.4565 124.362 13.1925 124.362 14.0565C124.362 15.0805 124.13 15.9285 123.666 16.6005C123.202 17.2725 122.586 17.7765 121.818 18.1125C121.05 18.4485 120.202 18.6165 119.274 18.6165C118.426 18.6165 117.754 18.5205 117.258 18.3285C116.762 18.1365 116.338 17.9365 115.986 17.7285C115.634 17.5045 115.362 17.3925 115.17 17.3925C115.01 17.3925 114.89 17.4805 114.81 17.6565C114.746 17.8325 114.69 18.0965 114.642 18.4485H114.09C114.122 18.1125 114.138 17.7205 114.138 17.2725C114.154 16.8085 114.162 16.2085 114.162 15.4725C114.178 14.7365 114.186 13.8085 114.186 12.6885H114.738C114.802 13.6485 114.978 14.5445 115.266 15.3765C115.57 16.2085 116.026 16.8805 116.634 17.3925C117.258 17.8885 118.082 18.1365 119.106 18.1365C119.634 18.1365 120.13 18.0325 120.594 17.8245C121.074 17.6005 121.466 17.2565 121.77 16.7925C122.074 16.3125 122.226 15.6965 122.226 14.9445C122.226 14.2885 122.066 13.7205 121.746 13.2405C121.442 12.7445 121.01 12.2885 120.45 11.8725C119.89 11.4405 119.234 11.0005 118.482 10.5525C117.73 10.0885 117.026 9.61652 116.37 9.13652C115.714 8.65652 115.186 8.10452 114.786 7.48052C114.402 6.84052 114.21 6.07252 114.21 5.17652C114.21 4.23252 114.418 3.45652 114.834 2.84852C115.266 2.22452 115.826 1.76852 116.514 1.48052C117.202 1.17652 117.938 1.02452 118.722 1.02452Z" fill="white"/>
</svg>
