<svg width="125" height="19" viewBox="0 0 125 19" fill="none" xmlns="http://www.w3.org/2000/svg">
<path d="M15.33 1.008V1.488C14.786 1.504 14.37 1.584 14.082 1.728C13.81 1.872 13.626 2.104 13.53 2.424C13.434 2.744 13.386 3.2 13.386 3.792V18.12C13.29 18.12 13.194 18.12 13.098 18.12C13.018 18.12 12.93 18.12 12.834 18.12L2.754 2.544V15.216C2.754 15.792 2.802 16.248 2.898 16.584C3.01 16.904 3.218 17.136 3.522 17.28C3.842 17.408 4.314 17.488 4.938 17.52V18C4.65 17.968 4.274 17.952 3.81 17.952C3.346 17.936 2.906 17.928 2.49 17.928C2.09 17.928 1.682 17.936 1.266 17.952C0.866 17.952 0.53 17.968 0.258 18V17.52C0.802 17.488 1.21 17.408 1.482 17.28C1.77 17.136 1.962 16.904 2.058 16.584C2.154 16.248 2.202 15.792 2.202 15.216V3.552C2.202 2.96 2.154 2.528 2.058 2.256C1.962 1.968 1.77 1.776 1.482 1.68C1.21 1.568 0.802 1.504 0.258 1.488V1.008C0.53 1.024 0.866 1.04 1.266 1.056C1.682 1.072 2.09 1.08 2.49 1.08C2.842 1.08 3.178 1.072 3.498 1.056C3.818 1.04 4.106 1.024 4.362 1.008L12.834 14.064V3.792C12.834 3.2 12.778 2.744 12.666 2.424C12.57 2.104 12.362 1.872 12.042 1.728C11.738 1.584 11.274 1.504 10.65 1.488V1.008C10.938 1.024 11.314 1.04 11.778 1.056C12.258 1.072 12.698 1.08 13.098 1.08C13.514 1.08 13.922 1.072 14.322 1.056C14.738 1.04 15.074 1.024 15.33 1.008ZM24.9353 0.671999C26.4553 0.671999 27.7833 1.016 28.9193 1.704C30.0713 2.392 30.9593 3.384 31.5833 4.68C32.2233 5.96 32.5433 7.52 32.5433 9.36C32.5433 11.152 32.2153 12.72 31.5593 14.064C30.9193 15.408 30.0233 16.456 28.8713 17.208C27.7193 17.96 26.3993 18.336 24.9113 18.336C23.3913 18.336 22.0553 17.992 20.9033 17.304C19.7673 16.616 18.8793 15.624 18.2393 14.328C17.6153 13.032 17.3033 11.472 17.3033 9.648C17.3033 7.856 17.6313 6.288 18.2873 4.944C18.9433 3.6 19.8393 2.552 20.9753 1.8C22.1273 1.048 23.4473 0.671999 24.9353 0.671999ZM24.8393 1.104C23.7993 1.104 22.8953 1.464 22.1273 2.184C21.3593 2.904 20.7593 3.896 20.3273 5.16C19.9113 6.424 19.7033 7.888 19.7033 9.552C19.7033 11.248 19.9353 12.728 20.3993 13.992C20.8793 15.24 21.5193 16.208 22.3193 16.896C23.1353 17.568 24.0313 17.904 25.0073 17.904C26.0473 17.904 26.9513 17.544 27.7193 16.824C28.4873 16.104 29.0793 15.112 29.4953 13.848C29.9273 12.568 30.1432 11.104 30.1432 9.456C30.1432 7.744 29.9033 6.264 29.4233 5.016C28.9593 3.768 28.3273 2.808 27.5273 2.136C26.7273 1.448 25.8313 1.104 24.8393 1.104ZM39.9643 0.743999C40.7643 0.743999 41.3723 0.839999 41.7883 1.032C42.2043 1.208 42.5723 1.408 42.8923 1.632C43.0843 1.744 43.2363 1.832 43.3483 1.896C43.4763 1.944 43.5963 1.968 43.7083 1.968C43.8683 1.968 43.9803 1.88 44.0443 1.704C44.1243 1.528 44.1883 1.264 44.2363 0.912H44.7883C44.7723 1.184 44.7483 1.512 44.7163 1.896C44.7003 2.264 44.6843 2.76 44.6683 3.384C44.6683 3.992 44.6683 4.8 44.6683 5.808H44.1163C44.0683 5.04 43.9003 4.304 43.6123 3.6C43.3243 2.896 42.9003 2.32 42.3403 1.872C41.7963 1.424 41.0763 1.2 40.1803 1.2C39.3323 1.2 38.6283 1.456 38.0683 1.968C37.5243 2.48 37.2523 3.152 37.2523 3.984C37.2523 4.704 37.4363 5.312 37.8043 5.808C38.1723 6.288 38.6603 6.728 39.2683 7.128C39.8923 7.512 40.5643 7.928 41.2843 8.376C42.1163 8.888 42.8523 9.4 43.4923 9.912C44.1483 10.408 44.6603 10.96 45.0283 11.568C45.4123 12.176 45.6043 12.912 45.6043 13.776C45.6043 14.8 45.3723 15.648 44.9083 16.32C44.4443 16.992 43.8283 17.496 43.0603 17.832C42.2923 18.168 41.4443 18.336 40.5163 18.336C39.6683 18.336 38.9963 18.24 38.5003 18.048C38.0043 17.856 37.5803 17.656 37.2283 17.448C36.8763 17.224 36.6043 17.112 36.4123 17.112C36.2523 17.112 36.1323 17.2 36.0523 17.376C35.9883 17.552 35.9323 17.816 35.8843 18.168H35.3323C35.3643 17.832 35.3803 17.44 35.3803 16.992C35.3963 16.528 35.4043 15.928 35.4043 15.192C35.4203 14.456 35.4283 13.528 35.4283 12.408H35.9803C36.0443 13.368 36.2203 14.264 36.5083 15.096C36.8123 15.928 37.2683 16.6 37.8763 17.112C38.5003 17.608 39.3243 17.856 40.3483 17.856C40.8763 17.856 41.3723 17.752 41.8363 17.544C42.3163 17.32 42.7083 16.976 43.0123 16.512C43.3163 16.032 43.4683 15.416 43.4683 14.664C43.4683 14.008 43.3083 13.44 42.9883 12.96C42.6843 12.464 42.2523 12.008 41.6923 11.592C41.1323 11.16 40.4763 10.72 39.7243 10.272C38.9723 9.808 38.2683 9.336 37.6123 8.856C36.9563 8.376 36.4283 7.824 36.0283 7.2C35.6443 6.56 35.4523 5.792 35.4523 4.896C35.4523 3.952 35.6603 3.176 36.0763 2.568C36.5083 1.944 37.0683 1.488 37.7563 1.2C38.4443 0.895999 39.1803 0.743999 39.9643 0.743999ZM55.6853 0.671999C57.2053 0.671999 58.5333 1.016 59.6693 1.704C60.8213 2.392 61.7093 3.384 62.3333 4.68C62.9733 5.96 63.2933 7.52 63.2933 9.36C63.2933 11.152 62.9653 12.72 62.3093 14.064C61.6693 15.408 60.7733 16.456 59.6213 17.208C58.4693 17.96 57.1493 18.336 55.6613 18.336C54.1413 18.336 52.8053 17.992 51.6533 17.304C50.5173 16.616 49.6293 15.624 48.9893 14.328C48.3653 13.032 48.0533 11.472 48.0533 9.648C48.0533 7.856 48.3813 6.288 49.0373 4.944C49.6933 3.6 50.5893 2.552 51.7253 1.8C52.8773 1.048 54.1973 0.671999 55.6853 0.671999ZM55.5893 1.104C54.5493 1.104 53.6453 1.464 52.8773 2.184C52.1093 2.904 51.5093 3.896 51.0773 5.16C50.6613 6.424 50.4533 7.888 50.4533 9.552C50.4533 11.248 50.6853 12.728 51.1493 13.992C51.6293 15.24 52.2693 16.208 53.0693 16.896C53.8853 17.568 54.7813 17.904 55.7573 17.904C56.7973 17.904 57.7013 17.544 58.4693 16.824C59.2373 16.104 59.8293 15.112 60.2453 13.848C60.6773 12.568 60.8932 11.104 60.8932 9.456C60.8932 7.744 60.6533 6.264 60.1733 5.016C59.7093 3.768 59.0773 2.808 58.2773 2.136C57.4773 1.448 56.5813 1.104 55.5893 1.104ZM78.7783 1.008C78.7143 1.616 78.6663 2.208 78.6343 2.784C78.6183 3.344 78.6103 3.776 78.6103 4.08C78.6103 4.464 78.6183 4.824 78.6343 5.16C78.6503 5.496 78.6663 5.792 78.6823 6.048H78.1303C78.0183 4.928 77.8663 4.048 77.6743 3.408C77.4823 2.752 77.1463 2.28 76.6663 1.992C76.1863 1.704 75.4423 1.56 74.4343 1.56H73.1383V15.216C73.1383 15.856 73.1943 16.336 73.3063 16.656C73.4343 16.976 73.6743 17.192 74.0263 17.304C74.3783 17.416 74.8903 17.488 75.5623 17.52V18C75.1463 17.968 74.6183 17.952 73.9783 17.952C73.3383 17.936 72.6903 17.928 72.0343 17.928C71.3143 17.928 70.6343 17.936 69.9943 17.952C69.3703 17.952 68.8663 17.968 68.4823 18V17.52C69.1543 17.488 69.6663 17.416 70.0183 17.304C70.3703 17.192 70.6023 16.976 70.7143 16.656C70.8423 16.336 70.9063 15.856 70.9063 15.216V1.56H69.6103C68.6183 1.56 67.8743 1.704 67.3783 1.992C66.8983 2.28 66.5623 2.752 66.3703 3.408C66.1783 4.048 66.0263 4.928 65.9143 6.048H65.3623C65.3943 5.792 65.4103 5.496 65.4103 5.16C65.4263 4.824 65.4343 4.464 65.4343 4.08C65.4343 3.776 65.4183 3.344 65.3863 2.784C65.3703 2.208 65.3303 1.616 65.2663 1.008C65.9383 1.024 66.6663 1.04 67.4503 1.056C68.2503 1.072 69.0503 1.08 69.8503 1.08C70.6503 1.08 71.3783 1.08 72.0343 1.08C72.6903 1.08 73.4103 1.08 74.1943 1.08C74.9943 1.08 75.7943 1.072 76.5943 1.056C77.3943 1.04 78.1223 1.024 78.7783 1.008ZM80.4846 1.008C80.8206 1.024 81.2606 1.04 81.8046 1.056C82.3486 1.072 82.8846 1.08 83.4126 1.08C84.1646 1.08 84.8846 1.072 85.5726 1.056C86.2606 1.04 86.7486 1.032 87.0366 1.032C88.3326 1.032 89.4046 1.216 90.2526 1.584C91.1166 1.952 91.7566 2.456 92.1726 3.096C92.6046 3.72 92.8206 4.424 92.8206 5.208C92.8206 5.688 92.7246 6.2 92.5326 6.744C92.3406 7.288 92.0046 7.8 91.5246 8.28C91.0606 8.76 90.4206 9.16 89.6046 9.48C88.7886 9.784 87.7566 9.936 86.5086 9.936H84.2046V9.456H86.2686C87.4046 9.456 88.2686 9.28 88.8606 8.928C89.4686 8.56 89.8766 8.08 90.0846 7.488C90.3086 6.88 90.4206 6.208 90.4206 5.472C90.4206 4.208 90.1166 3.232 89.5086 2.544C88.9166 1.84 87.8926 1.488 86.4366 1.488C85.7006 1.488 85.2206 1.624 84.9966 1.896C84.7726 2.168 84.6606 2.72 84.6606 3.552V15.456C84.6606 16.032 84.7086 16.464 84.8046 16.752C84.9006 17.04 85.0846 17.232 85.3566 17.328C85.6446 17.424 86.0606 17.488 86.6046 17.52V18C86.2366 17.968 85.7726 17.952 85.2126 17.952C84.6686 17.936 84.1166 17.928 83.5566 17.928C82.9326 17.928 82.3486 17.936 81.8046 17.952C81.2606 17.952 80.8206 17.968 80.4846 18V17.52C81.0286 17.488 81.4366 17.424 81.7086 17.328C81.9966 17.232 82.1886 17.04 82.2846 16.752C82.3806 16.464 82.4286 16.032 82.4286 15.456V3.552C82.4286 2.96 82.3806 2.528 82.2846 2.256C82.1886 1.968 81.9966 1.776 81.7086 1.68C81.4366 1.568 81.0286 1.504 80.4846 1.488V1.008ZM84.3006 9.528C85.1646 9.56 85.8446 9.6 86.3406 9.648C86.8366 9.68 87.2366 9.712 87.5406 9.744C87.8606 9.776 88.1646 9.816 88.4526 9.864C89.5246 10.04 90.2926 10.368 90.7566 10.848C91.2366 11.312 91.5886 12.04 91.8126 13.032L92.4126 15.48C92.5726 16.184 92.7326 16.696 92.8926 17.016C93.0686 17.32 93.3326 17.464 93.6846 17.448C93.9566 17.432 94.1806 17.344 94.3566 17.184C94.5486 17.024 94.7486 16.808 94.9566 16.536L95.3166 16.8C94.9806 17.296 94.6286 17.68 94.2606 17.952C93.9086 18.208 93.4046 18.336 92.7486 18.336C92.1566 18.336 91.6366 18.16 91.1886 17.808C90.7406 17.456 90.4046 16.768 90.1806 15.744L89.6526 13.344C89.5086 12.656 89.3406 12.064 89.1486 11.568C88.9726 11.056 88.7166 10.656 88.3806 10.368C88.0606 10.08 87.5806 9.936 86.9406 9.936H84.3486L84.3006 9.528ZM103.943 0.671999C105.463 0.671999 106.791 1.016 107.927 1.704C109.079 2.392 109.967 3.384 110.591 4.68C111.231 5.96 111.551 7.52 111.551 9.36C111.551 11.152 111.223 12.72 110.567 14.064C109.927 15.408 109.031 16.456 107.879 17.208C106.727 17.96 105.407 18.336 103.919 18.336C102.399 18.336 101.063 17.992 99.9111 17.304C98.7751 16.616 97.8871 15.624 97.2471 14.328C96.6231 13.032 96.3111 11.472 96.3111 9.648C96.3111 7.856 96.6391 6.288 97.2951 4.944C97.9511 3.6 98.8471 2.552 99.9831 1.8C101.135 1.048 102.455 0.671999 103.943 0.671999ZM103.847 1.104C102.807 1.104 101.903 1.464 101.135 2.184C100.367 2.904 99.7671 3.896 99.3351 5.16C98.9191 6.424 98.7111 7.888 98.7111 9.552C98.7111 11.248 98.9431 12.728 99.4071 13.992C99.8871 15.24 100.527 16.208 101.327 16.896C102.143 17.568 103.039 17.904 104.015 17.904C105.055 17.904 105.959 17.544 106.727 16.824C107.495 16.104 108.087 15.112 108.503 13.848C108.935 12.568 109.151 11.104 109.151 9.456C109.151 7.744 108.911 6.264 108.431 5.016C107.967 3.768 107.335 2.808 106.535 2.136C105.735 1.448 104.839 1.104 103.847 1.104ZM118.972 0.743999C119.772 0.743999 120.38 0.839999 120.796 1.032C121.212 1.208 121.58 1.408 121.9 1.632C122.092 1.744 122.244 1.832 122.356 1.896C122.484 1.944 122.604 1.968 122.716 1.968C122.876 1.968 122.988 1.88 123.052 1.704C123.132 1.528 123.196 1.264 123.244 0.912H123.796C123.78 1.184 123.756 1.512 123.724 1.896C123.708 2.264 123.692 2.76 123.676 3.384C123.676 3.992 123.676 4.8 123.676 5.808H123.124C123.076 5.04 122.908 4.304 122.62 3.6C122.332 2.896 121.908 2.32 121.348 1.872C120.804 1.424 120.084 1.2 119.188 1.2C118.34 1.2 117.636 1.456 117.076 1.968C116.532 2.48 116.26 3.152 116.26 3.984C116.26 4.704 116.444 5.312 116.812 5.808C117.18 6.288 117.668 6.728 118.276 7.128C118.9 7.512 119.572 7.928 120.292 8.376C121.124 8.888 121.86 9.4 122.5 9.912C123.156 10.408 123.668 10.96 124.036 11.568C124.42 12.176 124.612 12.912 124.612 13.776C124.612 14.8 124.38 15.648 123.916 16.32C123.452 16.992 122.836 17.496 122.068 17.832C121.3 18.168 120.452 18.336 119.524 18.336C118.676 18.336 118.004 18.24 117.508 18.048C117.012 17.856 116.588 17.656 116.236 17.448C115.884 17.224 115.612 17.112 115.42 17.112C115.26 17.112 115.14 17.2 115.06 17.376C114.996 17.552 114.94 17.816 114.892 18.168H114.34C114.372 17.832 114.388 17.44 114.388 16.992C114.404 16.528 114.412 15.928 114.412 15.192C114.428 14.456 114.436 13.528 114.436 12.408H114.988C115.052 13.368 115.228 14.264 115.516 15.096C115.82 15.928 116.276 16.6 116.884 17.112C117.508 17.608 118.332 17.856 119.356 17.856C119.884 17.856 120.38 17.752 120.844 17.544C121.324 17.32 121.716 16.976 122.02 16.512C122.324 16.032 122.476 15.416 122.476 14.664C122.476 14.008 122.316 13.44 121.996 12.96C121.692 12.464 121.26 12.008 120.7 11.592C120.14 11.16 119.484 10.72 118.732 10.272C117.98 9.808 117.276 9.336 116.62 8.856C115.964 8.376 115.436 7.824 115.036 7.2C114.652 6.56 114.46 5.792 114.46 4.896C114.46 3.952 114.668 3.176 115.084 2.568C115.516 1.944 116.076 1.488 116.764 1.2C117.452 0.895999 118.188 0.743999 118.972 0.743999Z" fill="#C39D7F"/>
</svg>
