<svg width="102" height="19" viewBox="0 0 102 19" fill="none" xmlns="http://www.w3.org/2000/svg">
<path d="M0.258 1.008C0.594 1.024 1.034 1.04 1.578 1.056C2.122 1.072 2.658 1.08 3.186 1.08C3.938 1.08 4.658 1.072 5.346 1.056C6.034 1.04 6.522 1.032 6.81 1.032C8.106 1.032 9.178 1.216 10.026 1.584C10.89 1.952 11.53 2.456 11.946 3.096C12.378 3.72 12.594 4.424 12.594 5.208C12.594 5.688 12.498 6.2 12.306 6.744C12.114 7.288 11.778 7.8 11.298 8.28C10.834 8.76 10.194 9.16 9.378 9.48C8.562 9.784 7.53 9.936 6.282 9.936H3.978V9.456H6.042C7.178 9.456 8.042 9.28 8.634 8.928C9.242 8.56 9.65 8.08 9.858 7.488C10.082 6.88 10.194 6.208 10.194 5.472C10.194 4.208 9.89 3.232 9.282 2.544C8.69 1.84 7.666 1.488 6.21 1.488C5.474 1.488 4.994 1.624 4.77 1.896C4.546 2.168 4.434 2.72 4.434 3.552V15.456C4.434 16.032 4.482 16.464 4.578 16.752C4.674 17.04 4.858 17.232 5.13 17.328C5.418 17.424 5.834 17.488 6.378 17.52V18C6.01 17.968 5.546 17.952 4.986 17.952C4.442 17.936 3.89 17.928 3.33 17.928C2.706 17.928 2.122 17.936 1.578 17.952C1.034 17.952 0.594 17.968 0.258 18V17.52C0.802 17.488 1.21 17.424 1.482 17.328C1.77 17.232 1.962 17.04 2.058 16.752C2.154 16.464 2.202 16.032 2.202 15.456V3.552C2.202 2.96 2.154 2.528 2.058 2.256C1.962 1.968 1.77 1.776 1.482 1.68C1.21 1.568 0.802 1.504 0.258 1.488V1.008ZM4.074 9.528C4.938 9.56 5.618 9.6 6.114 9.648C6.61 9.68 7.01 9.712 7.314 9.744C7.634 9.776 7.938 9.816 8.226 9.864C9.298 10.04 10.066 10.368 10.53 10.848C11.01 11.312 11.362 12.04 11.586 13.032L12.186 15.48C12.346 16.184 12.506 16.696 12.666 17.016C12.842 17.32 13.106 17.464 13.458 17.448C13.73 17.432 13.954 17.344 14.13 17.184C14.322 17.024 14.522 16.808 14.73 16.536L15.09 16.8C14.754 17.296 14.402 17.68 14.034 17.952C13.682 18.208 13.178 18.336 12.522 18.336C11.93 18.336 11.41 18.16 10.962 17.808C10.514 17.456 10.178 16.768 9.954 15.744L9.426 13.344C9.282 12.656 9.114 12.064 8.922 11.568C8.746 11.056 8.49 10.656 8.154 10.368C7.834 10.08 7.354 9.936 6.714 9.936H4.122L4.074 9.528ZM27.7965 1.008C27.7325 1.568 27.6845 2.112 27.6525 2.64C27.6365 3.168 27.6285 3.568 27.6285 3.84C27.6285 4.128 27.6365 4.408 27.6525 4.68C27.6685 4.936 27.6845 5.152 27.7005 5.328H27.1485C27.0525 4.384 26.9165 3.64 26.7405 3.096C26.5645 2.536 26.2605 2.144 25.8285 1.92C25.4125 1.68 24.7805 1.56 23.9325 1.56H21.9405C21.3965 1.56 20.9805 1.608 20.6925 1.704C20.4205 1.784 20.2365 1.968 20.1405 2.256C20.0445 2.528 19.9965 2.96 19.9965 3.552V15.456C19.9965 16.032 20.0445 16.464 20.1405 16.752C20.2365 17.04 20.4205 17.232 20.6925 17.328C20.9805 17.408 21.3965 17.448 21.9405 17.448H23.6925C24.7005 17.448 25.4605 17.312 25.9725 17.04C26.5005 16.768 26.8765 16.328 27.1005 15.72C27.3405 15.096 27.5165 14.256 27.6285 13.2H28.1805C28.1325 13.632 28.1085 14.208 28.1085 14.928C28.1085 15.232 28.1165 15.672 28.1325 16.248C28.1645 16.808 28.2125 17.392 28.2765 18C27.4605 17.968 26.5405 17.952 25.5165 17.952C24.4925 17.936 23.5805 17.928 22.7805 17.928C22.4285 17.928 21.9725 17.928 21.4125 17.928C20.8685 17.928 20.2765 17.936 19.6365 17.952C18.9965 17.952 18.3485 17.96 17.6925 17.976C17.0365 17.976 16.4125 17.984 15.8205 18V17.52C16.3645 17.488 16.7725 17.424 17.0445 17.328C17.3325 17.232 17.5245 17.04 17.6205 16.752C17.7165 16.464 17.7645 16.032 17.7645 15.456V3.552C17.7645 2.96 17.7165 2.528 17.6205 2.256C17.5245 1.968 17.3325 1.776 17.0445 1.68C16.7725 1.568 16.3645 1.504 15.8205 1.488V1.008C16.4125 1.024 17.0365 1.04 17.6925 1.056C18.3485 1.056 18.9965 1.064 19.6365 1.08C20.2765 1.08 20.8685 1.08 21.4125 1.08C21.9725 1.08 22.4285 1.08 22.7805 1.08C23.5165 1.08 24.3485 1.08 25.2765 1.08C26.2205 1.064 27.0605 1.04 27.7965 1.008ZM23.6685 9.216C23.6685 9.216 23.6685 9.296 23.6685 9.456C23.6685 9.616 23.6685 9.696 23.6685 9.696H19.2765C19.2765 9.696 19.2765 9.616 19.2765 9.456C19.2765 9.296 19.2765 9.216 19.2765 9.216H23.6685ZM24.3645 6.048C24.3005 6.96 24.2685 7.656 24.2685 8.136C24.2845 8.616 24.2925 9.056 24.2925 9.456C24.2925 9.856 24.3005 10.296 24.3165 10.776C24.3325 11.256 24.3725 11.952 24.4365 12.864H23.8845C23.8205 12.352 23.7405 11.856 23.6445 11.376C23.5645 10.88 23.3725 10.48 23.0685 10.176C22.7805 9.856 22.2845 9.696 21.5805 9.696V9.216C22.1085 9.216 22.5085 9.112 22.7805 8.904C23.0685 8.68 23.2765 8.4 23.4045 8.064C23.5325 7.728 23.6205 7.384 23.6685 7.032C23.7165 6.664 23.7645 6.336 23.8125 6.048H24.3645ZM38.3415 0.671999C39.3975 0.671999 40.2615 0.831999 40.9335 1.152C41.6215 1.456 42.2295 1.816 42.7575 2.232C43.0775 2.472 43.3175 2.504 43.4775 2.328C43.6535 2.136 43.7735 1.696 43.8375 1.008H44.3895C44.3575 1.6 44.3335 2.32 44.3175 3.168C44.3015 4.016 44.2935 5.136 44.2935 6.528H43.7415C43.6295 5.84 43.5255 5.296 43.4295 4.896C43.3335 4.48 43.2135 4.128 43.0695 3.84C42.9415 3.552 42.7655 3.264 42.5415 2.976C42.0455 2.32 41.4215 1.848 40.6695 1.56C39.9175 1.256 39.1255 1.104 38.2935 1.104C37.5095 1.104 36.7975 1.304 36.1575 1.704C35.5335 2.088 34.9895 2.648 34.5255 3.384C34.0775 4.12 33.7255 5.008 33.4695 6.048C33.2295 7.088 33.1095 8.256 33.1095 9.552C33.1095 10.896 33.2455 12.088 33.5175 13.128C33.7895 14.152 34.1655 15.016 34.6455 15.72C35.1415 16.424 35.7175 16.96 36.3735 17.328C37.0455 17.68 37.7655 17.856 38.5335 17.856C39.2535 17.856 40.0055 17.712 40.7895 17.424C41.5735 17.136 42.1895 16.672 42.6375 16.032C42.9895 15.568 43.2295 15.064 43.3575 14.52C43.5015 13.976 43.6295 13.216 43.7415 12.24H44.2935C44.2935 13.696 44.3015 14.872 44.3175 15.768C44.3335 16.648 44.3575 17.392 44.3895 18H43.8375C43.7735 17.312 43.6615 16.88 43.5015 16.704C43.3575 16.528 43.1095 16.552 42.7575 16.776C42.1655 17.192 41.5335 17.56 40.8615 17.88C40.2055 18.184 39.3575 18.336 38.3175 18.336C36.7975 18.336 35.4615 17.992 34.3095 17.304C33.1735 16.616 32.2855 15.624 31.6455 14.328C31.0215 13.032 30.7095 11.472 30.7095 9.648C30.7095 7.856 31.0375 6.288 31.6935 4.944C32.3495 3.6 33.2455 2.552 34.3815 1.8C35.5335 1.048 36.8535 0.671999 38.3415 0.671999ZM58.9449 1.008C58.8809 1.568 58.8329 2.112 58.8009 2.64C58.7849 3.168 58.7769 3.568 58.7769 3.84C58.7769 4.128 58.7849 4.408 58.8009 4.68C58.8169 4.936 58.8329 5.152 58.8489 5.328H58.2969C58.2009 4.384 58.0649 3.64 57.8889 3.096C57.7129 2.536 57.4089 2.144 56.9769 1.92C56.5609 1.68 55.9289 1.56 55.0809 1.56H53.0889C52.5449 1.56 52.1289 1.608 51.8409 1.704C51.5689 1.784 51.3849 1.968 51.2889 2.256C51.1929 2.528 51.1449 2.96 51.1449 3.552V15.456C51.1449 16.032 51.1929 16.464 51.2889 16.752C51.3849 17.04 51.5689 17.232 51.8409 17.328C52.1289 17.408 52.5449 17.448 53.0889 17.448H54.8409C55.8489 17.448 56.6089 17.312 57.1209 17.04C57.6489 16.768 58.0249 16.328 58.2489 15.72C58.4889 15.096 58.6649 14.256 58.7769 13.2H59.3289C59.2809 13.632 59.2569 14.208 59.2569 14.928C59.2569 15.232 59.2649 15.672 59.2809 16.248C59.3129 16.808 59.3609 17.392 59.4249 18C58.6089 17.968 57.6889 17.952 56.6649 17.952C55.6409 17.936 54.7289 17.928 53.9289 17.928C53.5769 17.928 53.1209 17.928 52.5609 17.928C52.0169 17.928 51.4249 17.936 50.7849 17.952C50.1449 17.952 49.4969 17.96 48.8409 17.976C48.1849 17.976 47.5609 17.984 46.9689 18V17.52C47.5129 17.488 47.9209 17.424 48.1929 17.328C48.4809 17.232 48.6729 17.04 48.7689 16.752C48.8649 16.464 48.9129 16.032 48.9129 15.456V3.552C48.9129 2.96 48.8649 2.528 48.7689 2.256C48.6729 1.968 48.4809 1.776 48.1929 1.68C47.9209 1.568 47.5129 1.504 46.9689 1.488V1.008C47.5609 1.024 48.1849 1.04 48.8409 1.056C49.4969 1.056 50.1449 1.064 50.7849 1.08C51.4249 1.08 52.0169 1.08 52.5609 1.08C53.1209 1.08 53.5769 1.08 53.9289 1.08C54.6649 1.08 55.4969 1.08 56.4249 1.08C57.3689 1.064 58.2089 1.04 58.9449 1.008ZM54.8169 9.216C54.8169 9.216 54.8169 9.296 54.8169 9.456C54.8169 9.616 54.8169 9.696 54.8169 9.696H50.4249C50.4249 9.696 50.4249 9.616 50.4249 9.456C50.4249 9.296 50.4249 9.216 50.4249 9.216H54.8169ZM55.5129 6.048C55.4489 6.96 55.4169 7.656 55.4169 8.136C55.4329 8.616 55.4409 9.056 55.4409 9.456C55.4409 9.856 55.4489 10.296 55.4649 10.776C55.4809 11.256 55.5209 11.952 55.5849 12.864H55.0329C54.9689 12.352 54.8889 11.856 54.7929 11.376C54.7129 10.88 54.5209 10.48 54.2169 10.176C53.9289 9.856 53.4329 9.696 52.7289 9.696V9.216C53.2569 9.216 53.6569 9.112 53.9289 8.904C54.2169 8.68 54.4249 8.4 54.5529 8.064C54.6809 7.728 54.7689 7.384 54.8169 7.032C54.8649 6.664 54.9129 6.336 54.9609 6.048H55.5129ZM74.7939 1.008C74.7299 1.616 74.6819 2.208 74.6499 2.784C74.6339 3.344 74.6259 3.776 74.6259 4.08C74.6259 4.464 74.6339 4.824 74.6499 5.16C74.6659 5.496 74.6819 5.792 74.6979 6.048H74.1459C74.0339 4.928 73.8819 4.048 73.6899 3.408C73.4979 2.752 73.1619 2.28 72.6819 1.992C72.2019 1.704 71.4579 1.56 70.4499 1.56H69.1539V15.216C69.1539 15.856 69.2099 16.336 69.3219 16.656C69.4499 16.976 69.6899 17.192 70.0419 17.304C70.3939 17.416 70.9059 17.488 71.5779 17.52V18C71.1619 17.968 70.6339 17.952 69.9939 17.952C69.3539 17.936 68.7059 17.928 68.0499 17.928C67.3299 17.928 66.6499 17.936 66.0099 17.952C65.3859 17.952 64.8819 17.968 64.4979 18V17.52C65.1699 17.488 65.6819 17.416 66.0339 17.304C66.3859 17.192 66.6179 16.976 66.7299 16.656C66.8579 16.336 66.9219 15.856 66.9219 15.216V1.56H65.6259C64.6339 1.56 63.8899 1.704 63.3939 1.992C62.9139 2.28 62.5779 2.752 62.3859 3.408C62.1939 4.048 62.0419 4.928 61.9299 6.048H61.3779C61.4099 5.792 61.4259 5.496 61.4259 5.16C61.4419 4.824 61.4499 4.464 61.4499 4.08C61.4499 3.776 61.4339 3.344 61.4019 2.784C61.3859 2.208 61.3459 1.616 61.2819 1.008C61.9539 1.024 62.6819 1.04 63.4659 1.056C64.2659 1.072 65.0659 1.08 65.8659 1.08C66.6659 1.08 67.3939 1.08 68.0499 1.08C68.7059 1.08 69.4259 1.08 70.2099 1.08C71.0099 1.08 71.8099 1.072 72.6099 1.056C73.4099 1.04 74.1379 1.024 74.7939 1.008ZM82.1192 0.887999L87.9752 15.984C88.2152 16.592 88.4872 17 88.7912 17.208C89.0952 17.4 89.3752 17.504 89.6312 17.52V18C89.3112 17.968 88.9192 17.952 88.4552 17.952C87.9912 17.936 87.5272 17.928 87.0632 17.928C86.4392 17.928 85.8552 17.936 85.3112 17.952C84.7672 17.952 84.3272 17.968 83.9912 18V17.52C84.8072 17.488 85.3272 17.352 85.5512 17.112C85.7752 16.856 85.7272 16.32 85.4072 15.504L80.9432 3.576L81.3272 3.264L77.1512 14.112C76.8952 14.752 76.7432 15.296 76.6952 15.744C76.6472 16.176 76.6872 16.52 76.8152 16.776C76.9592 17.032 77.1912 17.216 77.5112 17.328C77.8472 17.44 78.2632 17.504 78.7592 17.52V18C78.3112 17.968 77.8392 17.952 77.3432 17.952C76.8632 17.936 76.4152 17.928 75.9992 17.928C75.5992 17.928 75.2552 17.936 74.9672 17.952C74.6952 17.952 74.4392 17.968 74.1992 18V17.52C74.5192 17.44 74.8472 17.256 75.1832 16.968C75.5192 16.664 75.8232 16.152 76.0952 15.432L81.7352 0.887999C81.7992 0.887999 81.8632 0.887999 81.9272 0.887999C81.9912 0.887999 82.0552 0.887999 82.1192 0.887999ZM85.0472 11.088V11.568H77.8952L78.1352 11.088H85.0472ZM95.6284 0.743999C96.4284 0.743999 97.0364 0.839999 97.4524 1.032C97.8684 1.208 98.2364 1.408 98.5564 1.632C98.7484 1.744 98.9004 1.832 99.0124 1.896C99.1404 1.944 99.2604 1.968 99.3724 1.968C99.5324 1.968 99.6444 1.88 99.7084 1.704C99.7884 1.528 99.8524 1.264 99.9004 0.912H100.452C100.436 1.184 100.412 1.512 100.38 1.896C100.364 2.264 100.348 2.76 100.332 3.384C100.332 3.992 100.332 4.8 100.332 5.808H99.7804C99.7324 5.04 99.5644 4.304 99.2764 3.6C98.9884 2.896 98.5644 2.32 98.0044 1.872C97.4604 1.424 96.7404 1.2 95.8444 1.2C94.9964 1.2 94.2924 1.456 93.7324 1.968C93.1884 2.48 92.9164 3.152 92.9164 3.984C92.9164 4.704 93.1004 5.312 93.4684 5.808C93.8364 6.288 94.3244 6.728 94.9324 7.128C95.5564 7.512 96.2284 7.928 96.9484 8.376C97.7804 8.888 98.5164 9.4 99.1564 9.912C99.8124 10.408 100.324 10.96 100.692 11.568C101.076 12.176 101.268 12.912 101.268 13.776C101.268 14.8 101.036 15.648 100.572 16.32C100.108 16.992 99.4924 17.496 98.7244 17.832C97.9564 18.168 97.1084 18.336 96.1804 18.336C95.3324 18.336 94.6604 18.24 94.1644 18.048C93.6684 17.856 93.2444 17.656 92.8924 17.448C92.5404 17.224 92.2684 17.112 92.0764 17.112C91.9164 17.112 91.7964 17.2 91.7164 17.376C91.6524 17.552 91.5964 17.816 91.5484 18.168H90.9964C91.0284 17.832 91.0444 17.44 91.0444 16.992C91.0604 16.528 91.0684 15.928 91.0684 15.192C91.0844 14.456 91.0924 13.528 91.0924 12.408H91.6444C91.7084 13.368 91.8844 14.264 92.1724 15.096C92.4764 15.928 92.9324 16.6 93.5404 17.112C94.1644 17.608 94.9884 17.856 96.0124 17.856C96.5404 17.856 97.0364 17.752 97.5004 17.544C97.9804 17.32 98.3724 16.976 98.6764 16.512C98.9804 16.032 99.1324 15.416 99.1324 14.664C99.1324 14.008 98.9724 13.44 98.6524 12.96C98.3484 12.464 97.9164 12.008 97.3564 11.592C96.7964 11.16 96.1404 10.72 95.3884 10.272C94.6364 9.808 93.9324 9.336 93.2764 8.856C92.6204 8.376 92.0924 7.824 91.6924 7.2C91.3084 6.56 91.1164 5.792 91.1164 4.896C91.1164 3.952 91.3244 3.176 91.7404 2.568C92.1724 1.944 92.7324 1.488 93.4204 1.2C94.1084 0.895999 94.8444 0.743999 95.6284 0.743999Z" fill="white"/>
</svg>
