<svg width="102" height="19" viewBox="0 0 102 19" fill="none" xmlns="http://www.w3.org/2000/svg">
<path d="M0.508 1.008C0.844 1.024 1.284 1.04 1.828 1.056C2.372 1.072 2.908 1.08 3.436 1.08C4.188 1.08 4.908 1.072 5.596 1.056C6.284 1.04 6.772 1.032 7.06 1.032C8.356 1.032 9.428 1.216 10.276 1.584C11.14 1.952 11.78 2.456 12.196 3.096C12.628 3.72 12.844 4.424 12.844 5.208C12.844 5.688 12.748 6.2 12.556 6.744C12.364 7.288 12.028 7.8 11.548 8.28C11.084 8.76 10.444 9.16 9.628 9.48C8.812 9.784 7.78 9.936 6.532 9.936H4.228V9.456H6.292C7.428 9.456 8.292 9.28 8.884 8.928C9.492 8.56 9.9 8.08 10.108 7.488C10.332 6.88 10.444 6.208 10.444 5.472C10.444 4.208 10.14 3.232 9.532 2.544C8.94 1.84 7.916 1.488 6.46 1.488C5.724 1.488 5.244 1.624 5.02 1.896C4.796 2.168 4.684 2.72 4.684 3.552V15.456C4.684 16.032 4.732 16.464 4.828 16.752C4.924 17.04 5.108 17.232 5.38 17.328C5.668 17.424 6.084 17.488 6.628 17.52V18C6.26 17.968 5.796 17.952 5.236 17.952C4.692 17.936 4.14 17.928 3.58 17.928C2.956 17.928 2.372 17.936 1.828 17.952C1.284 17.952 0.844 17.968 0.508 18V17.52C1.052 17.488 1.46 17.424 1.732 17.328C2.02 17.232 2.212 17.04 2.308 16.752C2.404 16.464 2.452 16.032 2.452 15.456V3.552C2.452 2.96 2.404 2.528 2.308 2.256C2.212 1.968 2.02 1.776 1.732 1.68C1.46 1.568 1.052 1.504 0.508 1.488V1.008ZM4.324 9.528C5.188 9.56 5.868 9.6 6.364 9.648C6.86 9.68 7.26 9.712 7.564 9.744C7.884 9.776 8.188 9.816 8.476 9.864C9.548 10.04 10.316 10.368 10.78 10.848C11.26 11.312 11.612 12.04 11.836 13.032L12.436 15.48C12.596 16.184 12.756 16.696 12.916 17.016C13.092 17.32 13.356 17.464 13.708 17.448C13.98 17.432 14.204 17.344 14.38 17.184C14.572 17.024 14.772 16.808 14.98 16.536L15.34 16.8C15.004 17.296 14.652 17.68 14.284 17.952C13.932 18.208 13.428 18.336 12.772 18.336C12.18 18.336 11.66 18.16 11.212 17.808C10.764 17.456 10.428 16.768 10.204 15.744L9.676 13.344C9.532 12.656 9.364 12.064 9.172 11.568C8.996 11.056 8.74 10.656 8.404 10.368C8.084 10.08 7.604 9.936 6.964 9.936H4.372L4.324 9.528ZM28.0465 1.008C27.9825 1.568 27.9345 2.112 27.9025 2.64C27.8865 3.168 27.8785 3.568 27.8785 3.84C27.8785 4.128 27.8865 4.408 27.9025 4.68C27.9185 4.936 27.9345 5.152 27.9505 5.328H27.3985C27.3025 4.384 27.1665 3.64 26.9905 3.096C26.8145 2.536 26.5105 2.144 26.0785 1.92C25.6625 1.68 25.0305 1.56 24.1825 1.56H22.1905C21.6465 1.56 21.2305 1.608 20.9425 1.704C20.6705 1.784 20.4865 1.968 20.3905 2.256C20.2945 2.528 20.2465 2.96 20.2465 3.552V15.456C20.2465 16.032 20.2945 16.464 20.3905 16.752C20.4865 17.04 20.6705 17.232 20.9425 17.328C21.2305 17.408 21.6465 17.448 22.1905 17.448H23.9425C24.9505 17.448 25.7105 17.312 26.2225 17.04C26.7505 16.768 27.1265 16.328 27.3505 15.72C27.5905 15.096 27.7665 14.256 27.8785 13.2H28.4305C28.3825 13.632 28.3585 14.208 28.3585 14.928C28.3585 15.232 28.3665 15.672 28.3825 16.248C28.4145 16.808 28.4625 17.392 28.5265 18C27.7105 17.968 26.7905 17.952 25.7665 17.952C24.7425 17.936 23.8305 17.928 23.0305 17.928C22.6785 17.928 22.2225 17.928 21.6625 17.928C21.1185 17.928 20.5265 17.936 19.8865 17.952C19.2465 17.952 18.5985 17.96 17.9425 17.976C17.2865 17.976 16.6625 17.984 16.0705 18V17.52C16.6145 17.488 17.0225 17.424 17.2945 17.328C17.5825 17.232 17.7745 17.04 17.8705 16.752C17.9665 16.464 18.0145 16.032 18.0145 15.456V3.552C18.0145 2.96 17.9665 2.528 17.8705 2.256C17.7745 1.968 17.5825 1.776 17.2945 1.68C17.0225 1.568 16.6145 1.504 16.0705 1.488V1.008C16.6625 1.024 17.2865 1.04 17.9425 1.056C18.5985 1.056 19.2465 1.064 19.8865 1.08C20.5265 1.08 21.1185 1.08 21.6625 1.08C22.2225 1.08 22.6785 1.08 23.0305 1.08C23.7665 1.08 24.5985 1.08 25.5265 1.08C26.4705 1.064 27.3105 1.04 28.0465 1.008ZM23.9185 9.216C23.9185 9.216 23.9185 9.296 23.9185 9.456C23.9185 9.616 23.9185 9.696 23.9185 9.696H19.5265C19.5265 9.696 19.5265 9.616 19.5265 9.456C19.5265 9.296 19.5265 9.216 19.5265 9.216H23.9185ZM24.6145 6.048C24.5505 6.96 24.5185 7.656 24.5185 8.136C24.5345 8.616 24.5425 9.056 24.5425 9.456C24.5425 9.856 24.5505 10.296 24.5665 10.776C24.5825 11.256 24.6225 11.952 24.6865 12.864H24.1345C24.0705 12.352 23.9905 11.856 23.8945 11.376C23.8145 10.88 23.6225 10.48 23.3185 10.176C23.0305 9.856 22.5345 9.696 21.8305 9.696V9.216C22.3585 9.216 22.7585 9.112 23.0305 8.904C23.3185 8.68 23.5265 8.4 23.6545 8.064C23.7825 7.728 23.8705 7.384 23.9185 7.032C23.9665 6.664 24.0145 6.336 24.0625 6.048H24.6145ZM38.5915 0.671999C39.6475 0.671999 40.5115 0.831999 41.1835 1.152C41.8715 1.456 42.4795 1.816 43.0075 2.232C43.3275 2.472 43.5675 2.504 43.7275 2.328C43.9035 2.136 44.0235 1.696 44.0875 1.008H44.6395C44.6075 1.6 44.5835 2.32 44.5675 3.168C44.5515 4.016 44.5435 5.136 44.5435 6.528H43.9915C43.8795 5.84 43.7755 5.296 43.6795 4.896C43.5835 4.48 43.4635 4.128 43.3195 3.84C43.1915 3.552 43.0155 3.264 42.7915 2.976C42.2955 2.32 41.6715 1.848 40.9195 1.56C40.1675 1.256 39.3755 1.104 38.5435 1.104C37.7595 1.104 37.0475 1.304 36.4075 1.704C35.7835 2.088 35.2395 2.648 34.7755 3.384C34.3275 4.12 33.9755 5.008 33.7195 6.048C33.4795 7.088 33.3595 8.256 33.3595 9.552C33.3595 10.896 33.4955 12.088 33.7675 13.128C34.0395 14.152 34.4155 15.016 34.8955 15.72C35.3915 16.424 35.9675 16.96 36.6235 17.328C37.2955 17.68 38.0155 17.856 38.7835 17.856C39.5035 17.856 40.2555 17.712 41.0395 17.424C41.8235 17.136 42.4395 16.672 42.8875 16.032C43.2395 15.568 43.4795 15.064 43.6075 14.52C43.7515 13.976 43.8795 13.216 43.9915 12.24H44.5435C44.5435 13.696 44.5515 14.872 44.5675 15.768C44.5835 16.648 44.6075 17.392 44.6395 18H44.0875C44.0235 17.312 43.9115 16.88 43.7515 16.704C43.6075 16.528 43.3595 16.552 43.0075 16.776C42.4155 17.192 41.7835 17.56 41.1115 17.88C40.4555 18.184 39.6075 18.336 38.5675 18.336C37.0475 18.336 35.7115 17.992 34.5595 17.304C33.4235 16.616 32.5355 15.624 31.8955 14.328C31.2715 13.032 30.9595 11.472 30.9595 9.648C30.9595 7.856 31.2875 6.288 31.9435 4.944C32.5995 3.6 33.4955 2.552 34.6315 1.8C35.7835 1.048 37.1035 0.671999 38.5915 0.671999ZM59.1949 1.008C59.1309 1.568 59.0829 2.112 59.0509 2.64C59.0349 3.168 59.0269 3.568 59.0269 3.84C59.0269 4.128 59.0349 4.408 59.0509 4.68C59.0669 4.936 59.0829 5.152 59.0989 5.328H58.5469C58.4509 4.384 58.3149 3.64 58.1389 3.096C57.9629 2.536 57.6589 2.144 57.2269 1.92C56.8109 1.68 56.1789 1.56 55.3309 1.56H53.3389C52.7949 1.56 52.3789 1.608 52.0909 1.704C51.8189 1.784 51.6349 1.968 51.5389 2.256C51.4429 2.528 51.3949 2.96 51.3949 3.552V15.456C51.3949 16.032 51.4429 16.464 51.5389 16.752C51.6349 17.04 51.8189 17.232 52.0909 17.328C52.3789 17.408 52.7949 17.448 53.3389 17.448H55.0909C56.0989 17.448 56.8589 17.312 57.3709 17.04C57.8989 16.768 58.2749 16.328 58.4989 15.72C58.7389 15.096 58.9149 14.256 59.0269 13.2H59.5789C59.5309 13.632 59.5069 14.208 59.5069 14.928C59.5069 15.232 59.5149 15.672 59.5309 16.248C59.5629 16.808 59.6109 17.392 59.6749 18C58.8589 17.968 57.9389 17.952 56.9149 17.952C55.8909 17.936 54.9789 17.928 54.1789 17.928C53.8269 17.928 53.3709 17.928 52.8109 17.928C52.2669 17.928 51.6749 17.936 51.0349 17.952C50.3949 17.952 49.7469 17.96 49.0909 17.976C48.4349 17.976 47.8109 17.984 47.2189 18V17.52C47.7629 17.488 48.1709 17.424 48.4429 17.328C48.7309 17.232 48.9229 17.04 49.0189 16.752C49.1149 16.464 49.1629 16.032 49.1629 15.456V3.552C49.1629 2.96 49.1149 2.528 49.0189 2.256C48.9229 1.968 48.7309 1.776 48.4429 1.68C48.1709 1.568 47.7629 1.504 47.2189 1.488V1.008C47.8109 1.024 48.4349 1.04 49.0909 1.056C49.7469 1.056 50.3949 1.064 51.0349 1.08C51.6749 1.08 52.2669 1.08 52.8109 1.08C53.3709 1.08 53.8269 1.08 54.1789 1.08C54.9149 1.08 55.7469 1.08 56.6749 1.08C57.6189 1.064 58.4589 1.04 59.1949 1.008ZM55.0669 9.216C55.0669 9.216 55.0669 9.296 55.0669 9.456C55.0669 9.616 55.0669 9.696 55.0669 9.696H50.6749C50.6749 9.696 50.6749 9.616 50.6749 9.456C50.6749 9.296 50.6749 9.216 50.6749 9.216H55.0669ZM55.7629 6.048C55.6989 6.96 55.6669 7.656 55.6669 8.136C55.6829 8.616 55.6909 9.056 55.6909 9.456C55.6909 9.856 55.6989 10.296 55.7149 10.776C55.7309 11.256 55.7709 11.952 55.8349 12.864H55.2829C55.2189 12.352 55.1389 11.856 55.0429 11.376C54.9629 10.88 54.7709 10.48 54.4669 10.176C54.1789 9.856 53.6829 9.696 52.9789 9.696V9.216C53.5069 9.216 53.9069 9.112 54.1789 8.904C54.4669 8.68 54.6749 8.4 54.8029 8.064C54.9309 7.728 55.0189 7.384 55.0669 7.032C55.1149 6.664 55.1629 6.336 55.2109 6.048H55.7629ZM75.0439 1.008C74.9799 1.616 74.9319 2.208 74.8999 2.784C74.8839 3.344 74.8759 3.776 74.8759 4.08C74.8759 4.464 74.8839 4.824 74.8999 5.16C74.9159 5.496 74.9319 5.792 74.9479 6.048H74.3959C74.2839 4.928 74.1319 4.048 73.9399 3.408C73.7479 2.752 73.4119 2.28 72.9319 1.992C72.4519 1.704 71.7079 1.56 70.6999 1.56H69.4039V15.216C69.4039 15.856 69.4599 16.336 69.5719 16.656C69.6999 16.976 69.9399 17.192 70.2919 17.304C70.6439 17.416 71.1559 17.488 71.8279 17.52V18C71.4119 17.968 70.8839 17.952 70.2439 17.952C69.6039 17.936 68.9559 17.928 68.2999 17.928C67.5799 17.928 66.8999 17.936 66.2599 17.952C65.6359 17.952 65.1319 17.968 64.7479 18V17.52C65.4199 17.488 65.9319 17.416 66.2839 17.304C66.6359 17.192 66.8679 16.976 66.9799 16.656C67.1079 16.336 67.1719 15.856 67.1719 15.216V1.56H65.8759C64.8839 1.56 64.1399 1.704 63.6439 1.992C63.1639 2.28 62.8279 2.752 62.6359 3.408C62.4439 4.048 62.2919 4.928 62.1799 6.048H61.6279C61.6599 5.792 61.6759 5.496 61.6759 5.16C61.6919 4.824 61.6999 4.464 61.6999 4.08C61.6999 3.776 61.6839 3.344 61.6519 2.784C61.6359 2.208 61.5959 1.616 61.5319 1.008C62.2039 1.024 62.9319 1.04 63.7159 1.056C64.5159 1.072 65.3159 1.08 66.1159 1.08C66.9159 1.08 67.6439 1.08 68.2999 1.08C68.9559 1.08 69.6759 1.08 70.4599 1.08C71.2599 1.08 72.0599 1.072 72.8599 1.056C73.6599 1.04 74.3879 1.024 75.0439 1.008ZM82.3692 0.887999L88.2252 15.984C88.4652 16.592 88.7372 17 89.0412 17.208C89.3452 17.4 89.6252 17.504 89.8812 17.52V18C89.5612 17.968 89.1692 17.952 88.7052 17.952C88.2412 17.936 87.7772 17.928 87.3132 17.928C86.6892 17.928 86.1052 17.936 85.5612 17.952C85.0172 17.952 84.5772 17.968 84.2412 18V17.52C85.0572 17.488 85.5772 17.352 85.8012 17.112C86.0252 16.856 85.9772 16.32 85.6572 15.504L81.1932 3.576L81.5772 3.264L77.4012 14.112C77.1452 14.752 76.9932 15.296 76.9452 15.744C76.8972 16.176 76.9372 16.52 77.0652 16.776C77.2092 17.032 77.4412 17.216 77.7612 17.328C78.0972 17.44 78.5132 17.504 79.0092 17.52V18C78.5612 17.968 78.0892 17.952 77.5932 17.952C77.1132 17.936 76.6652 17.928 76.2492 17.928C75.8492 17.928 75.5052 17.936 75.2172 17.952C74.9452 17.952 74.6892 17.968 74.4492 18V17.52C74.7692 17.44 75.0972 17.256 75.4332 16.968C75.7692 16.664 76.0732 16.152 76.3452 15.432L81.9852 0.887999C82.0492 0.887999 82.1132 0.887999 82.1772 0.887999C82.2412 0.887999 82.3052 0.887999 82.3692 0.887999ZM85.2972 11.088V11.568H78.1452L78.3852 11.088H85.2972ZM95.8784 0.743999C96.6784 0.743999 97.2864 0.839999 97.7024 1.032C98.1184 1.208 98.4864 1.408 98.8064 1.632C98.9984 1.744 99.1504 1.832 99.2624 1.896C99.3904 1.944 99.5104 1.968 99.6224 1.968C99.7824 1.968 99.8944 1.88 99.9584 1.704C100.038 1.528 100.102 1.264 100.15 0.912H100.702C100.686 1.184 100.662 1.512 100.63 1.896C100.614 2.264 100.598 2.76 100.582 3.384C100.582 3.992 100.582 4.8 100.582 5.808H100.03C99.9824 5.04 99.8144 4.304 99.5264 3.6C99.2384 2.896 98.8144 2.32 98.2544 1.872C97.7104 1.424 96.9904 1.2 96.0944 1.2C95.2464 1.2 94.5424 1.456 93.9824 1.968C93.4384 2.48 93.1664 3.152 93.1664 3.984C93.1664 4.704 93.3504 5.312 93.7184 5.808C94.0864 6.288 94.5744 6.728 95.1824 7.128C95.8064 7.512 96.4784 7.928 97.1984 8.376C98.0304 8.888 98.7664 9.4 99.4064 9.912C100.062 10.408 100.574 10.96 100.942 11.568C101.326 12.176 101.518 12.912 101.518 13.776C101.518 14.8 101.286 15.648 100.822 16.32C100.358 16.992 99.7424 17.496 98.9744 17.832C98.2064 18.168 97.3584 18.336 96.4304 18.336C95.5824 18.336 94.9104 18.24 94.4144 18.048C93.9184 17.856 93.4944 17.656 93.1424 17.448C92.7904 17.224 92.5184 17.112 92.3264 17.112C92.1664 17.112 92.0464 17.2 91.9664 17.376C91.9024 17.552 91.8464 17.816 91.7984 18.168H91.2464C91.2784 17.832 91.2944 17.44 91.2944 16.992C91.3104 16.528 91.3184 15.928 91.3184 15.192C91.3344 14.456 91.3424 13.528 91.3424 12.408H91.8944C91.9584 13.368 92.1344 14.264 92.4224 15.096C92.7264 15.928 93.1824 16.6 93.7904 17.112C94.4144 17.608 95.2384 17.856 96.2624 17.856C96.7904 17.856 97.2864 17.752 97.7504 17.544C98.2304 17.32 98.6224 16.976 98.9264 16.512C99.2304 16.032 99.3824 15.416 99.3824 14.664C99.3824 14.008 99.2224 13.44 98.9024 12.96C98.5984 12.464 98.1664 12.008 97.6064 11.592C97.0464 11.16 96.3904 10.72 95.6384 10.272C94.8864 9.808 94.1824 9.336 93.5264 8.856C92.8704 8.376 92.3424 7.824 91.9424 7.2C91.5584 6.56 91.3664 5.792 91.3664 4.896C91.3664 3.952 91.5744 3.176 91.9904 2.568C92.4224 1.944 92.9824 1.488 93.6704 1.2C94.3584 0.895999 95.0944 0.743999 95.8784 0.743999Z" fill="#C39D7F"/>
</svg>
