<svg width="177" height="55" viewBox="0 0 177 55" fill="none" xmlns="http://www.w3.org/2000/svg">
<rect x="1" y="1" width="174.621" height="53.4976" fill="#D9D9D9" stroke="black"/>
<path d="M44.7378 32.9794H40.7698V32.5154C40.9831 32.43 41.1964 32.3607 41.4098 32.3074C41.6231 32.2434 41.8418 32.1847 42.0658 32.1314V24.9314L42.1298 23.0594H42.0018L41.4738 24.7714L38.1938 32.9794H37.7778L34.6578 24.7714L34.0818 22.8994H33.9378L33.9538 24.9314V32.1314C34.1564 32.174 34.3591 32.2274 34.5618 32.2914C34.7644 32.3554 34.9671 32.43 35.1698 32.5154V32.9794H31.8258V32.5154C32.0284 32.43 32.2364 32.3554 32.4498 32.2914C32.6738 32.2167 32.8978 32.158 33.1218 32.1154V22.6434C32.8978 22.6007 32.6738 22.5474 32.4498 22.4834C32.2364 22.4087 32.0231 22.3287 31.8098 22.2434V21.7794H35.0898L37.8738 29.0914L38.4178 30.7394H38.4338L38.9778 29.0594L41.8578 21.7794H44.7538V22.2434C44.5618 22.3287 44.3644 22.4087 44.1618 22.4834C43.9591 22.5474 43.7511 22.6007 43.5378 22.6434V32.1474C43.7618 32.19 43.9698 32.2434 44.1618 32.3074C44.3644 32.3607 44.5564 32.43 44.7378 32.5154V32.9794ZM46.0688 27.3794C46.0688 26.5474 46.1808 25.7794 46.4048 25.0754C46.6394 24.3607 46.9701 23.7474 47.3968 23.2354C47.8341 22.7127 48.3674 22.3074 48.9968 22.0194C49.6261 21.7314 50.3408 21.5874 51.1408 21.5874C51.9408 21.5874 52.6554 21.7314 53.2848 22.0194C53.9141 22.3074 54.4421 22.7127 54.8688 23.2354C55.3061 23.7474 55.6368 24.3607 55.8608 25.0754C56.0954 25.7794 56.2128 26.5474 56.2128 27.3794C56.2128 28.2114 56.0954 28.9847 55.8608 29.6994C55.6368 30.4034 55.3061 31.0167 54.8688 31.5394C54.4421 32.0514 53.9141 32.4514 53.2848 32.7394C52.6554 33.0274 51.9408 33.1714 51.1408 33.1714C50.3408 33.1714 49.6261 33.0274 48.9968 32.7394C48.3674 32.4514 47.8341 32.0514 47.3968 31.5394C46.9701 31.0167 46.6394 30.4034 46.4048 29.6994C46.1808 28.9847 46.0688 28.2114 46.0688 27.3794ZM47.7808 27.3794C47.7808 28.062 47.8501 28.7074 47.9888 29.3154C48.1381 29.9127 48.3568 30.4354 48.6448 30.8834C48.9328 31.3314 49.2954 31.6887 49.7328 31.9554C50.1701 32.2114 50.6874 32.3394 51.2848 32.3394C51.8288 32.3394 52.3034 32.2114 52.7088 31.9554C53.1141 31.6887 53.4448 31.3314 53.7008 30.8834C53.9674 30.4354 54.1648 29.9127 54.2928 29.3154C54.4314 28.7074 54.5008 28.062 54.5008 27.3794C54.5008 26.6967 54.4314 26.0567 54.2928 25.4594C54.1541 24.8514 53.9408 24.3234 53.6528 23.8754C53.3648 23.4274 53.0021 23.0754 52.5648 22.8194C52.1274 22.5527 51.6101 22.4194 51.0128 22.4194C50.4261 22.4194 49.9248 22.5527 49.5088 22.8194C49.1034 23.0754 48.7728 23.4274 48.5168 23.8754C48.2608 24.3234 48.0741 24.8514 47.9568 25.4594C47.8394 26.0567 47.7808 26.6967 47.7808 27.3794ZM59.4645 31.8754C59.5925 32.0034 59.7579 32.1154 59.9605 32.2114C60.1632 32.2967 60.4672 32.3394 60.8725 32.3394C61.2139 32.3394 61.5339 32.2967 61.8325 32.2114C62.1312 32.1154 62.3872 31.982 62.6005 31.8114C62.8245 31.63 63.0005 31.4167 63.1285 31.1714C63.2565 30.9154 63.3205 30.6274 63.3205 30.3074C63.3205 29.8807 63.1872 29.5234 62.9205 29.2354C62.6645 28.9474 62.3392 28.6914 61.9445 28.4674C61.5605 28.2434 61.1392 28.0247 60.6805 27.8114C60.2219 27.598 59.7952 27.3474 59.4005 27.0594C59.0165 26.7607 58.6912 26.4087 58.4245 26.0034C58.1685 25.5874 58.0405 25.07 58.0405 24.4514C58.0405 24.0034 58.1205 23.6034 58.2805 23.2514C58.4405 22.8994 58.6645 22.6007 58.9525 22.3554C59.2512 22.11 59.6032 21.9234 60.0085 21.7954C60.4139 21.6567 60.8672 21.5874 61.3685 21.5874C62.0192 21.5874 62.6112 21.6407 63.1445 21.7474C63.6885 21.8434 64.1152 21.966 64.4245 22.1154C64.4245 22.2967 64.4085 22.51 64.3765 22.7554C64.3552 22.99 64.3232 23.2354 64.2805 23.4914C64.2485 23.7474 64.2112 23.998 64.1685 24.2434C64.1259 24.478 64.0832 24.686 64.0405 24.8674H63.6245L62.9845 22.6754C62.7925 22.59 62.5472 22.526 62.2485 22.4834C61.9605 22.4407 61.6512 22.4194 61.3205 22.4194C60.7765 22.4194 60.3392 22.574 60.0085 22.8834C59.6779 23.182 59.5125 23.6034 59.5125 24.1474C59.5125 24.5847 59.6405 24.9527 59.8965 25.2514C60.1632 25.55 60.4939 25.8167 60.8885 26.0514C61.2832 26.286 61.7045 26.5154 62.1525 26.7394C62.6112 26.9527 63.0379 27.2034 63.4325 27.4914C63.8272 27.7794 64.1525 28.1207 64.4085 28.5154C64.6752 28.91 64.8085 29.4007 64.8085 29.9874C64.8085 30.4674 64.7179 30.9047 64.5365 31.2994C64.3659 31.694 64.1152 32.03 63.7845 32.3074C63.4539 32.5847 63.0485 32.798 62.5685 32.9474C62.0885 33.0967 61.5445 33.1714 60.9365 33.1714C60.2645 33.1714 59.6619 33.0914 59.1285 32.9314C58.5952 32.7714 58.2165 32.6007 57.9925 32.4194C58.0032 32.238 58.0192 32.0194 58.0405 31.7634C58.0725 31.5074 58.1045 31.246 58.1365 30.9794C58.1792 30.702 58.2219 30.4354 58.2645 30.1794C58.3072 29.9234 58.3499 29.7047 58.3925 29.5234H58.8085L59.4645 31.8754ZM72.8426 32.9794H68.3466V32.5154C68.5813 32.43 68.816 32.3554 69.0506 32.2914C69.296 32.2274 69.5573 32.174 69.8346 32.1314V22.6114H67.3866L66.5386 24.8994H66.1386C66.1066 24.686 66.08 24.446 66.0586 24.1794C66.0373 23.902 66.016 23.6247 65.9946 23.3474C65.984 23.0594 65.9733 22.782 65.9626 22.5154C65.952 22.238 65.9466 21.9927 65.9466 21.7794H75.2426C75.2426 21.9927 75.2373 22.2327 75.2266 22.4994C75.216 22.766 75.2 23.0434 75.1786 23.3314C75.168 23.6087 75.152 23.886 75.1306 24.1634C75.12 24.43 75.0986 24.6754 75.0666 24.8994H74.6506L73.8186 22.6114H71.3706V32.1314C71.648 32.1847 71.904 32.238 72.1386 32.2914C72.384 32.3447 72.6186 32.4194 72.8426 32.5154V32.9794ZM78.8609 32.1314C79.1062 32.1847 79.3409 32.2434 79.5649 32.3074C79.7889 32.3607 80.0076 32.43 80.2209 32.5154V32.9794H76.0129V32.5154C76.2476 32.4087 76.4716 32.3287 76.6849 32.2754C76.8982 32.222 77.1116 32.174 77.3249 32.1314V22.6434C77.0476 22.59 76.8022 22.5314 76.5889 22.4674C76.3756 22.3927 76.1836 22.318 76.0129 22.2434V21.7794H77.4209C77.8476 21.7794 78.3116 21.758 78.8129 21.7154C79.3249 21.6727 79.8209 21.6514 80.3009 21.6514C80.8236 21.6514 81.3089 21.71 81.7569 21.8274C82.2156 21.9447 82.6102 22.1314 82.9409 22.3874C83.2716 22.6434 83.5276 22.9687 83.7089 23.3634C83.9009 23.758 83.9969 24.2327 83.9969 24.7874C83.9969 25.566 83.7889 26.2114 83.3729 26.7234C82.9676 27.2354 82.4129 27.6034 81.7089 27.8274C82.1676 28.5527 82.6476 29.2727 83.1489 29.9874C83.6502 30.702 84.1729 31.4114 84.7169 32.1154L85.5809 32.5794V32.9794H83.6449L83.0369 32.5314C82.7382 32.158 82.4662 31.7954 82.2209 31.4434C81.9756 31.0807 81.7462 30.718 81.5329 30.3554C81.3196 29.982 81.1169 29.6087 80.9249 29.2354C80.7436 28.8514 80.5569 28.446 80.3649 28.0194H78.8609V32.1314ZM79.9489 22.4834C79.6929 22.4834 79.4796 22.4887 79.3089 22.4994C79.1489 22.51 78.9996 22.5314 78.8609 22.5634V27.3474H80.0129C80.7489 27.3474 81.3302 27.1127 81.7569 26.6434C82.1942 26.174 82.4129 25.5554 82.4129 24.7874C82.4129 23.998 82.1836 23.4167 81.7249 23.0434C81.2662 22.67 80.6742 22.4834 79.9489 22.4834ZM89.2884 32.9794H85.7364V32.5154C86.1204 32.3447 86.5044 32.2167 86.8884 32.1314L90.9364 21.5874H91.4004L95.4484 32.1314C95.6617 32.174 95.8697 32.222 96.0724 32.2754C96.2857 32.3287 96.4831 32.4087 96.6644 32.5154V32.9794H92.5684V32.5154C92.7817 32.43 93.0004 32.3554 93.2244 32.2914C93.4484 32.2274 93.6671 32.174 93.8804 32.1314L92.7924 29.2034H88.9684L87.9124 32.1314C88.3604 32.1954 88.8191 32.3234 89.2884 32.5154V32.9794ZM89.2884 28.3714H92.5204L91.2564 24.9794L90.9524 23.6034H90.9204L90.5204 25.0114L89.2884 28.3714ZM99.9703 32.1314C100.216 32.1847 100.45 32.2434 100.674 32.3074C100.898 32.3607 101.117 32.43 101.33 32.5154V32.9794H97.1223V32.5154C97.3569 32.4087 97.5809 32.3287 97.7943 32.2754C98.0076 32.222 98.2209 32.174 98.4343 32.1314V22.6434C98.1569 22.59 97.9116 22.5314 97.6983 22.4674C97.4849 22.3927 97.2929 22.318 97.1223 22.2434V21.7794H98.5303C98.9569 21.7794 99.4209 21.758 99.9223 21.7154C100.434 21.6727 100.93 21.6514 101.41 21.6514C101.933 21.6514 102.418 21.71 102.866 21.8274C103.325 21.9447 103.72 22.1314 104.05 22.3874C104.381 22.6434 104.637 22.9687 104.818 23.3634C105.01 23.758 105.106 24.2327 105.106 24.7874C105.106 25.566 104.898 26.2114 104.482 26.7234C104.077 27.2354 103.522 27.6034 102.818 27.8274C103.277 28.5527 103.757 29.2727 104.258 29.9874C104.76 30.702 105.282 31.4114 105.826 32.1154L106.69 32.5794V32.9794H104.754L104.146 32.5314C103.848 32.158 103.576 31.7954 103.33 31.4434C103.085 31.0807 102.856 30.718 102.642 30.3554C102.429 29.982 102.226 29.6087 102.034 29.2354C101.853 28.8514 101.666 28.446 101.474 28.0194H99.9703V32.1314ZM101.058 22.4834C100.802 22.4834 100.589 22.4887 100.418 22.4994C100.258 22.51 100.109 22.5314 99.9703 22.5634V27.3474H101.122C101.858 27.3474 102.44 27.1127 102.866 26.6434C103.304 26.174 103.522 25.5554 103.522 24.7874C103.522 23.998 103.293 23.4167 102.834 23.0434C102.376 22.67 101.784 22.4834 101.058 22.4834ZM124.128 32.9794H120.16V32.5154C120.374 32.43 120.587 32.3607 120.8 32.3074C121.014 32.2434 121.232 32.1847 121.456 32.1314V24.9314L121.52 23.0594H121.392L120.864 24.7714L117.584 32.9794H117.168L114.048 24.7714L113.472 22.8994H113.328L113.344 24.9314V32.1314C113.547 32.174 113.75 32.2274 113.952 32.2914C114.155 32.3554 114.358 32.43 114.56 32.5154V32.9794H111.216V32.5154C111.419 32.43 111.627 32.3554 111.84 32.2914C112.064 32.2167 112.288 32.158 112.512 32.1154V22.6434C112.288 22.6007 112.064 22.5474 111.84 22.4834C111.627 22.4087 111.414 22.3287 111.2 22.2434V21.7794H114.48L117.264 29.0914L117.808 30.7394H117.824L118.368 29.0594L121.248 21.7794H124.144V22.2434C123.952 22.3287 123.755 22.4087 123.552 22.4834C123.35 22.5474 123.142 22.6007 122.928 22.6434V32.1474C123.152 32.19 123.36 32.2434 123.552 32.3074C123.755 32.3607 123.947 32.43 124.128 32.5154V32.9794ZM128.163 32.9794H124.611V32.5154C124.995 32.3447 125.379 32.2167 125.763 32.1314L129.811 21.5874H130.275L134.323 32.1314C134.537 32.174 134.745 32.222 134.947 32.2754C135.161 32.3287 135.358 32.4087 135.539 32.5154V32.9794H131.443V32.5154C131.657 32.43 131.875 32.3554 132.099 32.2914C132.323 32.2274 132.542 32.174 132.755 32.1314L131.667 29.2034H127.843L126.787 32.1314C127.235 32.1954 127.694 32.3234 128.163 32.5154V32.9794ZM128.163 28.3714H131.395L130.131 24.9794L129.827 23.6034H129.795L129.395 25.0114L128.163 28.3714ZM131.827 18.6914C131.923 18.6807 132.046 18.686 132.195 18.7074C132.345 18.7287 132.494 18.766 132.643 18.8194C132.803 18.862 132.947 18.9207 133.075 18.9954C133.214 19.0594 133.315 19.1287 133.379 19.2034V19.5234L129.763 20.9794L129.491 20.6754L131.827 18.6914ZM137.933 31.8754C138.061 32.0034 138.227 32.1154 138.429 32.2114C138.632 32.2967 138.936 32.3394 139.341 32.3394C139.683 32.3394 140.003 32.2967 140.301 32.2114C140.6 32.1154 140.856 31.982 141.069 31.8114C141.293 31.63 141.469 31.4167 141.597 31.1714C141.725 30.9154 141.789 30.6274 141.789 30.3074C141.789 29.8807 141.656 29.5234 141.389 29.2354C141.133 28.9474 140.808 28.6914 140.413 28.4674C140.029 28.2434 139.608 28.0247 139.149 27.8114C138.691 27.598 138.264 27.3474 137.869 27.0594C137.485 26.7607 137.16 26.4087 136.893 26.0034C136.637 25.5874 136.509 25.07 136.509 24.4514C136.509 24.0034 136.589 23.6034 136.749 23.2514C136.909 22.8994 137.133 22.6007 137.421 22.3554C137.72 22.11 138.072 21.9234 138.477 21.7954C138.883 21.6567 139.336 21.5874 139.837 21.5874C140.488 21.5874 141.08 21.6407 141.613 21.7474C142.157 21.8434 142.584 21.966 142.893 22.1154C142.893 22.2967 142.877 22.51 142.845 22.7554C142.824 22.99 142.792 23.2354 142.749 23.4914C142.717 23.7474 142.68 23.998 142.637 24.2434C142.595 24.478 142.552 24.686 142.509 24.8674H142.093L141.453 22.6754C141.261 22.59 141.016 22.526 140.717 22.4834C140.429 22.4407 140.12 22.4194 139.789 22.4194C139.245 22.4194 138.808 22.574 138.477 22.8834C138.147 23.182 137.981 23.6034 137.981 24.1474C137.981 24.5847 138.109 24.9527 138.365 25.2514C138.632 25.55 138.963 25.8167 139.357 26.0514C139.752 26.286 140.173 26.5154 140.621 26.7394C141.08 26.9527 141.507 27.2034 141.901 27.4914C142.296 27.7794 142.621 28.1207 142.877 28.5154C143.144 28.91 143.277 29.4007 143.277 29.9874C143.277 30.4674 143.187 30.9047 143.005 31.2994C142.835 31.694 142.584 32.03 142.253 32.3074C141.923 32.5847 141.517 32.798 141.037 32.9474C140.557 33.0967 140.013 33.1714 139.405 33.1714C138.733 33.1714 138.131 33.0914 137.597 32.9314C137.064 32.7714 136.685 32.6007 136.461 32.4194C136.472 32.238 136.488 32.0194 136.509 31.7634C136.541 31.5074 136.573 31.246 136.605 30.9794C136.648 30.702 136.691 30.4354 136.733 30.1794C136.776 29.9234 136.819 29.7047 136.861 29.5234H137.277L137.933 31.8754Z" fill="black"/>
</svg>
