<svg width="150" height="50" viewBox="0 0 150 50" fill="none" xmlns="http://www.w3.org/2000/svg">
<rect width="150" height="50" fill="#D9D9D9"/>
<path d="M31.5092 31H27.5412V30.536C27.7545 30.4507 27.9679 30.3813 28.1812 30.328C28.3945 30.264 28.6132 30.2053 28.8372 30.152V22.952L28.9012 21.08H28.7732L28.2452 22.792L24.9652 31H24.5492L21.4292 22.792L20.8532 20.92H20.7092L20.7252 22.952V30.152C20.9279 30.1947 21.1305 30.248 21.3332 30.312C21.5359 30.376 21.7385 30.4507 21.9412 30.536V31H18.5972V30.536C18.7999 30.4507 19.0079 30.376 19.2212 30.312C19.4452 30.2373 19.6692 30.1787 19.8932 30.136V20.664C19.6692 20.6213 19.4452 20.568 19.2212 20.504C19.0079 20.4293 18.7945 20.3493 18.5812 20.264V19.8H21.8612L24.6452 27.112L25.1892 28.76H25.2052L25.7492 27.08L28.6292 19.8H31.5252V20.264C31.3332 20.3493 31.1359 20.4293 30.9332 20.504C30.7305 20.568 30.5225 20.6213 30.3092 20.664V30.168C30.5332 30.2107 30.7412 30.264 30.9332 30.328C31.1359 30.3813 31.3279 30.4507 31.5092 30.536V31ZM32.8402 25.4C32.8402 24.568 32.9522 23.8 33.1762 23.096C33.4109 22.3813 33.7415 21.768 34.1682 21.256C34.6055 20.7333 35.1389 20.328 35.7682 20.04C36.3975 19.752 37.1122 19.608 37.9122 19.608C38.7122 19.608 39.4269 19.752 40.0562 20.04C40.6855 20.328 41.2135 20.7333 41.6402 21.256C42.0775 21.768 42.4082 22.3813 42.6322 23.096C42.8669 23.8 42.9842 24.568 42.9842 25.4C42.9842 26.232 42.8669 27.0053 42.6322 27.72C42.4082 28.424 42.0775 29.0373 41.6402 29.56C41.2135 30.072 40.6855 30.472 40.0562 30.76C39.4269 31.048 38.7122 31.192 37.9122 31.192C37.1122 31.192 36.3975 31.048 35.7682 30.76C35.1389 30.472 34.6055 30.072 34.1682 29.56C33.7415 29.0373 33.4109 28.424 33.1762 27.72C32.9522 27.0053 32.8402 26.232 32.8402 25.4ZM34.5522 25.4C34.5522 26.0827 34.6215 26.728 34.7602 27.336C34.9095 27.9333 35.1282 28.456 35.4162 28.904C35.7042 29.352 36.0669 29.7093 36.5042 29.976C36.9415 30.232 37.4589 30.36 38.0562 30.36C38.6002 30.36 39.0749 30.232 39.4802 29.976C39.8855 29.7093 40.2162 29.352 40.4722 28.904C40.7389 28.456 40.9362 27.9333 41.0642 27.336C41.2029 26.728 41.2722 26.0827 41.2722 25.4C41.2722 24.7173 41.2029 24.0773 41.0642 23.48C40.9255 22.872 40.7122 22.344 40.4242 21.896C40.1362 21.448 39.7735 21.096 39.3362 20.84C38.8989 20.5733 38.3815 20.44 37.7842 20.44C37.1975 20.44 36.6962 20.5733 36.2802 20.84C35.8749 21.096 35.5442 21.448 35.2882 21.896C35.0322 22.344 34.8455 22.872 34.7282 23.48C34.6109 24.0773 34.5522 24.7173 34.5522 25.4ZM46.2359 29.896C46.3639 30.024 46.5293 30.136 46.7319 30.232C46.9346 30.3173 47.2386 30.36 47.6439 30.36C47.9853 30.36 48.3053 30.3173 48.6039 30.232C48.9026 30.136 49.1586 30.0027 49.3719 29.832C49.5959 29.6507 49.7719 29.4373 49.8999 29.192C50.0279 28.936 50.0919 28.648 50.0919 28.328C50.0919 27.9013 49.9586 27.544 49.6919 27.256C49.4359 26.968 49.1106 26.712 48.7159 26.488C48.3319 26.264 47.9106 26.0453 47.4519 25.832C46.9933 25.6187 46.5666 25.368 46.1719 25.08C45.7879 24.7813 45.4626 24.4293 45.1959 24.024C44.9399 23.608 44.8119 23.0907 44.8119 22.472C44.8119 22.024 44.8919 21.624 45.0519 21.272C45.2119 20.92 45.4359 20.6213 45.7239 20.376C46.0226 20.1307 46.3746 19.944 46.7799 19.816C47.1853 19.6773 47.6386 19.608 48.1399 19.608C48.7906 19.608 49.3826 19.6613 49.9159 19.768C50.4599 19.864 50.8866 19.9867 51.1959 20.136C51.1959 20.3173 51.1799 20.5307 51.1479 20.776C51.1266 21.0107 51.0946 21.256 51.0519 21.512C51.0199 21.768 50.9826 22.0187 50.9399 22.264C50.8973 22.4987 50.8546 22.7067 50.8119 22.888H50.3959L49.7559 20.696C49.5639 20.6107 49.3186 20.5467 49.0199 20.504C48.7319 20.4613 48.4226 20.44 48.0919 20.44C47.5479 20.44 47.1106 20.5947 46.7799 20.904C46.4493 21.2027 46.2839 21.624 46.2839 22.168C46.2839 22.6053 46.4119 22.9733 46.6679 23.272C46.9346 23.5707 47.2653 23.8373 47.6599 24.072C48.0546 24.3067 48.4759 24.536 48.9239 24.76C49.3826 24.9733 49.8093 25.224 50.2039 25.512C50.5986 25.8 50.9239 26.1413 51.1799 26.536C51.4466 26.9307 51.5799 27.4213 51.5799 28.008C51.5799 28.488 51.4893 28.9253 51.3079 29.32C51.1373 29.7147 50.8866 30.0507 50.5559 30.328C50.2253 30.6053 49.8199 30.8187 49.3399 30.968C48.8599 31.1173 48.3159 31.192 47.7079 31.192C47.0359 31.192 46.4333 31.112 45.8999 30.952C45.3666 30.792 44.9879 30.6213 44.7639 30.44C44.7746 30.2587 44.7906 30.04 44.8119 29.784C44.8439 29.528 44.8759 29.2667 44.9079 29C44.9506 28.7227 44.9933 28.456 45.0359 28.2C45.0786 27.944 45.1213 27.7253 45.1639 27.544H45.5799L46.2359 29.896ZM59.6141 31H55.1181V30.536C55.3527 30.4507 55.5874 30.376 55.8221 30.312C56.0674 30.248 56.3287 30.1947 56.6061 30.152V20.632H54.1581L53.3101 22.92H52.9101C52.8781 22.7067 52.8514 22.4667 52.8301 22.2C52.8087 21.9227 52.7874 21.6453 52.7661 21.368C52.7554 21.08 52.7447 20.8027 52.7341 20.536C52.7234 20.2587 52.7181 20.0133 52.7181 19.8H62.0141C62.0141 20.0133 62.0087 20.2533 61.9981 20.52C61.9874 20.7867 61.9714 21.064 61.9501 21.352C61.9394 21.6293 61.9234 21.9067 61.9021 22.184C61.8914 22.4507 61.8701 22.696 61.8381 22.92H61.4221L60.5901 20.632H58.1421V30.152C58.4194 30.2053 58.6754 30.2587 58.9101 30.312C59.1554 30.3653 59.3901 30.44 59.6141 30.536V31ZM65.6323 30.152C65.8776 30.2053 66.1123 30.264 66.3363 30.328C66.5603 30.3813 66.779 30.4507 66.9923 30.536V31H62.7843V30.536C63.019 30.4293 63.243 30.3493 63.4563 30.296C63.6696 30.2427 63.883 30.1947 64.0963 30.152V20.664C63.819 20.6107 63.5736 20.552 63.3603 20.488C63.147 20.4133 62.955 20.3387 62.7843 20.264V19.8H64.1923C64.619 19.8 65.083 19.7787 65.5843 19.736C66.0963 19.6933 66.5923 19.672 67.0723 19.672C67.595 19.672 68.0803 19.7307 68.5283 19.848C68.987 19.9653 69.3816 20.152 69.7123 20.408C70.043 20.664 70.299 20.9893 70.4803 21.384C70.6723 21.7787 70.7683 22.2533 70.7683 22.808C70.7683 23.5867 70.5603 24.232 70.1443 24.744C69.739 25.256 69.1843 25.624 68.4803 25.848C68.939 26.5733 69.419 27.2933 69.9203 28.008C70.4216 28.7227 70.9443 29.432 71.4883 30.136L72.3523 30.6V31H70.4163L69.8083 30.552C69.5096 30.1787 69.2376 29.816 68.9923 29.464C68.747 29.1013 68.5176 28.7387 68.3043 28.376C68.091 28.0027 67.8883 27.6293 67.6963 27.256C67.515 26.872 67.3283 26.4667 67.1363 26.04H65.6323V30.152ZM66.7203 20.504C66.4643 20.504 66.251 20.5093 66.0803 20.52C65.9203 20.5307 65.771 20.552 65.6323 20.584V25.368H66.7843C67.5203 25.368 68.1016 25.1333 68.5283 24.664C68.9656 24.1947 69.1843 23.576 69.1843 22.808C69.1843 22.0187 68.955 21.4373 68.4963 21.064C68.0376 20.6907 67.4456 20.504 66.7203 20.504ZM76.0598 31H72.5078V30.536C72.8918 30.3653 73.2758 30.2373 73.6598 30.152L77.7078 19.608H78.1718L82.2198 30.152C82.4331 30.1947 82.6411 30.2427 82.8438 30.296C83.0571 30.3493 83.2545 30.4293 83.4358 30.536V31H79.3398V30.536C79.5531 30.4507 79.7718 30.376 79.9958 30.312C80.2198 30.248 80.4385 30.1947 80.6518 30.152L79.5638 27.224H75.7398L74.6838 30.152C75.1318 30.216 75.5905 30.344 76.0598 30.536V31ZM76.0598 26.392H79.2918L78.0278 23L77.7238 21.624H77.6918L77.2918 23.032L76.0598 26.392ZM86.7417 30.152C86.987 30.2053 87.2217 30.264 87.4457 30.328C87.6697 30.3813 87.8884 30.4507 88.1017 30.536V31H83.8937V30.536C84.1284 30.4293 84.3524 30.3493 84.5657 30.296C84.779 30.2427 84.9924 30.1947 85.2057 30.152V20.664C84.9284 20.6107 84.683 20.552 84.4697 20.488C84.2564 20.4133 84.0644 20.3387 83.8937 20.264V19.8H85.3017C85.7284 19.8 86.1924 19.7787 86.6937 19.736C87.2057 19.6933 87.7017 19.672 88.1817 19.672C88.7044 19.672 89.1897 19.7307 89.6377 19.848C90.0964 19.9653 90.491 20.152 90.8217 20.408C91.1524 20.664 91.4084 20.9893 91.5897 21.384C91.7817 21.7787 91.8777 22.2533 91.8777 22.808C91.8777 23.5867 91.6697 24.232 91.2537 24.744C90.8484 25.256 90.2937 25.624 89.5897 25.848C90.0484 26.5733 90.5284 27.2933 91.0297 28.008C91.531 28.7227 92.0537 29.432 92.5977 30.136L93.4617 30.6V31H91.5257L90.9177 30.552C90.619 30.1787 90.347 29.816 90.1017 29.464C89.8564 29.1013 89.627 28.7387 89.4137 28.376C89.2004 28.0027 88.9977 27.6293 88.8057 27.256C88.6244 26.872 88.4377 26.4667 88.2457 26.04H86.7417V30.152ZM87.8297 20.504C87.5737 20.504 87.3604 20.5093 87.1897 20.52C87.0297 20.5307 86.8804 20.552 86.7417 20.584V25.368H87.8937C88.6297 25.368 89.211 25.1333 89.6377 24.664C90.075 24.1947 90.2937 23.576 90.2937 22.808C90.2937 22.0187 90.0644 21.4373 89.6057 21.064C89.147 20.6907 88.555 20.504 87.8297 20.504ZM110.9 31H106.932V30.536C107.145 30.4507 107.358 30.3813 107.572 30.328C107.785 30.264 108.004 30.2053 108.228 30.152V22.952L108.292 21.08H108.164L107.636 22.792L104.356 31H103.94L100.82 22.792L100.244 20.92H100.1L100.116 22.952V30.152C100.318 30.1947 100.521 30.248 100.724 30.312C100.926 30.376 101.129 30.4507 101.332 30.536V31H97.9878V30.536C98.1905 30.4507 98.3985 30.376 98.6118 30.312C98.8358 30.2373 99.0598 30.1787 99.2838 30.136V20.664C99.0598 20.6213 98.8358 20.568 98.6118 20.504C98.3985 20.4293 98.1851 20.3493 97.9718 20.264V19.8H101.252L104.036 27.112L104.58 28.76H104.596L105.14 27.08L108.02 19.8H110.916V20.264C110.724 20.3493 110.526 20.4293 110.324 20.504C110.121 20.568 109.913 20.6213 109.7 20.664V30.168C109.924 30.2107 110.132 30.264 110.324 30.328C110.526 30.3813 110.718 30.4507 110.9 30.536V31ZM114.935 31H111.383V30.536C111.767 30.3653 112.151 30.2373 112.535 30.152L116.583 19.608H117.047L121.095 30.152C121.308 30.1947 121.516 30.2427 121.719 30.296C121.932 30.3493 122.129 30.4293 122.311 30.536V31H118.215V30.536C118.428 30.4507 118.647 30.376 118.871 30.312C119.095 30.248 119.313 30.1947 119.527 30.152L118.439 27.224H114.615L113.559 30.152C114.007 30.216 114.465 30.344 114.935 30.536V31ZM114.935 26.392H118.167L116.903 23L116.599 21.624H116.567L116.167 23.032L114.935 26.392ZM118.599 16.712C118.695 16.7013 118.817 16.7067 118.967 16.728C119.116 16.7493 119.265 16.7867 119.415 16.84C119.575 16.8827 119.719 16.9413 119.847 17.016C119.985 17.08 120.087 17.1493 120.151 17.224V17.544L116.535 19L116.263 18.696L118.599 16.712ZM124.705 29.896C124.833 30.024 124.998 30.136 125.201 30.232C125.403 30.3173 125.707 30.36 126.113 30.36C126.454 30.36 126.774 30.3173 127.073 30.232C127.371 30.136 127.627 30.0027 127.841 29.832C128.065 29.6507 128.241 29.4373 128.369 29.192C128.497 28.936 128.561 28.648 128.561 28.328C128.561 27.9013 128.427 27.544 128.161 27.256C127.905 26.968 127.579 26.712 127.185 26.488C126.801 26.264 126.379 26.0453 125.921 25.832C125.462 25.6187 125.035 25.368 124.641 25.08C124.257 24.7813 123.931 24.4293 123.665 24.024C123.409 23.608 123.281 23.0907 123.281 22.472C123.281 22.024 123.361 21.624 123.521 21.272C123.681 20.92 123.905 20.6213 124.193 20.376C124.491 20.1307 124.843 19.944 125.249 19.816C125.654 19.6773 126.107 19.608 126.609 19.608C127.259 19.608 127.851 19.6613 128.385 19.768C128.929 19.864 129.355 19.9867 129.665 20.136C129.665 20.3173 129.649 20.5307 129.617 20.776C129.595 21.0107 129.563 21.256 129.521 21.512C129.489 21.768 129.451 22.0187 129.409 22.264C129.366 22.4987 129.323 22.7067 129.281 22.888H128.865L128.225 20.696C128.033 20.6107 127.787 20.5467 127.489 20.504C127.201 20.4613 126.891 20.44 126.561 20.44C126.017 20.44 125.579 20.5947 125.249 20.904C124.918 21.2027 124.753 21.624 124.753 22.168C124.753 22.6053 124.881 22.9733 125.137 23.272C125.403 23.5707 125.734 23.8373 126.129 24.072C126.523 24.3067 126.945 24.536 127.393 24.76C127.851 24.9733 128.278 25.224 128.673 25.512C129.067 25.8 129.393 26.1413 129.649 26.536C129.915 26.9307 130.049 27.4213 130.049 28.008C130.049 28.488 129.958 28.9253 129.777 29.32C129.606 29.7147 129.355 30.0507 129.025 30.328C128.694 30.6053 128.289 30.8187 127.809 30.968C127.329 31.1173 126.785 31.192 126.177 31.192C125.505 31.192 124.902 31.112 124.369 30.952C123.835 30.792 123.457 30.6213 123.233 30.44C123.243 30.2587 123.259 30.04 123.281 29.784C123.313 29.528 123.345 29.2667 123.377 29C123.419 28.7227 123.462 28.456 123.505 28.2C123.547 27.944 123.59 27.7253 123.633 27.544H124.049L124.705 29.896Z" fill="black"/>
</svg>
