<svg width="73" height="19" viewBox="0 0 73 19" fill="none" xmlns="http://www.w3.org/2000/svg">
<path d="M6.128 1.28852V1.76852C5.584 1.78452 5.168 1.84852 4.88 1.96052C4.608 2.05652 4.424 2.24852 4.328 2.53652C4.232 2.80852 4.184 3.24052 4.184 3.83252V15.7365C4.184 16.3125 4.232 16.7445 4.328 17.0325C4.424 17.3205 4.608 17.5125 4.88 17.6085C5.168 17.7045 5.584 17.7685 6.128 17.8005V18.2805C5.76 18.2485 5.296 18.2325 4.736 18.2325C4.192 18.2165 3.64 18.2085 3.08 18.2085C2.456 18.2085 1.872 18.2165 1.328 18.2325C0.784 18.2325 0.344 18.2485 0.00800008 18.2805V17.8005C0.552 17.7685 0.96 17.7045 1.232 17.6085C1.52 17.5125 1.712 17.3205 1.808 17.0325C1.904 16.7445 1.952 16.3125 1.952 15.7365V3.83252C1.952 3.24052 1.904 2.80852 1.808 2.53652C1.712 2.24852 1.52 2.05652 1.232 1.96052C0.96 1.84852 0.552 1.78452 0.00800008 1.76852V1.28852C0.344 1.30452 0.784 1.32052 1.328 1.33652C1.872 1.35252 2.456 1.36052 3.08 1.36052C3.64 1.36052 4.192 1.35252 4.736 1.33652C5.296 1.32052 5.76 1.30452 6.128 1.28852ZM23.2128 1.28852V1.76852C22.6688 1.78452 22.2528 1.86452 21.9648 2.00852C21.6928 2.15252 21.5088 2.38452 21.4128 2.70452C21.3168 3.02452 21.2688 3.48052 21.2688 4.07252V18.4005C21.1728 18.4005 21.0768 18.4005 20.9808 18.4005C20.9008 18.4005 20.8128 18.4005 20.7168 18.4005L10.6368 2.82452V15.4965C10.6368 16.0725 10.6848 16.5285 10.7808 16.8645C10.8928 17.1845 11.1008 17.4165 11.4048 17.5605C11.7248 17.6885 12.1968 17.7685 12.8208 17.8005V18.2805C12.5328 18.2485 12.1568 18.2325 11.6928 18.2325C11.2288 18.2165 10.7888 18.2085 10.3728 18.2085C9.97281 18.2085 9.56481 18.2165 9.14881 18.2325C8.74881 18.2325 8.41281 18.2485 8.14081 18.2805V17.8005C8.68481 17.7685 9.09281 17.6885 9.36481 17.5605C9.65281 17.4165 9.84481 17.1845 9.94081 16.8645C10.0368 16.5285 10.0848 16.0725 10.0848 15.4965V3.83252C10.0848 3.24052 10.0368 2.80852 9.94081 2.53652C9.84481 2.24852 9.65281 2.05652 9.36481 1.96052C9.09281 1.84852 8.68481 1.78452 8.14081 1.76852V1.28852C8.41281 1.30452 8.74881 1.32052 9.14881 1.33652C9.56481 1.35252 9.97281 1.36052 10.3728 1.36052C10.7248 1.36052 11.0608 1.35252 11.3808 1.33652C11.7008 1.32052 11.9888 1.30452 12.2448 1.28852L20.7168 14.3445V4.07252C20.7168 3.48052 20.6608 3.02452 20.5488 2.70452C20.4528 2.38452 20.2448 2.15252 19.9248 2.00852C19.6208 1.86452 19.1568 1.78452 18.5328 1.76852V1.28852C18.8208 1.30452 19.1968 1.32052 19.6608 1.33652C20.1408 1.35252 20.5808 1.36052 20.9808 1.36052C21.3968 1.36052 21.8048 1.35252 22.2048 1.33652C22.6208 1.32052 22.9568 1.30452 23.2128 1.28852ZM31.2061 1.28852V1.76852C30.6621 1.78452 30.2461 1.84852 29.9581 1.96052C29.6861 2.05652 29.5021 2.24852 29.4061 2.53652C29.3101 2.80852 29.2621 3.24052 29.2621 3.83252V15.7365C29.2621 16.3125 29.3101 16.7445 29.4061 17.0325C29.5021 17.3205 29.6861 17.5125 29.9581 17.6085C30.2461 17.7045 30.6621 17.7685 31.2061 17.8005V18.2805C30.8381 18.2485 30.3741 18.2325 29.8141 18.2325C29.2701 18.2165 28.7181 18.2085 28.1581 18.2085C27.5341 18.2085 26.9501 18.2165 26.4061 18.2325C25.8621 18.2325 25.4221 18.2485 25.0861 18.2805V17.8005C25.6301 17.7685 26.0381 17.7045 26.3101 17.6085C26.5981 17.5125 26.7901 17.3205 26.8861 17.0325C26.9821 16.7445 27.0301 16.3125 27.0301 15.7365V3.83252C27.0301 3.24052 26.9821 2.80852 26.8861 2.53652C26.7901 2.24852 26.5981 2.05652 26.3101 1.96052C26.0381 1.84852 25.6301 1.78452 25.0861 1.76852V1.28852C25.4221 1.30452 25.8621 1.32052 26.4061 1.33652C26.9501 1.35252 27.5341 1.36052 28.1581 1.36052C28.7181 1.36052 29.2701 1.35252 29.8141 1.33652C30.3741 1.32052 30.8381 1.30452 31.2061 1.28852ZM40.9274 0.952516C41.9834 0.952516 42.8474 1.11252 43.5194 1.43252C44.2074 1.73652 44.8154 2.09652 45.3434 2.51252C45.6634 2.75252 45.9034 2.78452 46.0634 2.60852C46.2394 2.41652 46.3594 1.97652 46.4234 1.28852H46.9754C46.9434 1.88052 46.9194 2.60052 46.9034 3.44852C46.8874 4.29652 46.8794 5.41652 46.8794 6.80852H46.3274C46.2154 6.12052 46.1114 5.57652 46.0154 5.17652C45.9194 4.76052 45.7994 4.40852 45.6554 4.12052C45.5274 3.83252 45.3514 3.54452 45.1274 3.25652C44.6314 2.60052 44.0074 2.12852 43.2554 1.84052C42.5034 1.53652 41.7114 1.38452 40.8794 1.38452C40.0954 1.38452 39.3834 1.58452 38.7434 1.98452C38.1194 2.36852 37.5754 2.92852 37.1114 3.66452C36.6634 4.40052 36.3114 5.28852 36.0554 6.32852C35.8154 7.36852 35.6954 8.53652 35.6954 9.83252C35.6954 11.1765 35.8314 12.3685 36.1034 13.4085C36.3754 14.4325 36.7514 15.2965 37.2314 16.0005C37.7274 16.7045 38.3034 17.2405 38.9594 17.6085C39.6314 17.9605 40.3514 18.1365 41.1194 18.1365C41.8394 18.1365 42.5914 17.9925 43.3754 17.7045C44.1594 17.4165 44.7754 16.9525 45.2234 16.3125C45.5754 15.8485 45.8154 15.3445 45.9434 14.8005C46.0874 14.2565 46.2154 13.4965 46.3274 12.5205H46.8794C46.8794 13.9765 46.8874 15.1525 46.9034 16.0485C46.9194 16.9285 46.9434 17.6725 46.9754 18.2805H46.4234C46.3594 17.5925 46.2474 17.1605 46.0874 16.9845C45.9434 16.8085 45.6954 16.8325 45.3434 17.0565C44.7514 17.4725 44.1194 17.8405 43.4474 18.1605C42.7914 18.4645 41.9434 18.6165 40.9034 18.6165C39.3834 18.6165 38.0474 18.2725 36.8954 17.5845C35.7594 16.8965 34.8714 15.9045 34.2314 14.6085C33.6074 13.3125 33.2954 11.7525 33.2954 9.92852C33.2954 8.13652 33.6234 6.56852 34.2794 5.22452C34.9354 3.88052 35.8314 2.83252 36.9674 2.08052C38.1194 1.32852 39.4394 0.952516 40.9274 0.952516ZM55.6749 1.28852V1.76852C55.1309 1.78452 54.7149 1.84852 54.4269 1.96052C54.1549 2.05652 53.9709 2.24852 53.8749 2.53652C53.7789 2.80852 53.7309 3.24052 53.7309 3.83252V15.7365C53.7309 16.3125 53.7789 16.7445 53.8749 17.0325C53.9709 17.3205 54.1549 17.5125 54.4269 17.6085C54.7149 17.7045 55.1309 17.7685 55.6749 17.8005V18.2805C55.3069 18.2485 54.8429 18.2325 54.2829 18.2325C53.7389 18.2165 53.1869 18.2085 52.6269 18.2085C52.0029 18.2085 51.4189 18.2165 50.8749 18.2325C50.3309 18.2325 49.8909 18.2485 49.5549 18.2805V17.8005C50.0989 17.7685 50.5069 17.7045 50.7789 17.6085C51.0669 17.5125 51.2589 17.3205 51.3549 17.0325C51.4509 16.7445 51.4989 16.3125 51.4989 15.7365V3.83252C51.4989 3.24052 51.4509 2.80852 51.3549 2.53652C51.2589 2.24852 51.0669 2.05652 50.7789 1.96052C50.5069 1.84852 50.0989 1.78452 49.5549 1.76852V1.28852C49.8909 1.30452 50.3309 1.32052 50.8749 1.33652C51.4189 1.35252 52.0029 1.36052 52.6269 1.36052C53.1869 1.36052 53.7389 1.35252 54.2829 1.33652C54.8429 1.32052 55.3069 1.30452 55.6749 1.28852ZM65.3962 0.952516C66.9162 0.952516 68.2442 1.29652 69.3802 1.98452C70.5322 2.67252 71.4202 3.66452 72.0442 4.96052C72.6842 6.24052 73.0042 7.80052 73.0042 9.64052C73.0042 11.4325 72.6762 13.0005 72.0202 14.3445C71.3802 15.6885 70.4842 16.7365 69.3322 17.4885C68.1802 18.2405 66.8602 18.6165 65.3722 18.6165C63.8522 18.6165 62.5162 18.2725 61.3642 17.5845C60.2282 16.8965 59.3402 15.9045 58.7002 14.6085C58.0762 13.3125 57.7642 11.7525 57.7642 9.92852C57.7642 8.13652 58.0922 6.56852 58.7482 5.22452C59.4042 3.88052 60.3002 2.83252 61.4362 2.08052C62.5882 1.32852 63.9082 0.952516 65.3962 0.952516ZM65.3002 1.38452C64.2602 1.38452 63.3562 1.74452 62.5882 2.46452C61.8202 3.18452 61.2202 4.17652 60.7882 5.44052C60.3722 6.70452 60.1642 8.16852 60.1642 9.83252C60.1642 11.5285 60.3962 13.0085 60.8602 14.2725C61.3402 15.5205 61.9802 16.4885 62.7802 17.1765C63.5962 17.8485 64.4922 18.1845 65.4682 18.1845C66.5082 18.1845 67.4122 17.8245 68.1802 17.1045C68.9482 16.3845 69.5402 15.3925 69.9562 14.1285C70.3882 12.8485 70.6042 11.3845 70.6042 9.73652C70.6042 8.02452 70.3642 6.54452 69.8842 5.29652C69.4202 4.04852 68.7882 3.08852 67.9882 2.41652C67.1882 1.72852 66.2922 1.38452 65.3002 1.38452Z" fill="#C39D7F"/>
</svg>
