<svg width="125" height="135" viewBox="0 0 125 135" fill="none" xmlns="http://www.w3.org/2000/svg">
<g clip-path="url(#clip0_72_4)">
<path d="M0.336914 50.5339C0.336914 33.9122 0.336914 17.4589 0.336914 1.00562C42.0036 1.00562 83.6702 1.00562 125.337 1.00562C125.337 45.7046 125.337 90.4036 125.337 135.103C83.6703 135.103 42.0036 135.103 0.336953 135.103C0.336914 106.969 0.336914 78.8358 0.336914 50.5339ZM81.5081 99.1716C82.4641 97.0398 83.3755 94.8865 84.3943 92.7853C84.9289 91.6827 84.946 90.8126 84.2534 89.7039C81.9724 86.0527 81.5991 82.0491 82.7042 77.9525C84.0259 73.0532 87.5563 70.3861 92.2453 69.0509C93.253 68.7639 94.0057 68.4164 94.3377 67.2702C95.4488 63.4332 96.7014 59.637 97.8006 55.7968C98.0102 55.0647 97.9867 54.1128 97.6995 53.4152C94.6747 46.0666 91.5909 38.742 88.459 31.4384C88.2444 30.9382 87.5696 30.51 87.0139 30.3019C83.6384 29.0382 80.2213 27.8855 76.8492 26.6133C75.6581 26.1639 75.0495 26.3024 74.3819 27.5348C71.7774 32.3425 66.7806 35.3859 60.7095 34.3217C59.1683 34.0515 57.6164 33.5434 56.2134 32.8524C53.902 31.7139 52.635 29.5465 51.6473 27.2851C51.1049 26.0434 50.3786 25.9012 49.2706 26.3015C45.8196 27.548 42.3423 28.7258 38.9257 30.0597C38.1751 30.3528 37.3613 31.0586 37.0374 31.781C33.8367 38.9191 30.7162 46.0935 27.6298 53.282C27.3407 53.9554 27.1994 54.8671 27.4 55.5471C28.5895 59.5792 29.8702 63.5855 31.2096 67.5705C31.3691 68.0452 32.0182 68.5566 32.5296 68.6794C36.0162 69.5167 38.9504 71.3521 40.8358 74.2903C44.0634 79.32 43.974 84.6465 41.0467 89.8335C40.4759 90.8449 40.3828 91.6244 40.846 92.6075C42.0531 95.17 43.2239 97.7497 44.4226 100.316C44.9533 101.452 45.5167 102.573 46.094 103.761C46.5587 103.458 46.8653 103.308 47.1113 103.09C50.7548 99.8626 54.4582 96.6973 57.984 93.3452C58.9777 92.4005 59.6015 90.9642 60.1237 89.646C61.5126 86.1401 57.9839 80.9431 53.8414 81.6485C52.0187 81.9589 50.9605 81.0262 50.885 79.4372C50.6432 74.3486 50.517 69.2519 50.1315 64.1746C50.0478 63.0716 49.2788 61.8247 48.4574 61.0194C47.2289 59.815 45.6641 58.9568 44.2609 57.9262C42.375 56.541 40.519 55.1148 38.6276 53.7371C36.0781 51.88 34.2976 49.9795 36.9058 46.5787C37.7206 45.5163 38.6084 44.5081 39.3923 43.4241C40.8423 41.4192 42.0481 41.2458 44.2603 42.5181C46.7214 43.9335 49.211 45.3237 51.5385 46.9403C53.7713 48.4909 55.3518 50.5307 55.2798 53.5213C55.2219 55.9225 55.3952 58.3285 55.4318 60.7329C55.4992 65.1665 55.5454 69.6005 55.5905 74.0344C55.5983 74.797 55.5533 75.4683 56.6733 75.4855C60.4862 75.544 64.3013 75.6121 68.1086 75.8098C69.7545 75.8953 70.066 75.2099 70.056 73.7464C70.0118 67.2344 70.1305 60.7209 70.0524 54.2095C70.0144 51.0432 71.4391 48.6836 73.8442 46.993C76.4364 45.171 79.2473 43.6511 82.0151 42.0924C83.1608 41.4472 84.4865 41.5056 85.3765 42.5373C86.7478 44.127 87.9726 45.8479 89.1958 47.5587C90.0774 48.7917 89.7334 51.5164 88.6252 52.3094C85.3031 54.6866 81.9875 57.0746 78.6163 59.381C76.2292 61.0141 75.0087 63.0484 75.0812 66.0783C75.1858 70.4487 74.9272 74.8287 74.7926 79.2036C74.7424 80.8347 73.8504 81.3548 72.1794 81.3122C71.0578 81.2837 69.8129 81.5377 68.8138 82.0424C64.1733 84.3867 64.3552 92.2319 68.9027 95.3441C71.1519 96.8834 73.0436 98.9387 75.1401 100.71C76.4261 101.796 77.7935 102.786 79.2242 103.897C80.0345 102.204 80.7075 100.798 81.5081 99.1716ZM50.9267 128.816C53.8438 130.486 56.7609 132.155 59.8473 133.922C59.8473 126.465 59.8473 119.387 59.8473 112.558C57.5589 112.165 55.74 111.763 53.8991 111.554C50.3929 111.158 47.0655 110.149 43.8914 108.677C43.0817 108.302 42.2883 107.503 41.887 106.699C39.5326 101.984 37.2836 97.2168 35.0284 92.4532C34.2667 90.8444 34.619 89.0818 35.8663 87.8472C39.5719 84.1796 38.9318 77.6861 34.0169 74.7368C33.1667 74.2267 32.1361 74.0172 31.0788 73.6283C27.611 86.3814 24.2128 98.8782 20.8234 111.343C30.951 117.224 40.8298 122.96 50.9267 128.816ZM95.0611 79.6053C94.6946 78.2122 94.3788 76.803 93.9443 75.4314C93.6426 74.479 93.125 73.655 91.8935 74.3111C86.4225 77.2257 85.6335 83.7976 89.3301 88.1157C90.8721 89.9169 90.8679 91.275 90.054 93.0081C87.8301 97.7432 85.5433 102.449 83.2425 107.148C83.0165 107.609 82.5951 108.108 82.1412 108.304C76.7368 110.635 71.1029 112.043 65.3391 112.391C65.3391 119.572 65.3391 126.783 65.3391 134.198C65.9307 133.924 66.185 133.83 66.4169 133.697C78.5232 126.731 90.6184 119.745 102.747 112.819C103.917 112.151 104.245 111.58 103.843 110.207C100.891 100.109 98.044 89.9807 95.0611 79.6053ZM40.2508 11.8311C42.2379 14.918 44.257 17.985 46.1899 21.1054C46.6809 21.8981 47.1154 22.0304 47.9436 21.6873C49.1148 21.2023 50.3352 20.832 51.5451 20.4458C53.4517 19.8372 54.1447 20.239 54.7346 22.0701C55.0901 23.1733 55.5295 24.2631 56.0565 25.295C58.4166 29.9163 65.9514 30.9767 68.8289 26.5663C69.6672 25.2815 70.2358 23.7874 70.7322 22.3229C71.1621 21.0549 71.9258 20.4273 73.1874 20.5801C74.501 20.7392 75.9096 20.8469 77.0616 21.414C78.367 22.0565 78.9668 21.6601 79.6206 20.6358C81.7753 17.26 83.9606 13.9038 86.2137 10.4169C85.7563 9.99554 85.3533 9.46734 84.8223 9.16117C81.8218 7.43107 78.7479 5.82509 75.7821 4.03884C72.9473 2.33148 72.7107 2.28404 70.3922 4.60751C67.899 7.1062 65.4094 9.60862 63.0408 11.9864C61.2385 10.4226 59.4752 9.00723 57.8497 7.4481C56.4087 6.06588 55.0956 4.54616 53.7759 3.04334C53.0778 2.24835 52.4164 2.28181 51.5784 2.79355C47.9255 5.02444 44.2682 7.24914 40.5788 9.41887C39.5114 10.0466 39.2835 10.6834 40.2508 11.8311ZM117.084 104.461C118.625 103.571 120.178 102.7 121.7 101.778C122.157 101.501 122.846 101.111 122.884 100.72C123.086 98.6453 123.578 96.5098 122.258 94.5696C121.414 93.3298 120.585 92.0778 119.808 90.7952C115.38 83.4803 110.978 76.1501 106.551 68.8351C105.014 66.2968 103.431 63.7869 101.811 61.1693C101.494 61.5044 101.27 61.6362 101.207 61.8225C100.244 64.6523 99.2485 67.4733 98.3901 70.3352C98.1641 71.0886 98.1942 72.0265 98.4153 72.7904C101.743 84.2911 105.119 95.7779 108.501 107.263C108.657 107.796 108.975 108.282 109.257 108.872C111.929 107.352 114.391 105.952 117.084 104.461ZM15.4159 108.4C15.7547 107.896 16.2453 107.437 16.4098 106.882C19.4946 96.4664 22.2685 85.9485 25.7065 75.652C27.5024 70.2735 25.5773 65.9127 23.7194 61.3076C23.6564 61.1515 23.3644 61.0878 23.1263 60.9507C19.474 67.0349 15.8406 73.0507 12.2453 79.0892C9.79053 83.2122 7.63342 87.5392 4.87751 91.4465C3.04137 94.0498 2.02304 96.5558 2.68804 99.6437C2.80883 100.205 3.22286 100.861 3.69842 101.162C7.50667 103.574 11.3623 105.911 15.4159 108.4ZM85.3586 21.1456C85.1452 21.4695 84.9652 21.8227 84.7125 22.1123C83.7158 23.254 83.9556 23.8673 85.4245 24.2802C87.0167 24.7278 88.5625 25.3519 90.105 25.9589C90.7094 26.1967 91.5249 26.4614 91.7662 26.9499C92.4141 28.2616 93.3532 28.4725 94.6507 28.3131C95.5892 28.1979 96.5554 28.2946 97.5088 28.3154C101.569 28.4036 104.309 30.8113 106.306 33.9225C107.292 35.4591 107.555 37.572 107.752 39.4652C107.899 40.8746 108.34 41.5096 109.697 41.7914C112.734 42.4221 115.749 43.1611 118.769 43.87C120.189 44.2032 121.601 44.5689 123.094 44.939C123.191 44.35 123.28 44.0782 123.274 43.8084C123.188 39.8282 123.105 35.8476 122.966 31.8691C122.954 31.5167 122.638 31.0506 122.327 30.854C120.857 29.927 119.342 29.0713 117.839 28.198C114.525 26.2726 111.221 24.33 107.889 22.4361C105.193 20.9034 102.442 19.4657 99.7517 17.9227C97.1482 16.4295 94.6077 14.8264 92.0034 13.3348C91.2111 12.8809 90.5273 13.0014 89.9556 13.9567C88.5381 16.3253 86.9827 18.6114 85.3586 21.1456ZM32.3381 13.9336C31.3009 14.5558 30.2682 15.1857 29.2258 15.799C20.9987 20.6398 12.7697 25.4773 4.54152 30.3163C3.30388 31.0442 2.37652 31.8643 2.66104 33.5707C2.83186 34.5951 2.52897 35.6906 2.51715 36.755C2.48927 39.2647 2.5082 41.775 2.5082 44.3232C2.82572 44.3712 3.05731 44.4747 3.24957 44.4252C7.53808 43.3222 11.8263 42.2172 16.0988 41.0546C16.4083 40.9704 16.7196 40.477 16.817 40.1164C17.0176 39.3734 17.0053 38.5733 17.202 37.8287C17.9957 34.8243 19.1257 32.0352 21.866 30.1835C24.4532 28.4353 27.3192 28.0375 30.3229 28.235C31.581 28.3178 32.6927 28.4394 33.4783 27.05C33.7954 26.4891 34.7268 26.2135 35.4309 25.9453C37.4309 25.1835 39.4578 24.4924 41.6234 23.7203C41.2289 22.9622 40.9729 22.3564 40.6207 21.8128C39.0156 19.3358 37.3859 16.8748 35.7603 14.4112C34.6491 12.7271 34.3922 12.6825 32.3381 13.9336ZM122.979 55.0877C122.979 54.4144 122.977 53.7412 122.981 53.068C122.997 50.4416 122.937 50.2921 120.466 49.638C116.287 48.532 112.082 47.5248 107.906 46.4104C106.617 46.0665 105.774 46.1719 105.006 47.4748C104.421 48.4673 103.3 49.1367 102.468 49.9991C102.358 50.1131 102.508 50.5354 102.609 50.7857C103.253 52.3755 103.739 54.0623 104.603 55.524C109.472 63.7573 114.43 71.9384 119.368 80.131C120.398 81.8416 121.473 83.526 122.527 85.2225C122.678 85.1669 122.828 85.1114 122.979 85.0559C122.979 75.1782 122.979 65.3005 122.979 55.0877ZM13.6788 67.0587C15.2274 64.4855 16.8212 61.9382 18.3121 59.3321C19.8245 56.6884 21.298 54.017 22.6307 51.2809C22.8595 50.8111 22.4927 49.7773 22.0646 49.3167C21.0965 48.2752 19.9505 47.3862 18.8088 46.5254C18.377 46.1998 17.6792 45.848 17.2359 45.9746C12.3959 47.3569 7.58226 48.8317 2.71499 50.2953C2.71499 61.6752 2.71499 72.9442 2.71499 84.2132C2.86223 84.2405 3.00947 84.2678 3.15671 84.2951C6.60906 78.6113 10.0614 72.9275 13.6788 67.0587ZM56.156 106.79C61.8445 107.599 67.4864 107.58 73.4464 105.854C69.6632 102.526 66.1186 99.4079 62.5099 96.2337C58.9499 99.4094 55.4476 102.534 51.7403 105.841C53.2963 106.188 54.5795 106.475 56.156 106.79ZM21.9003 39.901C22.1631 41.913 22.7286 43.7466 24.9604 44.9569C26.6326 41.0494 28.2542 37.2601 29.9068 33.3982C25.7983 32.5188 22.6821 35.1037 21.9003 39.901ZM101.077 35.5696C99.7109 33.5394 97.6986 33.191 95.0046 33.3213C96.7627 37.3639 98.4125 41.1576 100.121 45.0859C103.265 42.2792 103.629 38.2067 101.077 35.5696ZM43.069 49.8965C43.0464 51.8619 45.0203 53.5992 47.2161 53.5466C48.6566 53.5122 49.6788 51.9651 48.7694 50.9278C47.8813 49.9148 46.6098 49.1787 45.3957 48.528C44.3038 47.9429 43.4543 48.4112 43.069 49.8965ZM79.4379 48.8869C78.8605 49.3226 78.0426 49.6433 77.7652 50.2227C77.4001 50.9851 77.1321 52.1056 77.4486 52.777C77.672 53.2511 78.9868 53.5059 79.7216 53.3673C80.5925 53.2029 81.4473 52.6116 82.1577 52.0228C83.1161 51.2284 83.6822 50.14 82.7542 48.9888C81.8715 47.8935 80.765 47.8516 79.4379 48.8869Z" fill="#242222"/>
<path d="M81.4443 99.2818C80.7075 100.798 80.0346 102.204 79.2242 103.897C77.7936 102.786 76.4262 101.796 75.1401 100.71C73.0437 98.9387 71.1519 96.8833 68.9027 95.344C64.3552 92.2319 64.1734 84.3866 68.8138 82.0424C69.813 81.5376 71.0578 81.2837 72.1794 81.3122C73.8505 81.3547 74.7424 80.8347 74.7926 79.2036C74.9272 74.8286 75.1859 70.4487 75.0813 66.0783C75.0088 63.0484 76.2292 61.014 78.6164 59.3809C81.9875 57.0746 85.3031 54.6865 88.6252 52.3093C89.7334 51.5164 90.0774 48.7916 89.1958 47.5586C87.9726 45.8478 86.7478 44.1269 85.3765 42.5373C84.4866 41.5056 83.1608 41.4472 82.0151 42.0923C79.2473 43.6511 76.4364 45.1709 73.8443 46.993C71.4392 48.6836 70.0144 51.0431 70.0524 54.2095C70.1305 60.7208 70.0118 67.2343 70.0561 73.7464C70.066 75.2099 69.7546 75.8952 68.1087 75.8098C64.3013 75.6121 60.4863 75.544 56.6734 75.4854C55.5533 75.4683 55.5983 74.7969 55.5905 74.0343C55.5454 69.6004 55.4992 65.1665 55.4318 60.7329C55.3953 58.3285 55.2219 55.9225 55.2798 53.5213C55.3519 50.5307 53.7713 48.4909 51.5386 46.9402C49.211 45.3237 46.7215 43.9335 44.2604 42.518C42.0481 41.2458 40.8424 41.4191 39.3924 43.4241C38.6084 44.508 37.7207 45.5163 36.9058 46.5787C34.2976 49.9794 36.0782 51.88 38.6277 53.7371C40.519 55.1148 42.375 56.541 44.261 57.9262C45.6642 58.9568 47.2289 59.8149 48.4574 61.0194C49.2788 61.8247 50.0478 63.0715 50.1316 64.1746C50.517 69.2519 50.6432 74.3486 50.885 79.4372C50.9606 81.0262 52.0187 81.9588 53.8415 81.6484C57.9839 80.9431 61.5126 86.1401 60.1237 89.646C59.6015 90.9642 58.9777 92.4005 57.9841 93.3452C54.4583 96.6972 50.7548 99.8626 47.1113 103.09C46.8653 103.308 46.5588 103.458 46.0941 103.761C45.5167 102.573 44.9534 101.452 44.4227 100.316C43.2239 97.7496 42.0532 95.17 40.846 92.6075C40.3829 91.6243 40.4759 90.8448 41.0467 89.8334C43.974 84.6465 44.0635 79.32 40.8358 74.2902C38.9504 71.3521 36.0162 69.5167 32.5296 68.6793C32.0182 68.5565 31.3691 68.0451 31.2096 67.5704C29.8702 63.5855 28.5895 59.5791 27.4001 55.5471C27.1995 54.8671 27.3408 53.9553 27.6299 53.2819C30.7162 46.0934 33.8367 38.919 37.0375 31.7809C37.3614 31.0586 38.1751 30.3527 38.9257 30.0597C42.3423 28.7257 45.8197 27.5479 49.2706 26.3014C50.3787 25.9012 51.105 26.0434 51.6473 27.285C52.6351 29.5464 53.902 31.7139 56.2134 32.8523C57.6165 33.5433 59.1684 34.0515 60.7095 34.3216C66.7806 35.3858 71.7775 32.3425 74.3819 27.5348C75.0496 26.3024 75.6581 26.1639 76.8492 26.6132C80.2213 27.8855 83.6384 29.0381 87.0139 30.3019C87.5696 30.5099 88.2445 30.9381 88.459 31.4384C91.5909 38.742 94.6747 46.0666 97.6996 53.4151C97.9867 54.1128 98.0102 55.0647 97.8006 55.7968C96.7015 59.637 95.4488 63.4331 94.3377 67.2701C94.0057 68.4164 93.253 68.7639 92.2453 69.0508C87.5564 70.3861 84.026 73.0532 82.7043 77.9525C81.5991 82.049 81.9724 86.0527 84.2534 89.7038C84.9461 90.8125 84.929 91.6826 84.3944 92.7852C83.3755 94.8865 82.4641 97.0398 81.4443 99.2818Z" fill="white"/>
<path d="M50.8178 128.756C40.8299 122.96 30.951 117.224 20.8235 111.343C24.2129 98.8783 27.611 86.3815 31.0789 73.6284C32.1361 74.0173 33.1667 74.2268 34.017 74.7369C38.9319 77.6862 39.5719 84.1797 35.8664 87.8473C34.619 89.0819 34.2668 90.8445 35.0285 92.4533C37.2836 97.2169 39.5327 101.984 41.887 106.699C42.2884 107.503 43.0818 108.302 43.8915 108.677C47.0656 110.149 50.3929 111.158 53.8992 111.555C55.7401 111.763 57.559 112.165 59.8473 112.558C59.8473 119.387 59.8473 126.465 59.8473 133.922C56.761 132.156 53.8439 130.486 50.8178 128.756Z" fill="white"/>
<path d="M95.1125 79.7336C98.0441 89.9807 100.891 100.109 103.843 110.207C104.245 111.58 103.917 112.151 102.747 112.819C90.6184 119.745 78.5232 126.731 66.4169 133.697C66.185 133.83 65.9307 133.924 65.3391 134.198C65.3391 126.783 65.3391 119.572 65.3391 112.391C71.1029 112.043 76.7369 110.635 82.1412 108.304C82.5952 108.108 83.0166 107.609 83.2425 107.148C85.5433 102.449 87.8301 97.7433 90.054 93.0081C90.8679 91.2751 90.8722 89.9169 89.3302 88.1157C85.6335 83.7977 86.4225 77.2258 91.8935 74.3111C93.125 73.655 93.6426 74.4791 93.9443 75.4315C94.3788 76.8031 94.6947 78.2122 95.1125 79.7336Z" fill="white"/>
<path d="M40.1902 11.7266C39.2836 10.6835 39.5114 10.0467 40.5789 9.41888C44.2683 7.24915 47.9256 5.02445 51.5785 2.79356C52.4164 2.28182 53.0778 2.24836 53.7759 3.04335C55.0956 4.54617 56.4088 6.06589 57.8498 7.44811C59.4752 9.00725 61.2386 10.4226 63.0409 11.9864C65.4095 9.60863 67.899 7.10621 70.3923 4.60752C72.7107 2.28406 72.9473 2.33149 75.7821 4.03885C78.7479 5.82511 81.8219 7.43108 84.8224 9.16119C85.3534 9.46736 85.7564 9.99555 86.2138 10.4169C83.9606 13.9038 81.7753 17.26 79.6206 20.6358C78.9668 21.6601 78.3671 22.0565 77.0617 21.414C75.9097 20.8469 74.5011 20.7392 73.1874 20.5801C71.9259 20.4273 71.1622 21.0549 70.7323 22.3229C70.2358 23.7874 69.6673 25.2815 68.829 26.5663C65.9514 30.9767 58.4167 29.9164 56.0565 25.295C55.5296 24.2631 55.0901 23.1733 54.7347 22.0701C54.1447 20.2391 53.4517 19.8372 51.5452 20.4458C50.3353 20.832 49.1148 21.2023 47.9437 21.6874C47.1155 22.0304 46.681 21.8981 46.19 21.1054C44.257 17.985 42.238 14.918 40.1902 11.7266Z" fill="white"/>
<path d="M116.968 104.507C114.391 105.952 111.929 107.352 109.257 108.872C108.975 108.282 108.658 107.796 108.501 107.263C105.119 95.778 101.743 84.2912 98.4154 72.7905C98.1943 72.0266 98.1642 71.0887 98.3902 70.3352C99.2485 67.4733 100.244 64.6523 101.207 61.8226C101.27 61.6363 101.494 61.5045 101.811 61.1694C103.431 63.787 105.014 66.2969 106.551 68.8352C110.978 76.1502 115.38 83.4804 119.808 90.7953C120.585 92.0779 121.414 93.3299 122.258 94.5697C123.578 96.5099 123.086 98.6454 122.884 100.72C122.846 101.111 122.157 101.501 121.7 101.778C120.178 102.7 118.625 103.571 116.968 104.507Z" fill="white"/>
<path d="M15.3096 108.335C11.3623 105.911 7.50667 103.574 3.69841 101.162C3.22285 100.861 2.80882 100.205 2.68803 99.6437C2.02303 96.5558 3.04137 94.0498 4.87751 91.4466C7.63341 87.5392 9.79053 83.2122 12.2453 79.0892C15.8406 73.0507 19.474 67.0349 23.1263 60.9507C23.3644 61.0879 23.6564 61.1516 23.7194 61.3077C25.5773 65.9127 27.5023 70.2735 25.7065 75.652C22.2684 85.9485 19.4945 96.4665 16.4097 106.882C16.2453 107.437 15.7546 107.896 15.3096 108.335Z" fill="white"/>
<path d="M85.4208 21.0382C86.9828 18.6114 88.5382 16.3253 89.9557 13.9568C90.5274 13.0015 91.2111 12.881 92.0035 13.3348C94.6078 14.8265 97.1483 16.4295 99.7518 17.9227C102.442 19.4657 105.193 20.9034 107.889 22.4361C111.221 24.3301 114.525 26.2726 117.839 28.198C119.342 29.0714 120.857 29.9271 122.327 30.8541C122.638 31.0506 122.954 31.5167 122.966 31.8691C123.105 35.8477 123.188 39.8282 123.274 43.8085C123.28 44.0782 123.191 44.35 123.094 44.9391C121.601 44.569 120.189 44.2032 118.769 43.87C115.749 43.1611 112.734 42.4222 109.697 41.7915C108.34 41.5097 107.899 40.8747 107.752 39.4652C107.555 37.5721 107.292 35.4592 106.306 33.9225C104.309 30.8114 101.569 28.4037 97.5088 28.3154C96.5554 28.2947 95.5893 28.1979 94.6508 28.3132C93.3533 28.4725 92.4141 28.2616 91.7663 26.95C91.525 26.4614 90.7095 26.1968 90.1051 25.9589C88.5626 25.3519 87.0167 24.7278 85.4245 24.2802C83.9557 23.8673 83.7158 23.2541 84.7125 22.1123C84.9653 21.8227 85.1452 21.4696 85.4208 21.0382Z" fill="white"/>
<path d="M32.452 13.8763C34.3922 12.6824 34.6491 12.727 35.7604 14.4111C37.386 16.8747 39.0156 19.3357 40.6207 21.8127C40.9729 22.3563 41.229 22.9621 41.6234 23.7202C39.4579 24.4923 37.4309 25.1834 35.4309 25.9453C34.7268 26.2135 33.7955 26.4891 33.4783 27.0499C32.6928 28.4393 31.581 28.3177 30.3229 28.2349C27.3193 28.0374 24.4533 28.4352 21.866 30.1834C19.1257 32.0351 17.9957 34.8242 17.202 37.8287C17.0054 38.5732 17.0176 39.3733 16.817 40.1163C16.7196 40.477 16.4083 40.9703 16.0989 41.0545C11.8263 42.2171 7.53811 43.3221 3.2496 44.4251C3.05734 44.4746 2.82575 44.3711 2.50824 44.3231C2.50824 41.7749 2.4893 39.2647 2.51718 36.7549C2.529 35.6905 2.83189 34.595 2.66107 33.5706C2.37655 31.8642 3.30391 31.0441 4.54155 30.3162C12.7697 25.4772 20.9987 20.6397 29.2258 15.7989C30.2682 15.1856 31.3009 14.5557 32.452 13.8763Z" fill="white"/>
<path d="M122.979 55.2553C122.979 65.3005 122.979 75.1782 122.979 85.056C122.829 85.1115 122.678 85.167 122.528 85.2225C121.473 83.5261 120.399 81.8417 119.368 80.1311C114.43 71.9384 109.472 63.7574 104.603 55.5241C103.739 54.0624 103.253 52.3756 102.609 50.7858C102.508 50.5354 102.358 50.1131 102.468 49.9992C103.3 49.1368 104.421 48.4674 105.006 47.4748C105.774 46.172 106.617 46.0666 107.906 46.4105C112.083 47.5249 116.287 48.5321 120.466 49.6381C122.937 50.2922 122.997 50.4417 122.981 53.0681C122.977 53.7413 122.979 54.4145 122.979 55.2553Z" fill="white"/>
<path d="M13.5963 67.1512C10.0614 72.9275 6.60903 78.6114 3.15668 84.2952C3.00944 84.2679 2.8622 84.2406 2.71497 84.2133C2.71497 72.9443 2.71497 61.6753 2.71497 50.2954C7.58224 48.8318 12.3958 47.357 17.2359 45.9747C17.6792 45.8481 18.3769 46.1999 18.8088 46.5255C19.9505 47.3863 21.0964 48.2753 22.0646 49.3168C22.4927 49.7773 22.8595 50.8112 22.6307 51.281C21.298 54.0171 19.8245 56.6884 18.3121 59.3322C16.8212 61.9383 15.2274 64.4856 13.5963 67.1512Z" fill="white"/>
<path d="M56.0094 106.776C54.5795 106.475 53.2963 106.188 51.7404 105.841C55.4476 102.534 58.95 99.4093 62.5099 96.2336C66.1186 99.4079 69.6633 102.526 73.4465 105.854C67.4864 107.58 61.8445 107.599 56.0094 106.776Z" fill="white"/>
<path d="M21.8964 39.7583C22.682 35.1036 25.7982 32.5187 29.9068 33.3982C28.2541 37.2601 26.6325 41.0494 24.9604 44.9569C22.7285 43.7466 22.1631 41.913 21.8964 39.7583Z" fill="white"/>
<path d="M101.18 35.642C103.629 38.2068 103.265 42.2792 100.121 45.086C98.4126 41.1577 96.7627 37.364 95.0046 33.3214C97.6987 33.1911 99.711 33.5395 101.18 35.642Z" fill="white"/>
<path d="M43.0993 49.7765C43.4544 48.4112 44.3039 47.9428 45.3958 48.528C46.6099 49.1786 47.8813 49.9147 48.7694 50.9278C49.6788 51.9651 48.6566 53.5121 47.2162 53.5466C45.0203 53.5992 43.0465 51.8619 43.0993 49.7765Z" fill="white"/>
<path d="M79.5561 48.8411C80.765 47.8517 81.8715 47.8936 82.7542 48.9888C83.6822 50.1401 83.1161 51.2285 82.1577 52.0228C81.4473 52.6117 80.5925 53.203 79.7216 53.3673C78.9868 53.506 77.672 53.2511 77.4486 52.7771C77.1321 52.1057 77.4001 50.9852 77.7652 50.2227C78.0426 49.6433 78.8605 49.3227 79.5561 48.8411Z" fill="white"/>
</g>
<defs>
<clipPath id="clip0_72_4">
<rect width="125" height="134.097" fill="white" transform="translate(0 0.668701)"/>
</clipPath>
</defs>
</svg>
