<svg width="60" height="69" viewBox="0 0 60 69" fill="none" xmlns="http://www.w3.org/2000/svg">
<g clip-path="url(#clip0_49_26)">
<path d="M0.161743 25.4167C0.161743 16.9607 0.161743 8.59043 0.161743 0.220156C20.1617 0.220155 40.1617 0.220155 60.1617 0.220154C60.1617 22.9599 60.1617 45.6996 60.1617 68.4393C40.1618 68.4393 20.1618 68.4393 0.161762 68.4393C0.161743 54.127 0.161743 39.8147 0.161743 25.4167ZM39.1239 50.1601C39.5828 49.0756 40.0203 47.9802 40.5093 46.9112C40.7659 46.3503 40.7741 45.9076 40.4417 45.3436C39.3468 43.4862 39.1676 41.4494 39.6981 39.3653C40.3325 36.8729 42.0271 35.5161 44.2778 34.8368C44.7615 34.6908 45.1228 34.5141 45.2821 33.9309C45.8154 31.9789 46.4167 30.0477 46.9443 28.0941C47.0449 27.7216 47.0336 27.2374 46.8958 26.8825C45.4439 23.144 43.9637 19.4178 42.4603 15.7022C42.3574 15.4478 42.0334 15.2299 41.7667 15.1241C40.1465 14.4812 38.5062 13.8948 36.8876 13.2475C36.3159 13.0189 36.0238 13.0894 35.7033 13.7163C34.4532 16.1622 32.0547 17.7104 29.1406 17.169C28.4008 17.0316 27.6559 16.7731 26.9825 16.4215C25.873 15.8424 25.2648 14.7397 24.7907 13.5893C24.5304 12.9576 24.1818 12.8853 23.6499 13.0889C21.9935 13.723 20.3243 14.3222 18.6844 15.0008C18.3241 15.1499 17.9335 15.509 17.778 15.8765C16.2416 19.5079 14.7438 23.1577 13.2623 26.8147C13.1236 27.1573 13.0558 27.6211 13.152 27.967C13.723 30.0183 14.3377 32.0564 14.9806 34.0837C15.0572 34.3252 15.3688 34.5853 15.6142 34.6478C17.2878 35.0738 18.6962 36.0075 19.6012 37.5022C21.1505 40.061 21.1075 42.7708 19.7024 45.4095C19.4285 45.9241 19.3838 46.3206 19.6061 46.8208C20.1855 48.1244 20.7475 49.4367 21.3229 50.7424C21.5776 51.3205 21.848 51.8908 22.1252 52.4948C22.3482 52.3407 22.4954 52.2646 22.6134 52.1538C24.3623 50.5117 26.14 48.9014 27.8324 47.1961C28.3093 46.7155 28.6087 45.9848 28.8594 45.3142C29.5261 43.5306 27.8323 40.8867 25.8439 41.2456C24.969 41.4035 24.4611 40.929 24.4248 40.1207C24.3087 37.5319 24.2482 34.9391 24.0632 32.3561C24.023 31.795 23.6538 31.1607 23.2596 30.751C22.6699 30.1382 21.9188 29.7017 21.2453 29.1774C20.34 28.4727 19.4491 27.7471 18.5413 27.0462C17.3175 26.1015 16.4629 25.1346 17.7148 23.4045C18.1059 22.8641 18.5321 22.3512 18.9083 21.7997C19.6043 20.7797 20.1831 20.6915 21.245 21.3388C22.4263 22.0589 23.6213 22.7661 24.7385 23.5885C25.8103 24.3773 26.5689 25.4151 26.5343 26.9365C26.5065 28.158 26.5897 29.382 26.6073 30.6052C26.6396 32.8607 26.6618 35.1164 26.6835 37.3721C26.6872 37.76 26.6656 38.1015 27.2032 38.1103C29.0334 38.1401 30.8647 38.1747 32.6922 38.2753C33.4822 38.3188 33.6317 37.9701 33.6269 37.2256C33.6057 33.9127 33.6627 30.5991 33.6252 27.2866C33.6069 25.6758 34.2908 24.4754 35.4453 23.6153C36.6895 22.6884 38.0387 21.9152 39.3673 21.1222C39.9172 20.794 40.5536 20.8237 40.9808 21.3486C41.639 22.1573 42.2269 23.0328 42.814 23.9031C43.2372 24.5303 43.072 25.9165 42.5401 26.3199C40.9455 27.5293 39.354 28.7441 37.7359 29.9174C36.59 30.7483 36.0042 31.7832 36.039 33.3246C36.0892 35.5479 35.9651 37.7762 35.9005 40.0018C35.8764 40.8316 35.4482 41.0962 34.6461 41.0745C34.1078 41.06 33.5102 41.1892 33.0306 41.446C30.8032 42.6386 30.8905 46.6297 33.0733 48.2129C34.1529 48.996 35.061 50.0417 36.0673 50.9426C36.6846 51.4953 37.3409 51.9991 38.0276 52.5643C38.4166 51.7029 38.7396 50.9876 39.1239 50.1601ZM24.4448 65.2413C25.845 66.0907 27.2452 66.94 28.7267 67.8387C28.7267 64.045 28.7267 60.4441 28.7267 56.9704C27.6283 56.7701 26.7552 56.5655 25.8716 56.4596C24.1886 56.2579 22.5915 55.7445 21.0679 54.9958C20.6793 54.8048 20.2984 54.3984 20.1058 53.9895C18.9757 51.591 17.8961 49.1657 16.8137 46.7423C16.4481 45.9238 16.6171 45.0271 17.2159 44.3991C18.9945 42.5332 18.6873 39.2298 16.3281 37.7294C15.92 37.4699 15.4253 37.3633 14.9178 37.1655C13.2533 43.6534 11.6222 50.0109 9.99526 56.352C14.8565 59.3437 19.5983 62.262 24.4448 65.2413ZM45.6294 40.2062C45.4535 39.4974 45.3019 38.7806 45.0933 38.0828C44.9485 37.5983 44.7 37.179 44.1089 37.5128C41.4828 38.9956 41.1041 42.3389 42.8785 44.5356C43.6187 45.452 43.6166 46.1429 43.2259 47.0246C42.1585 49.4335 41.0608 51.8275 39.9564 54.2177C39.848 54.4525 39.6457 54.7065 39.4278 54.8061C36.8337 55.9916 34.1294 56.7081 31.3628 56.8851C31.3628 60.5383 31.3628 64.207 31.3628 67.9789C31.6468 67.8399 31.7688 67.7919 31.8801 67.7241C37.6912 64.1803 43.4968 60.6266 49.3186 57.1028C49.8801 56.763 50.0375 56.4728 49.8448 55.7741C48.4279 50.6371 47.0612 45.4844 45.6294 40.2062ZM19.3204 5.72739C20.2742 7.29778 21.2434 8.85809 22.1712 10.4455C22.4069 10.8488 22.6154 10.9161 23.013 10.7416C23.5751 10.4948 24.1609 10.3064 24.7417 10.1099C25.6568 9.80035 25.9895 10.0048 26.2726 10.9363C26.4433 11.4975 26.6542 12.0519 26.9071 12.5769C28.04 14.9279 31.6567 15.4674 33.0379 13.2236C33.4403 12.57 33.7132 11.8099 33.9515 11.0649C34.1579 10.4198 34.5244 10.1005 35.13 10.1783C35.7605 10.2592 36.4366 10.314 36.9896 10.6025C37.6162 10.9294 37.9041 10.7277 38.2179 10.2066C39.2522 8.48925 40.3011 6.78183 41.3826 5.00794C41.1631 4.7936 40.9696 4.52489 40.7147 4.36913C39.2745 3.48897 37.799 2.67197 36.3754 1.76324C35.0147 0.89466 34.9011 0.870529 33.7883 2.05254C32.5915 3.3237 31.3966 4.59676 30.2596 5.80638C29.3945 5.01085 28.5481 4.29082 27.7679 3.49764C27.0762 2.79446 26.4459 2.02133 25.8125 1.2568C25.4774 0.852371 25.1599 0.86939 24.7577 1.12973C23.0043 2.26465 21.2488 3.39642 19.4779 4.50023C18.9655 4.81959 18.8561 5.14355 19.3204 5.72739ZM56.2003 52.8512C56.9401 52.3981 57.6856 51.9551 58.4161 51.4859C58.6355 51.345 58.966 51.1469 58.9843 50.948C59.0813 49.8924 59.3174 48.806 58.6838 47.819C58.2788 47.1882 57.8806 46.5513 57.508 45.8988C55.3826 42.1775 53.2695 38.4484 51.1443 34.727C50.4069 33.4357 49.647 32.1589 48.8693 30.8272C48.7169 30.9977 48.6098 31.0648 48.5794 31.1595C48.1171 32.5991 47.6393 34.0342 47.2273 35.4902C47.1188 35.8735 47.1333 36.3506 47.2394 36.7392C48.8367 42.59 50.4571 48.4337 52.0803 54.2764C52.1556 54.5476 52.308 54.7947 52.4433 55.0948C53.726 54.3216 54.9075 53.6094 56.2003 52.8512ZM7.39964 54.8547C7.56226 54.5985 7.79776 54.3652 7.87671 54.0826C9.35741 48.7839 10.6889 43.4331 12.3391 38.195C13.2012 35.4588 12.2771 33.2403 11.3853 30.8976C11.3551 30.8182 11.2149 30.7858 11.1007 30.716C9.34753 33.8112 7.60352 36.8716 5.87777 39.9436C4.69948 42.0411 3.66407 44.2424 2.34123 46.2302C1.45988 47.5545 0.971082 48.8294 1.29028 50.4003C1.34826 50.6856 1.547 51.0193 1.77527 51.1726C3.60323 52.3996 5.45391 53.5886 7.39964 54.8547ZM40.9722 10.466C40.8697 10.6308 40.7833 10.8104 40.662 10.9577C40.1836 11.5386 40.2987 11.8506 41.0038 12.0606C41.768 12.2883 42.51 12.6058 43.2504 12.9146C43.5406 13.0356 43.932 13.1703 44.0478 13.4188C44.3588 14.0861 44.8096 14.1934 45.4324 14.1123C45.8829 14.0537 46.3466 14.1029 46.8042 14.1134C48.7532 14.1583 50.0684 15.3832 51.0267 16.9659C51.5 17.7477 51.6265 18.8226 51.7211 19.7857C51.7915 20.5027 52.003 20.8257 52.6544 20.9691C54.1123 21.29 55.5594 21.6659 57.0094 22.0265C57.6909 22.196 58.3687 22.3821 59.0852 22.5704C59.1318 22.2707 59.1742 22.1325 59.1714 21.9952C59.1301 19.9704 59.0904 17.9453 59.0238 15.9213C59.0179 15.742 58.8664 15.5049 58.7168 15.4049C58.0114 14.9333 57.2843 14.498 56.5628 14.0537C54.9721 13.0742 53.3861 12.086 51.7868 11.1225C50.4925 10.3427 49.1722 9.61135 47.8808 8.82638C46.6312 8.06674 45.4117 7.25121 44.1617 6.49237C43.7813 6.26149 43.4531 6.32278 43.1787 6.80876C42.4983 8.01374 41.7517 9.17674 40.9722 10.466ZM15.5223 6.79702C15.0245 7.11355 14.5288 7.43396 14.0284 7.74599C10.0794 10.2087 6.12947 12.6696 2.17995 15.1314C1.58589 15.5017 1.14075 15.9189 1.27732 16.787C1.35932 17.3081 1.21393 17.8654 1.20825 18.4069C1.19487 19.6837 1.20396 20.9608 1.20396 22.2571C1.35637 22.2815 1.46753 22.3342 1.55982 22.309C3.6183 21.7478 5.67666 21.1857 7.72746 20.5943C7.876 20.5514 8.02543 20.3004 8.07217 20.117C8.16848 19.739 8.16258 19.332 8.25699 18.9532C8.63796 17.4247 9.18035 16.0058 10.4957 15.0638C11.7376 14.1744 13.1133 13.9721 14.555 14.0726C15.1589 14.1147 15.6925 14.1765 16.0696 13.4697C16.2218 13.1844 16.6689 13.0442 17.0069 12.9077C17.9669 12.5202 18.9398 12.1686 19.9793 11.7758C19.7899 11.3901 19.667 11.0819 19.4979 10.8054C18.7275 9.54529 17.9453 8.29328 17.165 7.03996C16.6316 6.18321 16.5083 6.16054 15.5223 6.79702ZM59.0299 27.7333C59.0302 27.3908 59.0289 27.0483 59.0309 26.7059C59.0386 25.3697 59.0099 25.2937 57.8237 24.9609C55.818 24.3982 53.7996 23.8858 51.795 23.3189C51.1763 23.144 50.7714 23.1976 50.4029 23.8604C50.1221 24.3653 49.5839 24.7059 49.1847 25.1446C49.1319 25.2026 49.2037 25.4174 49.2524 25.5448C49.5613 26.3536 49.7945 27.2117 50.2095 27.9553C52.5467 32.1438 54.9263 36.3058 57.2964 40.4736C57.7913 41.3438 58.3071 42.2007 58.8132 43.0638C58.8855 43.0355 58.9577 43.0073 59.0299 42.979C59.0299 37.9539 59.0299 32.9289 59.0299 27.7333ZM6.56585 33.8233C7.3092 32.5143 8.0742 31.2184 8.78984 29.8926C9.5158 28.5476 10.2231 27.1886 10.8628 25.7967C10.9726 25.5577 10.7965 25.0317 10.591 24.7975C10.1263 24.2676 9.57627 23.8154 9.02826 23.3774C8.82096 23.2118 8.48605 23.0328 8.27325 23.0972C5.95004 23.8004 3.63951 24.5507 1.30322 25.2953C1.30322 31.0846 1.30322 36.8175 1.30322 42.5503C1.3739 42.5642 1.44457 42.5781 1.51524 42.592C3.17237 39.7005 4.8295 36.8089 6.56585 33.8233ZM26.9549 54.036C29.6854 54.4473 32.3935 54.4376 35.2543 53.5594C33.4384 51.8665 31.7369 50.2803 30.0048 48.6655C28.296 50.2811 26.6149 51.8705 24.8354 53.5529C25.5822 53.7297 26.1982 53.8754 26.9549 54.036ZM10.5122 20.0074C10.6383 21.031 10.9097 21.9638 11.981 22.5795C12.7837 20.5916 13.562 18.6639 14.3553 16.6992C12.3832 16.2518 10.8874 17.5669 10.5122 20.0074ZM48.5172 17.8039C47.8613 16.7711 46.8954 16.5938 45.6022 16.6601C46.4461 18.7167 47.238 20.6467 48.058 22.6451C49.5673 21.2172 49.7421 19.1455 48.5172 17.8039ZM20.6731 25.0924C20.6623 26.0923 21.6098 26.9761 22.6638 26.9494C23.3552 26.9318 23.8458 26.1448 23.4093 25.6171C22.983 25.1017 22.3728 24.7272 21.79 24.3962C21.2659 24.0985 20.8581 24.3368 20.6731 25.0924ZM38.1302 24.5788C37.8531 24.8005 37.4605 24.9636 37.3273 25.2583C37.1521 25.6462 37.0234 26.2163 37.1753 26.5578C37.2826 26.799 37.9137 26.9286 38.2664 26.8581C38.6844 26.7745 39.0947 26.4737 39.4357 26.1741C39.8957 25.77 40.1675 25.2163 39.7221 24.6306C39.2984 24.0734 38.7672 24.0521 38.1302 24.5788Z" fill="#242222"/>
<path d="M39.0932 50.2162C38.7396 50.9876 38.4166 51.7029 38.0276 52.5643C37.3409 51.9991 36.6845 51.4954 36.0672 50.9426C35.0609 50.0417 34.1529 48.996 33.0733 48.213C30.8905 46.6297 30.8032 42.6386 33.0306 41.446C33.5102 41.1892 34.1077 41.06 34.6461 41.0745C35.4482 41.0962 35.8763 40.8316 35.9004 40.0018C35.965 37.7762 36.0892 35.5479 36.039 33.3246C36.0042 31.7832 36.59 30.7483 37.7358 29.9174C39.354 28.7441 40.9455 27.5293 42.5401 26.3199C43.072 25.9165 43.2371 24.5303 42.814 23.9031C42.2268 23.0328 41.6389 22.1573 40.9807 21.3486C40.5535 20.8237 39.9171 20.794 39.3672 21.1222C38.0387 21.9152 36.6894 22.6884 35.4452 23.6153C34.2908 24.4754 33.6069 25.6758 33.6251 27.2866C33.6626 30.5991 33.6056 33.9127 33.6269 37.2256C33.6317 37.9701 33.4822 38.3188 32.6921 38.2753C30.8646 38.1747 29.0334 38.1401 27.2032 38.1103C26.6656 38.1015 26.6872 37.76 26.6834 37.3721C26.6618 35.1164 26.6396 32.8607 26.6073 30.6052C26.5897 29.382 26.5065 28.158 26.5343 26.9365C26.5689 25.4151 25.8102 24.3774 24.7385 23.5885C23.6213 22.7661 22.4263 22.0589 21.2449 21.3388C20.1831 20.6915 19.6043 20.7797 18.9083 21.7997C18.532 22.3512 18.1059 22.8641 17.7148 23.4045C16.4628 25.1346 17.3175 26.1015 18.5413 27.0462C19.4491 27.7471 20.34 28.4727 21.2452 29.1774C21.9188 29.7017 22.6698 30.1382 23.2595 30.751C23.6538 31.1607 24.0229 31.795 24.0631 32.3561C24.2481 34.9391 24.3087 37.5319 24.4248 40.1207C24.461 40.929 24.969 41.4035 25.8439 41.2456C27.8323 40.8868 29.526 43.5306 28.8594 45.3142C28.6087 45.9848 28.3093 46.7155 27.8323 47.1961C26.1399 48.9014 24.3623 50.5117 22.6134 52.1538C22.4953 52.2646 22.3482 52.3407 22.1251 52.4948C21.848 51.8908 21.5776 51.3205 21.3229 50.7424C20.7475 49.4368 20.1855 48.1244 19.6061 46.8208C19.3838 46.3206 19.4284 45.9241 19.7024 45.4095C21.1075 42.7708 21.1504 40.061 19.6012 37.5023C18.6962 36.0075 17.2878 35.0738 15.6142 34.6478C15.3687 34.5854 15.0572 34.3252 14.9806 34.0837C14.3377 32.0564 13.723 30.0183 13.152 27.9671C13.0557 27.6211 13.1235 27.1573 13.2623 26.8147C14.7438 23.1577 16.2416 19.5079 17.778 15.8765C17.9334 15.509 18.324 15.1499 18.6843 15.0008C20.3243 14.3222 21.9934 13.723 23.6499 13.0889C24.1817 12.8853 24.5304 12.9576 24.7907 13.5893C25.2648 14.7397 25.8729 15.8424 26.9824 16.4215C27.6559 16.7731 28.4008 17.0316 29.1405 17.169C32.0547 17.7104 34.4532 16.1622 35.7033 13.7163C36.0238 13.0894 36.3159 13.0189 36.8876 13.2475C38.5062 13.8948 40.1464 14.4812 41.7666 15.1241C42.0334 15.2299 42.3573 15.4478 42.4603 15.7023C43.9636 19.4178 45.4438 23.144 46.8958 26.8825C47.0336 27.2374 47.0449 27.7216 46.9443 28.0941C46.4167 30.0477 45.8154 31.9789 45.2821 33.9309C45.1227 34.5141 44.7614 34.6908 44.2777 34.8368C42.027 35.5161 40.3324 36.8729 39.698 39.3654C39.1676 41.4494 39.3467 43.4862 40.4416 45.3436C40.7741 45.9076 40.7659 46.3503 40.5093 46.9112C40.0202 47.9802 39.5827 49.0756 39.0932 50.2162Z" fill="#91969B"/>
<path d="M24.3925 65.2108C19.5983 62.262 14.8565 59.3438 9.99524 56.3521C11.6221 50.0109 13.2533 43.6534 14.9178 37.1655C15.4253 37.3633 15.92 37.4699 16.3281 37.7295C18.6872 39.2298 18.9945 42.5333 17.2158 44.3991C16.6171 45.0272 16.448 45.9239 16.8136 46.7423C17.8961 49.1657 18.9757 51.591 20.1057 53.9895C20.2984 54.3984 20.6792 54.8048 21.0679 54.9958C22.5914 55.7445 24.1886 56.2579 25.8716 56.4597C26.7552 56.5656 27.6283 56.7701 28.7267 56.9704C28.7267 60.4442 28.7267 64.045 28.7267 67.8387C27.2452 66.94 25.845 66.0907 24.3925 65.2108Z" fill="#91969B"/>
<path d="M45.654 40.2714C47.0612 45.4844 48.4279 50.6371 49.8448 55.7741C50.0375 56.4728 49.8801 56.763 49.3186 57.1028C43.4968 60.6266 37.6912 64.1803 31.8801 67.7241C31.7688 67.7919 31.6468 67.8399 31.3628 67.9789C31.3628 64.207 31.3628 60.5384 31.3628 56.8852C34.1294 56.7082 36.8337 55.9917 39.4278 54.8061C39.6457 54.7065 39.848 54.4525 39.9564 54.2177C41.0608 51.8275 42.1585 49.4335 43.2259 47.0246C43.6166 46.1429 43.6187 45.452 42.8785 44.5357C41.1041 42.3389 41.4828 38.9956 44.1089 37.5128C44.7 37.1791 44.9485 37.5983 45.0933 38.0828C45.3019 38.7806 45.4535 39.4975 45.654 40.2714Z" fill="#91969B"/>
<path d="M19.2913 5.67423C18.8561 5.14356 18.9655 4.8196 19.4778 4.50024C21.2487 3.39643 23.0042 2.26466 24.7577 1.12973C25.1599 0.869395 25.4773 0.852376 25.8124 1.25681C26.4459 2.02134 27.0762 2.79447 27.7679 3.49765C28.5481 4.29083 29.3945 5.01086 30.2596 5.80639C31.3965 4.59677 32.5915 3.32371 33.7883 2.05255C34.9011 0.870534 35.0147 0.894665 36.3754 1.76325C37.799 2.67197 39.2745 3.48898 40.7147 4.36914C40.9696 4.5249 41.163 4.79361 41.3826 5.00795C40.3011 6.78185 39.2521 8.48926 38.2179 10.2066C37.904 10.7277 37.6161 10.9294 36.9896 10.6025C36.4366 10.314 35.7605 10.2592 35.1299 10.1783C34.5244 10.1006 34.1578 10.4198 33.9515 11.0649C33.7132 11.8099 33.4403 12.57 33.0379 13.2236C31.6567 15.4674 28.04 14.9279 26.9071 12.5769C26.6542 12.0519 26.4432 11.4975 26.2726 10.9363C25.9894 10.0048 25.6568 9.80036 24.7417 10.1099C24.1609 10.3064 23.5751 10.4948 23.013 10.7416C22.6154 10.9161 22.4069 10.8488 22.1712 10.4455C21.2434 8.8581 20.2742 7.29779 19.2913 5.67423Z" fill="#91969B"/>
<path d="M56.1447 52.8742C54.9075 53.6094 53.726 54.3216 52.4434 55.0949C52.308 54.7947 52.1556 54.5476 52.0803 54.2765C50.4571 48.4337 48.8367 42.59 47.2394 36.7393C47.1333 36.3506 47.1188 35.8735 47.2273 35.4902C47.6393 34.0343 48.1171 32.5991 48.5794 31.1595C48.6098 31.0648 48.717 30.9977 48.8693 30.8273C49.6471 32.1589 50.4069 33.4358 51.1443 34.7271C53.2695 38.4485 55.3827 42.1775 57.508 45.8988C57.8806 46.5513 58.2788 47.1882 58.6838 47.819C59.3175 48.806 59.0813 49.8924 58.9843 50.948C58.9661 51.1469 58.6355 51.345 58.4161 51.4859C57.6856 51.9551 56.9401 52.3981 56.1447 52.8742Z" fill="#91969B"/>
<path d="M7.34866 54.822C5.45394 53.5886 3.60325 52.3996 1.77529 51.1726C1.54702 51.0193 1.34829 50.6856 1.29031 50.4003C0.971108 48.8294 1.45991 47.5545 2.34126 46.2302C3.66409 44.2424 4.6995 42.0411 5.8778 39.9436C7.60354 36.8717 9.34755 33.8112 11.1007 30.716C11.215 30.7858 11.3551 30.8182 11.3853 30.8976C12.2772 33.2403 13.2012 35.4588 12.3391 38.195C10.6889 43.4331 9.35743 48.7839 7.87673 54.0826C7.79778 54.3652 7.56228 54.5985 7.34866 54.822Z" fill="#91969B"/>
<path d="M41.002 10.4113C41.7517 9.17676 42.4983 8.01376 43.1787 6.80878C43.4531 6.3228 43.7813 6.26151 44.1617 6.49239C45.4117 7.25123 46.6312 8.06676 47.8808 8.8264C49.1722 9.61137 50.4925 10.3428 51.7868 11.1225C53.3861 12.086 54.9721 13.0742 56.5628 14.0538C57.2843 14.4981 58.0114 14.9334 58.7168 15.405C58.8664 15.505 59.0179 15.7421 59.0238 15.9214C59.0904 17.9454 59.1301 19.9704 59.1714 21.9953C59.1742 22.1325 59.1317 22.2707 59.0852 22.5704C58.3687 22.3821 57.6909 22.1961 57.0094 22.0266C55.5594 21.6659 54.1123 21.29 52.6544 20.9691C52.003 20.8258 51.7915 20.5027 51.7211 19.7857C51.6265 18.8226 51.5 17.7477 51.0267 16.966C50.0684 15.3832 48.7532 14.1584 46.8042 14.1135C46.3466 14.1029 45.8829 14.0537 45.4324 14.1123C44.8096 14.1934 44.3588 14.0861 44.0478 13.4188C43.932 13.1703 43.5406 13.0357 43.2504 12.9147C42.51 12.6058 41.768 12.2884 41.0038 12.0607C40.2987 11.8506 40.1836 11.5386 40.662 10.9578C40.7833 10.8104 40.8697 10.6308 41.002 10.4113Z" fill="#91969B"/>
<path d="M15.577 6.76792C16.5083 6.16054 16.6316 6.18321 17.165 7.03997C17.9453 8.29328 18.7275 9.54529 19.4979 10.8054C19.667 11.0819 19.7899 11.3901 19.9792 11.7758C18.9398 12.1686 17.9668 12.5202 17.0068 12.9077C16.6689 13.0442 16.2218 13.1844 16.0696 13.4697C15.6925 14.1765 15.1589 14.1147 14.555 14.0726C13.1132 13.9721 11.7376 14.1744 10.4957 15.0638C9.18033 16.0058 8.63794 17.4247 8.25697 18.9532C8.16256 19.332 8.16846 19.739 8.07215 20.117C8.02541 20.3005 7.87598 20.5514 7.72745 20.5943C5.67664 21.1857 3.61829 21.7479 1.5598 22.309C1.46751 22.3342 1.35635 22.2815 1.20394 22.2571C1.20394 20.9608 1.19485 19.6837 1.20824 18.4069C1.21391 17.8654 1.3593 17.3081 1.2773 16.787C1.14073 15.9189 1.58587 15.5017 2.17993 15.1314C6.12945 12.6697 10.0794 10.2087 14.0284 7.746C14.5287 7.43396 15.0244 7.11355 15.577 6.76792Z" fill="#91969A"/>
<path d="M59.0298 27.8186C59.0298 32.9289 59.0298 37.954 59.0298 42.9791C58.9576 43.0073 58.8853 43.0355 58.8131 43.0638C58.307 42.2008 57.7912 41.3439 57.2963 40.4736C54.9262 36.3058 52.5465 32.1438 50.2093 27.9553C49.7944 27.2117 49.5612 26.3536 49.2522 25.5448C49.2036 25.4174 49.1318 25.2026 49.1845 25.1446C49.5837 24.7059 50.122 24.3653 50.4027 23.8604C50.7713 23.1976 51.1762 23.144 51.7948 23.319C53.7995 23.8859 55.8178 24.3983 57.8236 24.9609C59.0098 25.2937 59.0385 25.3697 59.0308 26.7059C59.0288 27.0483 59.03 27.3908 59.0298 27.8186Z" fill="#91969A"/>
<path d="M6.52625 33.8704C4.82951 36.809 3.17238 39.7005 1.51525 42.592C1.44457 42.5781 1.3739 42.5642 1.30322 42.5503C1.30322 36.8175 1.30322 31.0846 1.30322 25.2953C3.63951 24.5507 5.95005 23.8005 8.27326 23.0973C8.48605 23.0328 8.82097 23.2118 9.02827 23.3775C9.57627 23.8154 10.1263 24.2677 10.591 24.7975C10.7965 25.0318 10.9726 25.5577 10.8628 25.7967C10.2231 27.1887 9.51581 28.5477 8.78985 29.8926C8.07421 31.2184 7.3092 32.5143 6.52625 33.8704Z" fill="#91969B"/>
<path d="M26.8845 54.0286C26.1981 53.8754 25.5822 53.7297 24.8353 53.5529C26.6148 51.8705 28.2959 50.2811 30.0047 48.6655C31.7369 50.2804 33.4383 51.8665 35.2542 53.5595C32.3934 54.4377 29.6853 54.4473 26.8845 54.0286Z" fill="#91969A"/>
<path d="M10.5103 19.9348C10.8874 17.5669 12.3832 16.2518 14.3552 16.6992C13.562 18.6639 12.7836 20.5916 11.981 22.5795C10.9097 21.9638 10.6383 21.031 10.5103 19.9348Z" fill="#90959A"/>
<path d="M48.5665 18.0121C49.7421 19.3169 49.5673 21.3887 48.058 22.8166C47.238 20.8181 46.4461 18.8882 45.6022 16.8316C46.8953 16.7653 47.8612 16.9425 48.5665 18.0121Z" fill="#91969B"/>
<path d="M20.6876 25.0315C20.8581 24.3369 21.2658 24.0986 21.79 24.3963C22.3727 24.7273 22.983 25.1017 23.4093 25.6171C23.8458 26.1448 23.3551 26.9319 22.6637 26.9494C21.6097 26.9761 20.6623 26.0923 20.6876 25.0315Z" fill="#90959A"/>
<path d="M38.187 24.5555C38.7673 24.0521 39.2984 24.0734 39.7221 24.6306C40.1675 25.2163 39.8958 25.77 39.4358 26.1741C39.0948 26.4737 38.6845 26.7745 38.2665 26.8581C37.9137 26.9286 37.2827 26.799 37.1754 26.5578C37.0235 26.2163 37.1521 25.6462 37.3274 25.2583C37.4605 24.9636 37.8531 24.8005 38.187 24.5555Z" fill="#91969B"/>
</g>
<defs>
<clipPath id="clip0_49_26">
<rect width="60" height="68.2192" fill="white" transform="translate(0 0.0487671)"/>
</clipPath>
</defs>
</svg>
