<svg width="141" height="19" viewBox="0 0 141 19" fill="none" xmlns="http://www.w3.org/2000/svg">
<path d="M0.00800008 1.28852C0.344 1.30452 0.784 1.32052 1.328 1.33652C1.872 1.35252 2.408 1.36052 2.936 1.36052C3.688 1.36052 4.408 1.35252 5.096 1.33652C5.784 1.32052 6.272 1.31252 6.56 1.31252C8.496 1.31252 9.944 1.75252 10.904 2.63252C11.864 3.51252 12.344 4.64852 12.344 6.04052C12.344 6.61652 12.248 7.22452 12.056 7.86452C11.864 8.48852 11.528 9.07252 11.048 9.61652C10.584 10.1445 9.944 10.5765 9.128 10.9125C8.312 11.2485 7.28 11.4165 6.032 11.4165H3.728V10.9365H5.792C6.928 10.9365 7.792 10.7205 8.384 10.2885C8.992 9.85652 9.4 9.28852 9.608 8.58452C9.832 7.88052 9.944 7.12052 9.944 6.30452C9.944 4.78452 9.64 3.64852 9.032 2.89652C8.44 2.14452 7.416 1.76852 5.96 1.76852C5.224 1.76852 4.744 1.90452 4.52 2.17652C4.296 2.44852 4.184 3.00052 4.184 3.83252V15.7365C4.184 16.3125 4.24 16.7445 4.352 17.0325C4.48 17.3205 4.72 17.5125 5.072 17.6085C5.424 17.7045 5.936 17.7685 6.608 17.8005V18.2805C6.192 18.2485 5.664 18.2325 5.024 18.2325C4.384 18.2165 3.736 18.2085 3.08 18.2085C2.456 18.2085 1.872 18.2165 1.328 18.2325C0.784 18.2325 0.344 18.2485 0.00800008 18.2805V17.8005C0.552 17.7685 0.96 17.7045 1.232 17.6085C1.52 17.5125 1.712 17.3205 1.808 17.0325C1.904 16.7445 1.952 16.3125 1.952 15.7365V3.83252C1.952 3.24052 1.904 2.80852 1.808 2.53652C1.712 2.24852 1.52 2.05652 1.232 1.96052C0.96 1.84852 0.552 1.78452 0.00800008 1.76852V1.28852ZM14.0471 1.28852C14.3831 1.30452 14.8231 1.32052 15.3671 1.33652C15.9111 1.35252 16.4471 1.36052 16.9751 1.36052C17.7271 1.36052 18.4471 1.35252 19.1351 1.33652C19.8231 1.32052 20.3111 1.31252 20.5991 1.31252C21.8951 1.31252 22.9671 1.49652 23.8151 1.86452C24.6791 2.23252 25.3191 2.73652 25.7351 3.37652C26.1671 4.00052 26.3831 4.70452 26.3831 5.48852C26.3831 5.96852 26.2871 6.48052 26.0951 7.02452C25.9031 7.56852 25.5671 8.08052 25.0871 8.56052C24.6231 9.04052 23.9831 9.44052 23.1671 9.76052C22.3511 10.0645 21.3191 10.2165 20.0711 10.2165H17.7671V9.73652H19.8311C20.9671 9.73652 21.8311 9.56052 22.4231 9.20852C23.0311 8.84052 23.4391 8.36052 23.6471 7.76852C23.8711 7.16052 23.9831 6.48852 23.9831 5.75252C23.9831 4.48852 23.6791 3.51252 23.0711 2.82452C22.4791 2.12052 21.4551 1.76852 19.9991 1.76852C19.2631 1.76852 18.7831 1.90452 18.5591 2.17652C18.3351 2.44852 18.2231 3.00052 18.2231 3.83252V15.7365C18.2231 16.3125 18.2711 16.7445 18.3671 17.0325C18.4631 17.3205 18.6471 17.5125 18.9191 17.6085C19.2071 17.7045 19.6231 17.7685 20.1671 17.8005V18.2805C19.7991 18.2485 19.3351 18.2325 18.7751 18.2325C18.2311 18.2165 17.6791 18.2085 17.1191 18.2085C16.4951 18.2085 15.9111 18.2165 15.3671 18.2325C14.8231 18.2325 14.3831 18.2485 14.0471 18.2805V17.8005C14.5911 17.7685 14.9991 17.7045 15.2711 17.6085C15.5591 17.5125 15.7511 17.3205 15.8471 17.0325C15.9431 16.7445 15.9911 16.3125 15.9911 15.7365V3.83252C15.9911 3.24052 15.9431 2.80852 15.8471 2.53652C15.7511 2.24852 15.5591 2.05652 15.2711 1.96052C14.9991 1.84852 14.5911 1.78452 14.0471 1.76852V1.28852ZM17.8631 9.80852C18.7271 9.84052 19.4071 9.88052 19.9031 9.92852C20.3991 9.96052 20.7991 9.99252 21.1031 10.0245C21.4231 10.0565 21.7271 10.0965 22.0151 10.1445C23.0871 10.3205 23.8551 10.6485 24.3191 11.1285C24.7991 11.5925 25.1511 12.3205 25.3751 13.3125L25.9751 15.7605C26.1351 16.4645 26.2951 16.9765 26.4551 17.2965C26.6311 17.6005 26.8951 17.7445 27.2471 17.7285C27.5191 17.7125 27.7431 17.6245 27.9191 17.4645C28.1111 17.3045 28.3111 17.0885 28.5191 16.8165L28.8791 17.0805C28.5431 17.5765 28.1911 17.9605 27.8231 18.2325C27.4711 18.4885 26.9671 18.6165 26.3111 18.6165C25.7191 18.6165 25.1991 18.4405 24.7511 18.0885C24.3031 17.7365 23.9671 17.0485 23.7431 16.0245L23.2151 13.6245C23.0711 12.9365 22.9031 12.3445 22.7111 11.8485C22.5351 11.3365 22.2791 10.9365 21.9431 10.6485C21.6231 10.3605 21.1431 10.2165 20.5031 10.2165H17.9111L17.8631 9.80852ZM37.5056 0.952516C39.0256 0.952516 40.3536 1.29652 41.4896 1.98452C42.6416 2.67252 43.5296 3.66452 44.1536 4.96052C44.7936 6.24052 45.1136 7.80052 45.1136 9.64052C45.1136 11.4325 44.7856 13.0005 44.1296 14.3445C43.4896 15.6885 42.5936 16.7365 41.4416 17.4885C40.2896 18.2405 38.9696 18.6165 37.4816 18.6165C35.9616 18.6165 34.6256 18.2725 33.4736 17.5845C32.3376 16.8965 31.4496 15.9045 30.8096 14.6085C30.1856 13.3125 29.8736 11.7525 29.8736 9.92852C29.8736 8.13652 30.2016 6.56852 30.8576 5.22452C31.5136 3.88052 32.4096 2.83252 33.5456 2.08052C34.6976 1.32852 36.0176 0.952516 37.5056 0.952516ZM37.4096 1.38452C36.3696 1.38452 35.4656 1.74452 34.6976 2.46452C33.9296 3.18452 33.3296 4.17652 32.8976 5.44052C32.4816 6.70452 32.2736 8.16852 32.2736 9.83252C32.2736 11.5285 32.5056 13.0085 32.9696 14.2725C33.4496 15.5205 34.0896 16.4885 34.8896 17.1765C35.7056 17.8485 36.6016 18.1845 37.5776 18.1845C38.6176 18.1845 39.5216 17.8245 40.2896 17.1045C41.0576 16.3845 41.6496 15.3925 42.0656 14.1285C42.4976 12.8485 42.7136 11.3845 42.7136 9.73652C42.7136 8.02452 42.4736 6.54452 41.9936 5.29652C41.5296 4.04852 40.8976 3.08852 40.0976 2.41652C39.2976 1.72852 38.4016 1.38452 37.4096 1.38452ZM53.7631 1.28852C56.6271 1.28852 58.7551 2.00852 60.1471 3.44852C61.5391 4.87252 62.2351 6.92052 62.2351 9.59252C62.2351 11.3365 61.8911 12.8645 61.2031 14.1765C60.5311 15.4725 59.5471 16.4805 58.2511 17.2005C56.9551 17.9205 55.3871 18.2805 53.5471 18.2805C53.3071 18.2805 52.9871 18.2725 52.5871 18.2565C52.1871 18.2405 51.7711 18.2325 51.3391 18.2325C50.9231 18.2165 50.5391 18.2085 50.1871 18.2085C49.6271 18.2085 49.0751 18.2165 48.5311 18.2325C47.9871 18.2325 47.5471 18.2485 47.2111 18.2805V17.8005C47.7551 17.7685 48.1631 17.7045 48.4351 17.6085C48.7231 17.5125 48.9151 17.3205 49.0111 17.0325C49.1071 16.7445 49.1551 16.3125 49.1551 15.7365V3.83252C49.1551 3.24052 49.1071 2.80852 49.0111 2.53652C48.9151 2.24852 48.7231 2.05652 48.4351 1.96052C48.1631 1.84852 47.7551 1.78452 47.2111 1.76852V1.28852C47.5471 1.30452 47.9871 1.32852 48.5311 1.36052C49.0751 1.37652 49.6111 1.37652 50.1391 1.36052C50.6991 1.34452 51.3311 1.32852 52.0351 1.31252C52.7391 1.29652 53.3151 1.28852 53.7631 1.28852ZM53.1631 1.72052C52.4271 1.72052 51.9471 1.85652 51.7231 2.12852C51.4991 2.40052 51.3871 2.95252 51.3871 3.78452V15.7845C51.3871 16.6165 51.4991 17.1685 51.7231 17.4405C51.9631 17.7125 52.4511 17.8485 53.1871 17.8485C54.9311 17.8485 56.2831 17.5365 57.2431 16.9125C58.2031 16.2725 58.8751 15.3445 59.2591 14.1285C59.6431 12.9125 59.8351 11.4325 59.8351 9.68852C59.8351 7.89652 59.6191 6.41652 59.1871 5.24852C58.7711 4.06452 58.0751 3.18452 57.0991 2.60852C56.1391 2.01652 54.8271 1.72052 53.1631 1.72052ZM79.1028 1.28852V1.76852C78.5588 1.78452 78.1428 1.86452 77.8548 2.00852C77.5828 2.15252 77.3988 2.38452 77.3028 2.70452C77.2068 3.02452 77.1588 3.48052 77.1588 4.07252V11.2965C77.1588 12.4165 77.0868 13.3925 76.9428 14.2245C76.7988 15.0565 76.5428 15.7765 76.1748 16.3845C75.7748 17.0565 75.1908 17.6005 74.4228 18.0165C73.6548 18.4165 72.7748 18.6165 71.7828 18.6165C71.0148 18.6165 70.2788 18.5205 69.5748 18.3285C68.8868 18.1525 68.2788 17.8165 67.7508 17.3205C67.2868 16.8725 66.9188 16.4005 66.6468 15.9045C66.3908 15.4085 66.2148 14.8005 66.1188 14.0805C66.0228 13.3605 65.9748 12.4565 65.9748 11.3685V3.83252C65.9748 3.24052 65.9268 2.80852 65.8308 2.53652C65.7348 2.24852 65.5428 2.05652 65.2548 1.96052C64.9828 1.84852 64.5748 1.78452 64.0308 1.76852V1.28852C64.3668 1.30452 64.8068 1.32052 65.3508 1.33652C65.8948 1.35252 66.4788 1.36052 67.1028 1.36052C67.6628 1.36052 68.2148 1.35252 68.7588 1.33652C69.3188 1.32052 69.7828 1.30452 70.1508 1.28852V1.76852C69.6068 1.78452 69.1908 1.84852 68.9028 1.96052C68.6308 2.05652 68.4468 2.24852 68.3508 2.53652C68.2548 2.80852 68.2068 3.24052 68.2068 3.83252V11.7765C68.2068 12.5925 68.2468 13.3685 68.3268 14.1045C68.4068 14.8245 68.5668 15.4645 68.8068 16.0245C69.0628 16.5685 69.4468 17.0005 69.9588 17.3205C70.4708 17.6245 71.1508 17.7765 71.9988 17.7765C73.2148 17.7765 74.1508 17.5125 74.8068 16.9845C75.4788 16.4405 75.9428 15.6965 76.1988 14.7525C76.4708 13.8085 76.6068 12.7445 76.6068 11.5605V4.07252C76.6068 3.48052 76.5348 3.02452 76.3908 2.70452C76.2628 2.38452 76.0388 2.15252 75.7188 2.00852C75.3988 1.86452 74.9668 1.78452 74.4228 1.76852V1.28852C74.7108 1.30452 75.0868 1.32052 75.5508 1.33652C76.0308 1.35252 76.4708 1.36052 76.8708 1.36052C77.2868 1.36052 77.6948 1.35252 78.0948 1.33652C78.5108 1.32052 78.8468 1.30452 79.1028 1.28852ZM88.5056 0.952516C89.5616 0.952516 90.4256 1.11252 91.0976 1.43252C91.7856 1.73652 92.3936 2.09652 92.9216 2.51252C93.2416 2.75252 93.4816 2.78452 93.6416 2.60852C93.8176 2.41652 93.9376 1.97652 94.0016 1.28852H94.5536C94.5216 1.88052 94.4976 2.60052 94.4816 3.44852C94.4656 4.29652 94.4576 5.41652 94.4576 6.80852H93.9056C93.7936 6.12052 93.6896 5.57652 93.5936 5.17652C93.4976 4.76052 93.3776 4.40852 93.2336 4.12052C93.1056 3.83252 92.9296 3.54452 92.7056 3.25652C92.2096 2.60052 91.5856 2.12852 90.8336 1.84052C90.0816 1.53652 89.2896 1.38452 88.4576 1.38452C87.6736 1.38452 86.9616 1.58452 86.3216 1.98452C85.6976 2.36852 85.1536 2.92852 84.6896 3.66452C84.2416 4.40052 83.8896 5.28852 83.6336 6.32852C83.3936 7.36852 83.2736 8.53652 83.2736 9.83252C83.2736 11.1765 83.4096 12.3685 83.6816 13.4085C83.9536 14.4325 84.3296 15.2965 84.8096 16.0005C85.3056 16.7045 85.8816 17.2405 86.5376 17.6085C87.2096 17.9605 87.9296 18.1365 88.6976 18.1365C89.4176 18.1365 90.1696 17.9925 90.9536 17.7045C91.7376 17.4165 92.3536 16.9525 92.8016 16.3125C93.1536 15.8485 93.3936 15.3445 93.5216 14.8005C93.6656 14.2565 93.7936 13.4965 93.9056 12.5205H94.4576C94.4576 13.9765 94.4656 15.1525 94.4816 16.0485C94.4976 16.9285 94.5216 17.6725 94.5536 18.2805H94.0016C93.9376 17.5925 93.8256 17.1605 93.6656 16.9845C93.5216 16.8085 93.2736 16.8325 92.9216 17.0565C92.3296 17.4725 91.6976 17.8405 91.0256 18.1605C90.3696 18.4645 89.5216 18.6165 88.4816 18.6165C86.9616 18.6165 85.6256 18.2725 84.4736 17.5845C83.3376 16.8965 82.4496 15.9045 81.8096 14.6085C81.1856 13.3125 80.8736 11.7525 80.8736 9.92852C80.8736 8.13652 81.2016 6.56852 81.8576 5.22452C82.5136 3.88052 83.4096 2.83252 84.5456 2.08052C85.6976 1.32852 87.0176 0.952516 88.5056 0.952516ZM110.333 1.28852C110.269 1.89652 110.221 2.48852 110.189 3.06452C110.173 3.62452 110.165 4.05652 110.165 4.36052C110.165 4.74452 110.173 5.10452 110.189 5.44052C110.205 5.77652 110.221 6.07252 110.237 6.32852H109.685C109.573 5.20852 109.421 4.32852 109.229 3.68852C109.037 3.03252 108.701 2.56052 108.221 2.27252C107.741 1.98452 106.997 1.84052 105.989 1.84052H104.693V15.4965C104.693 16.1365 104.749 16.6165 104.861 16.9365C104.989 17.2565 105.229 17.4725 105.581 17.5845C105.933 17.6965 106.445 17.7685 107.117 17.8005V18.2805C106.701 18.2485 106.173 18.2325 105.533 18.2325C104.893 18.2165 104.245 18.2085 103.589 18.2085C102.869 18.2085 102.189 18.2165 101.549 18.2325C100.925 18.2325 100.421 18.2485 100.037 18.2805V17.8005C100.709 17.7685 101.221 17.6965 101.573 17.5845C101.925 17.4725 102.157 17.2565 102.269 16.9365C102.397 16.6165 102.461 16.1365 102.461 15.4965V1.84052H101.165C100.173 1.84052 99.429 1.98452 98.933 2.27252C98.453 2.56052 98.117 3.03252 97.925 3.68852C97.733 4.32852 97.581 5.20852 97.469 6.32852H96.917C96.949 6.07252 96.965 5.77652 96.965 5.44052C96.981 5.10452 96.989 4.74452 96.989 4.36052C96.989 4.05652 96.973 3.62452 96.941 3.06452C96.925 2.48852 96.885 1.89652 96.821 1.28852C97.493 1.30452 98.221 1.32052 99.005 1.33652C99.805 1.35252 100.605 1.36052 101.405 1.36052C102.205 1.36052 102.933 1.36052 103.589 1.36052C104.245 1.36052 104.965 1.36052 105.749 1.36052C106.549 1.36052 107.349 1.35252 108.149 1.33652C108.949 1.32052 109.677 1.30452 110.333 1.28852ZM119.935 0.952516C121.455 0.952516 122.783 1.29652 123.919 1.98452C125.071 2.67252 125.959 3.66452 126.583 4.96052C127.223 6.24052 127.543 7.80052 127.543 9.64052C127.543 11.4325 127.215 13.0005 126.559 14.3445C125.919 15.6885 125.023 16.7365 123.871 17.4885C122.719 18.2405 121.399 18.6165 119.911 18.6165C118.391 18.6165 117.055 18.2725 115.903 17.5845C114.767 16.8965 113.879 15.9045 113.239 14.6085C112.615 13.3125 112.303 11.7525 112.303 9.92852C112.303 8.13652 112.631 6.56852 113.287 5.22452C113.943 3.88052 114.839 2.83252 115.975 2.08052C117.127 1.32852 118.447 0.952516 119.935 0.952516ZM119.839 1.38452C118.799 1.38452 117.895 1.74452 117.127 2.46452C116.359 3.18452 115.759 4.17652 115.327 5.44052C114.911 6.70452 114.703 8.16852 114.703 9.83252C114.703 11.5285 114.935 13.0085 115.399 14.2725C115.879 15.5205 116.519 16.4885 117.319 17.1765C118.135 17.8485 119.031 18.1845 120.007 18.1845C121.047 18.1845 121.951 17.8245 122.719 17.1045C123.487 16.3845 124.079 15.3925 124.495 14.1285C124.927 12.8485 125.143 11.3845 125.143 9.73652C125.143 8.02452 124.903 6.54452 124.423 5.29652C123.959 4.04852 123.327 3.08852 122.527 2.41652C121.727 1.72852 120.831 1.38452 119.839 1.38452ZM134.964 1.02452C135.764 1.02452 136.372 1.12052 136.788 1.31252C137.204 1.48852 137.572 1.68852 137.892 1.91252C138.084 2.02452 138.236 2.11252 138.348 2.17652C138.476 2.22452 138.596 2.24852 138.708 2.24852C138.868 2.24852 138.98 2.16052 139.044 1.98452C139.124 1.80852 139.188 1.54452 139.236 1.19252H139.788C139.772 1.46452 139.748 1.79252 139.716 2.17652C139.7 2.54452 139.684 3.04052 139.668 3.66452C139.668 4.27252 139.668 5.08052 139.668 6.08852H139.116C139.068 5.32052 138.9 4.58452 138.612 3.88052C138.324 3.17652 137.9 2.60052 137.34 2.15252C136.796 1.70452 136.076 1.48052 135.18 1.48052C134.332 1.48052 133.628 1.73652 133.068 2.24852C132.524 2.76052 132.252 3.43252 132.252 4.26452C132.252 4.98452 132.436 5.59252 132.804 6.08852C133.172 6.56852 133.66 7.00852 134.268 7.40852C134.892 7.79252 135.564 8.20852 136.284 8.65652C137.116 9.16852 137.852 9.68052 138.492 10.1925C139.148 10.6885 139.66 11.2405 140.028 11.8485C140.412 12.4565 140.604 13.1925 140.604 14.0565C140.604 15.0805 140.372 15.9285 139.908 16.6005C139.444 17.2725 138.828 17.7765 138.06 18.1125C137.292 18.4485 136.444 18.6165 135.516 18.6165C134.668 18.6165 133.996 18.5205 133.5 18.3285C133.004 18.1365 132.58 17.9365 132.228 17.7285C131.876 17.5045 131.604 17.3925 131.412 17.3925C131.252 17.3925 131.132 17.4805 131.052 17.6565C130.988 17.8325 130.932 18.0965 130.884 18.4485H130.332C130.364 18.1125 130.38 17.7205 130.38 17.2725C130.396 16.8085 130.404 16.2085 130.404 15.4725C130.42 14.7365 130.428 13.8085 130.428 12.6885H130.98C131.044 13.6485 131.22 14.5445 131.508 15.3765C131.812 16.2085 132.268 16.8805 132.876 17.3925C133.5 17.8885 134.324 18.1365 135.348 18.1365C135.876 18.1365 136.372 18.0325 136.836 17.8245C137.316 17.6005 137.708 17.2565 138.012 16.7925C138.316 16.3125 138.468 15.6965 138.468 14.9445C138.468 14.2885 138.308 13.7205 137.988 13.2405C137.684 12.7445 137.252 12.2885 136.692 11.8725C136.132 11.4405 135.476 11.0005 134.724 10.5525C133.972 10.0885 133.268 9.61652 132.612 9.13652C131.956 8.65652 131.428 8.10452 131.028 7.48052C130.644 6.84052 130.452 6.07252 130.452 5.17652C130.452 4.23252 130.66 3.45652 131.076 2.84852C131.508 2.22452 132.068 1.76852 132.756 1.48052C133.444 1.17652 134.18 1.02452 134.964 1.02452Z" fill="white"/>
</svg>
