<svg width="142" height="19" viewBox="0 0 142 19" fill="none" xmlns="http://www.w3.org/2000/svg">
<path d="M0.508 1.008C0.844 1.024 1.284 1.04 1.828 1.056C2.372 1.072 2.908 1.08 3.436 1.08C4.188 1.08 4.908 1.072 5.596 1.056C6.284 1.04 6.772 1.032 7.06 1.032C8.996 1.032 10.444 1.472 11.404 2.352C12.364 3.232 12.844 4.368 12.844 5.76C12.844 6.336 12.748 6.944 12.556 7.584C12.364 8.208 12.028 8.792 11.548 9.336C11.084 9.864 10.444 10.296 9.628 10.632C8.812 10.968 7.78 11.136 6.532 11.136H4.228V10.656H6.292C7.428 10.656 8.292 10.44 8.884 10.008C9.492 9.576 9.9 9.008 10.108 8.304C10.332 7.6 10.444 6.84 10.444 6.024C10.444 4.504 10.14 3.368 9.532 2.616C8.94 1.864 7.916 1.488 6.46 1.488C5.724 1.488 5.244 1.624 5.02 1.896C4.796 2.168 4.684 2.72 4.684 3.552V15.456C4.684 16.032 4.74 16.464 4.852 16.752C4.98 17.04 5.22 17.232 5.572 17.328C5.924 17.424 6.436 17.488 7.108 17.52V18C6.692 17.968 6.164 17.952 5.524 17.952C4.884 17.936 4.236 17.928 3.58 17.928C2.956 17.928 2.372 17.936 1.828 17.952C1.284 17.952 0.844 17.968 0.508 18V17.52C1.052 17.488 1.46 17.424 1.732 17.328C2.02 17.232 2.212 17.04 2.308 16.752C2.404 16.464 2.452 16.032 2.452 15.456V3.552C2.452 2.96 2.404 2.528 2.308 2.256C2.212 1.968 2.02 1.776 1.732 1.68C1.46 1.568 1.052 1.504 0.508 1.488V1.008ZM14.5471 1.008C14.8831 1.024 15.3231 1.04 15.8671 1.056C16.4111 1.072 16.9471 1.08 17.4751 1.08C18.2271 1.08 18.9471 1.072 19.6351 1.056C20.3231 1.04 20.8111 1.032 21.0991 1.032C22.3951 1.032 23.4671 1.216 24.3151 1.584C25.1791 1.952 25.8191 2.456 26.2351 3.096C26.6671 3.72 26.8831 4.424 26.8831 5.208C26.8831 5.688 26.7871 6.2 26.5951 6.744C26.4031 7.288 26.0671 7.8 25.5871 8.28C25.1231 8.76 24.4831 9.16 23.6671 9.48C22.8511 9.784 21.8191 9.936 20.5711 9.936H18.2671V9.456H20.3311C21.4671 9.456 22.3311 9.28 22.9231 8.928C23.5311 8.56 23.9391 8.08 24.1471 7.488C24.3711 6.88 24.4831 6.208 24.4831 5.472C24.4831 4.208 24.1791 3.232 23.5711 2.544C22.9791 1.84 21.9551 1.488 20.4991 1.488C19.7631 1.488 19.2831 1.624 19.0591 1.896C18.8351 2.168 18.7231 2.72 18.7231 3.552V15.456C18.7231 16.032 18.7711 16.464 18.8671 16.752C18.9631 17.04 19.1471 17.232 19.4191 17.328C19.7071 17.424 20.1231 17.488 20.6671 17.52V18C20.2991 17.968 19.8351 17.952 19.2751 17.952C18.7311 17.936 18.1791 17.928 17.6191 17.928C16.9951 17.928 16.4111 17.936 15.8671 17.952C15.3231 17.952 14.8831 17.968 14.5471 18V17.52C15.0911 17.488 15.4991 17.424 15.7711 17.328C16.0591 17.232 16.2511 17.04 16.3471 16.752C16.4431 16.464 16.4911 16.032 16.4911 15.456V3.552C16.4911 2.96 16.4431 2.528 16.3471 2.256C16.2511 1.968 16.0591 1.776 15.7711 1.68C15.4991 1.568 15.0911 1.504 14.5471 1.488V1.008ZM18.3631 9.528C19.2271 9.56 19.9071 9.6 20.4031 9.648C20.8991 9.68 21.2991 9.712 21.6031 9.744C21.9231 9.776 22.2271 9.816 22.5151 9.864C23.5871 10.04 24.3551 10.368 24.8191 10.848C25.2991 11.312 25.6511 12.04 25.8751 13.032L26.4751 15.48C26.6351 16.184 26.7951 16.696 26.9551 17.016C27.1311 17.32 27.3951 17.464 27.7471 17.448C28.0191 17.432 28.2431 17.344 28.4191 17.184C28.6111 17.024 28.8111 16.808 29.0191 16.536L29.3791 16.8C29.0431 17.296 28.6911 17.68 28.3231 17.952C27.9711 18.208 27.4671 18.336 26.8111 18.336C26.2191 18.336 25.6991 18.16 25.2511 17.808C24.8031 17.456 24.4671 16.768 24.2431 15.744L23.7151 13.344C23.5711 12.656 23.4031 12.064 23.2111 11.568C23.0351 11.056 22.7791 10.656 22.4431 10.368C22.1231 10.08 21.6431 9.936 21.0031 9.936H18.4111L18.3631 9.528ZM38.0056 0.671999C39.5256 0.671999 40.8536 1.016 41.9896 1.704C43.1416 2.392 44.0296 3.384 44.6536 4.68C45.2936 5.96 45.6136 7.52 45.6136 9.36C45.6136 11.152 45.2856 12.72 44.6296 14.064C43.9896 15.408 43.0936 16.456 41.9416 17.208C40.7896 17.96 39.4696 18.336 37.9816 18.336C36.4616 18.336 35.1256 17.992 33.9736 17.304C32.8376 16.616 31.9496 15.624 31.3096 14.328C30.6856 13.032 30.3736 11.472 30.3736 9.648C30.3736 7.856 30.7016 6.288 31.3576 4.944C32.0136 3.6 32.9096 2.552 34.0456 1.8C35.1976 1.048 36.5176 0.671999 38.0056 0.671999ZM37.9096 1.104C36.8696 1.104 35.9656 1.464 35.1976 2.184C34.4296 2.904 33.8296 3.896 33.3976 5.16C32.9816 6.424 32.7736 7.888 32.7736 9.552C32.7736 11.248 33.0056 12.728 33.4696 13.992C33.9496 15.24 34.5896 16.208 35.3896 16.896C36.2056 17.568 37.1016 17.904 38.0776 17.904C39.1176 17.904 40.0216 17.544 40.7896 16.824C41.5576 16.104 42.1496 15.112 42.5656 13.848C42.9976 12.568 43.2136 11.104 43.2136 9.456C43.2136 7.744 42.9736 6.264 42.4936 5.016C42.0296 3.768 41.3976 2.808 40.5976 2.136C39.7976 1.448 38.9016 1.104 37.9096 1.104ZM54.2631 1.008C57.1271 1.008 59.2551 1.728 60.6471 3.168C62.0391 4.592 62.7351 6.64 62.7351 9.312C62.7351 11.056 62.3911 12.584 61.7031 13.896C61.0311 15.192 60.0471 16.2 58.7511 16.92C57.4551 17.64 55.8871 18 54.0471 18C53.8071 18 53.4871 17.992 53.0871 17.976C52.6871 17.96 52.2711 17.952 51.8391 17.952C51.4231 17.936 51.0391 17.928 50.6871 17.928C50.1271 17.928 49.5751 17.936 49.0311 17.952C48.4871 17.952 48.0471 17.968 47.7111 18V17.52C48.2551 17.488 48.6631 17.424 48.9351 17.328C49.2231 17.232 49.4151 17.04 49.5111 16.752C49.6071 16.464 49.6551 16.032 49.6551 15.456V3.552C49.6551 2.96 49.6071 2.528 49.5111 2.256C49.4151 1.968 49.2231 1.776 48.9351 1.68C48.6631 1.568 48.2551 1.504 47.7111 1.488V1.008C48.0471 1.024 48.4871 1.048 49.0311 1.08C49.5751 1.096 50.1111 1.096 50.6391 1.08C51.1991 1.064 51.8311 1.048 52.5351 1.032C53.2391 1.016 53.8151 1.008 54.2631 1.008ZM53.6631 1.44C52.9271 1.44 52.4471 1.576 52.2231 1.848C51.9991 2.12 51.8871 2.672 51.8871 3.504V15.504C51.8871 16.336 51.9991 16.888 52.2231 17.16C52.4631 17.432 52.9511 17.568 53.6871 17.568C55.4311 17.568 56.7831 17.256 57.7431 16.632C58.7031 15.992 59.3751 15.064 59.7591 13.848C60.1431 12.632 60.3351 11.152 60.3351 9.408C60.3351 7.616 60.1191 6.136 59.6871 4.968C59.2711 3.784 58.5751 2.904 57.5991 2.328C56.6391 1.736 55.3271 1.44 53.6631 1.44ZM79.6028 1.008V1.488C79.0588 1.504 78.6428 1.584 78.3548 1.728C78.0828 1.872 77.8988 2.104 77.8028 2.424C77.7068 2.744 77.6588 3.2 77.6588 3.792V11.016C77.6588 12.136 77.5868 13.112 77.4428 13.944C77.2988 14.776 77.0428 15.496 76.6748 16.104C76.2748 16.776 75.6908 17.32 74.9228 17.736C74.1548 18.136 73.2748 18.336 72.2828 18.336C71.5148 18.336 70.7788 18.24 70.0748 18.048C69.3868 17.872 68.7788 17.536 68.2508 17.04C67.7868 16.592 67.4188 16.12 67.1468 15.624C66.8908 15.128 66.7148 14.52 66.6188 13.8C66.5228 13.08 66.4748 12.176 66.4748 11.088V3.552C66.4748 2.96 66.4268 2.528 66.3308 2.256C66.2348 1.968 66.0428 1.776 65.7548 1.68C65.4828 1.568 65.0748 1.504 64.5308 1.488V1.008C64.8668 1.024 65.3068 1.04 65.8508 1.056C66.3948 1.072 66.9788 1.08 67.6028 1.08C68.1628 1.08 68.7148 1.072 69.2588 1.056C69.8188 1.04 70.2828 1.024 70.6508 1.008V1.488C70.1068 1.504 69.6908 1.568 69.4028 1.68C69.1308 1.776 68.9468 1.968 68.8508 2.256C68.7548 2.528 68.7068 2.96 68.7068 3.552V11.496C68.7068 12.312 68.7468 13.088 68.8268 13.824C68.9068 14.544 69.0668 15.184 69.3068 15.744C69.5628 16.288 69.9468 16.72 70.4588 17.04C70.9708 17.344 71.6508 17.496 72.4988 17.496C73.7148 17.496 74.6508 17.232 75.3068 16.704C75.9788 16.16 76.4428 15.416 76.6988 14.472C76.9708 13.528 77.1068 12.464 77.1068 11.28V3.792C77.1068 3.2 77.0348 2.744 76.8908 2.424C76.7628 2.104 76.5388 1.872 76.2188 1.728C75.8988 1.584 75.4668 1.504 74.9228 1.488V1.008C75.2108 1.024 75.5868 1.04 76.0508 1.056C76.5308 1.072 76.9708 1.08 77.3708 1.08C77.7868 1.08 78.1948 1.072 78.5948 1.056C79.0108 1.04 79.3468 1.024 79.6028 1.008ZM89.0056 0.671999C90.0616 0.671999 90.9256 0.831999 91.5976 1.152C92.2856 1.456 92.8936 1.816 93.4216 2.232C93.7416 2.472 93.9816 2.504 94.1416 2.328C94.3176 2.136 94.4376 1.696 94.5016 1.008H95.0536C95.0216 1.6 94.9976 2.32 94.9816 3.168C94.9656 4.016 94.9576 5.136 94.9576 6.528H94.4056C94.2936 5.84 94.1896 5.296 94.0936 4.896C93.9976 4.48 93.8776 4.128 93.7336 3.84C93.6056 3.552 93.4296 3.264 93.2056 2.976C92.7096 2.32 92.0856 1.848 91.3336 1.56C90.5816 1.256 89.7896 1.104 88.9576 1.104C88.1736 1.104 87.4616 1.304 86.8216 1.704C86.1976 2.088 85.6536 2.648 85.1896 3.384C84.7416 4.12 84.3896 5.008 84.1336 6.048C83.8936 7.088 83.7736 8.256 83.7736 9.552C83.7736 10.896 83.9096 12.088 84.1816 13.128C84.4536 14.152 84.8296 15.016 85.3096 15.72C85.8056 16.424 86.3816 16.96 87.0376 17.328C87.7096 17.68 88.4296 17.856 89.1976 17.856C89.9176 17.856 90.6696 17.712 91.4536 17.424C92.2376 17.136 92.8536 16.672 93.3016 16.032C93.6536 15.568 93.8936 15.064 94.0216 14.52C94.1656 13.976 94.2936 13.216 94.4056 12.24H94.9576C94.9576 13.696 94.9656 14.872 94.9816 15.768C94.9976 16.648 95.0216 17.392 95.0536 18H94.5016C94.4376 17.312 94.3256 16.88 94.1656 16.704C94.0216 16.528 93.7736 16.552 93.4216 16.776C92.8296 17.192 92.1976 17.56 91.5256 17.88C90.8696 18.184 90.0216 18.336 88.9816 18.336C87.4616 18.336 86.1256 17.992 84.9736 17.304C83.8376 16.616 82.9496 15.624 82.3096 14.328C81.6856 13.032 81.3736 11.472 81.3736 9.648C81.3736 7.856 81.7016 6.288 82.3576 4.944C83.0136 3.6 83.9096 2.552 85.0456 1.8C86.1976 1.048 87.5176 0.671999 89.0056 0.671999ZM110.833 1.008C110.769 1.616 110.721 2.208 110.689 2.784C110.673 3.344 110.665 3.776 110.665 4.08C110.665 4.464 110.673 4.824 110.689 5.16C110.705 5.496 110.721 5.792 110.737 6.048H110.185C110.073 4.928 109.921 4.048 109.729 3.408C109.537 2.752 109.201 2.28 108.721 1.992C108.241 1.704 107.497 1.56 106.489 1.56H105.193V15.216C105.193 15.856 105.249 16.336 105.361 16.656C105.489 16.976 105.729 17.192 106.081 17.304C106.433 17.416 106.945 17.488 107.617 17.52V18C107.201 17.968 106.673 17.952 106.033 17.952C105.393 17.936 104.745 17.928 104.089 17.928C103.369 17.928 102.689 17.936 102.049 17.952C101.425 17.952 100.921 17.968 100.537 18V17.52C101.209 17.488 101.721 17.416 102.073 17.304C102.425 17.192 102.657 16.976 102.769 16.656C102.897 16.336 102.961 15.856 102.961 15.216V1.56H101.665C100.673 1.56 99.929 1.704 99.433 1.992C98.953 2.28 98.617 2.752 98.425 3.408C98.233 4.048 98.081 4.928 97.969 6.048H97.417C97.449 5.792 97.465 5.496 97.465 5.16C97.481 4.824 97.489 4.464 97.489 4.08C97.489 3.776 97.473 3.344 97.441 2.784C97.425 2.208 97.385 1.616 97.321 1.008C97.993 1.024 98.721 1.04 99.505 1.056C100.305 1.072 101.105 1.08 101.905 1.08C102.705 1.08 103.433 1.08 104.089 1.08C104.745 1.08 105.465 1.08 106.249 1.08C107.049 1.08 107.849 1.072 108.649 1.056C109.449 1.04 110.177 1.024 110.833 1.008ZM120.435 0.671999C121.955 0.671999 123.283 1.016 124.419 1.704C125.571 2.392 126.459 3.384 127.083 4.68C127.723 5.96 128.043 7.52 128.043 9.36C128.043 11.152 127.715 12.72 127.059 14.064C126.419 15.408 125.523 16.456 124.371 17.208C123.219 17.96 121.899 18.336 120.411 18.336C118.891 18.336 117.555 17.992 116.403 17.304C115.267 16.616 114.379 15.624 113.739 14.328C113.115 13.032 112.803 11.472 112.803 9.648C112.803 7.856 113.131 6.288 113.787 4.944C114.443 3.6 115.339 2.552 116.475 1.8C117.627 1.048 118.947 0.671999 120.435 0.671999ZM120.339 1.104C119.299 1.104 118.395 1.464 117.627 2.184C116.859 2.904 116.259 3.896 115.827 5.16C115.411 6.424 115.203 7.888 115.203 9.552C115.203 11.248 115.435 12.728 115.899 13.992C116.379 15.24 117.019 16.208 117.819 16.896C118.635 17.568 119.531 17.904 120.507 17.904C121.547 17.904 122.451 17.544 123.219 16.824C123.987 16.104 124.579 15.112 124.995 13.848C125.427 12.568 125.643 11.104 125.643 9.456C125.643 7.744 125.403 6.264 124.923 5.016C124.459 3.768 123.827 2.808 123.027 2.136C122.227 1.448 121.331 1.104 120.339 1.104ZM135.464 0.743999C136.264 0.743999 136.872 0.839999 137.288 1.032C137.704 1.208 138.072 1.408 138.392 1.632C138.584 1.744 138.736 1.832 138.848 1.896C138.976 1.944 139.096 1.968 139.208 1.968C139.368 1.968 139.48 1.88 139.544 1.704C139.624 1.528 139.688 1.264 139.736 0.912H140.288C140.272 1.184 140.248 1.512 140.216 1.896C140.2 2.264 140.184 2.76 140.168 3.384C140.168 3.992 140.168 4.8 140.168 5.808H139.616C139.568 5.04 139.4 4.304 139.112 3.6C138.824 2.896 138.4 2.32 137.84 1.872C137.296 1.424 136.576 1.2 135.68 1.2C134.832 1.2 134.128 1.456 133.568 1.968C133.024 2.48 132.752 3.152 132.752 3.984C132.752 4.704 132.936 5.312 133.304 5.808C133.672 6.288 134.16 6.728 134.768 7.128C135.392 7.512 136.064 7.928 136.784 8.376C137.616 8.888 138.352 9.4 138.992 9.912C139.648 10.408 140.16 10.96 140.528 11.568C140.912 12.176 141.104 12.912 141.104 13.776C141.104 14.8 140.872 15.648 140.408 16.32C139.944 16.992 139.328 17.496 138.56 17.832C137.792 18.168 136.944 18.336 136.016 18.336C135.168 18.336 134.496 18.24 134 18.048C133.504 17.856 133.08 17.656 132.728 17.448C132.376 17.224 132.104 17.112 131.912 17.112C131.752 17.112 131.632 17.2 131.552 17.376C131.488 17.552 131.432 17.816 131.384 18.168H130.832C130.864 17.832 130.88 17.44 130.88 16.992C130.896 16.528 130.904 15.928 130.904 15.192C130.92 14.456 130.928 13.528 130.928 12.408H131.48C131.544 13.368 131.72 14.264 132.008 15.096C132.312 15.928 132.768 16.6 133.376 17.112C134 17.608 134.824 17.856 135.848 17.856C136.376 17.856 136.872 17.752 137.336 17.544C137.816 17.32 138.208 16.976 138.512 16.512C138.816 16.032 138.968 15.416 138.968 14.664C138.968 14.008 138.808 13.44 138.488 12.96C138.184 12.464 137.752 12.008 137.192 11.592C136.632 11.16 135.976 10.72 135.224 10.272C134.472 9.808 133.768 9.336 133.112 8.856C132.456 8.376 131.928 7.824 131.528 7.2C131.144 6.56 130.952 5.792 130.952 4.896C130.952 3.952 131.16 3.176 131.576 2.568C132.008 1.944 132.568 1.488 133.256 1.2C133.944 0.895999 134.68 0.743999 135.464 0.743999Z" fill="#C39D7F"/>
</svg>
